<svg width="988" height="159" viewBox="0 0 988 159" fill="none" xmlns="http://www.w3.org/2000/svg">
<path d="M22.032 56.248C22.032 45.844 27.132 35.797 37.332 26.107L35.19 0.402998H50.49L49.113 16.315C51.765 14.377 55.845 11.572 61.353 7.89999L79.866 32.686C71.91 35.44 65.484 38.959 60.588 43.243C55.794 47.527 53.397 52.015 53.397 56.707C53.397 59.971 54.57 65.224 56.916 72.466C59.364 79.606 60.588 84.706 60.588 87.766C60.588 96.232 56.559 103.372 48.501 109.186L50.49 132.136H35.19L36.567 115.612C31.263 117.856 24.276 119.947 15.606 121.885L12.393 111.94C26.571 107.962 33.66 100.873 33.66 90.673C33.66 88.123 32.691 85.012 30.753 81.34C28.815 77.668 26.877 73.69 24.939 69.406C23.001 65.02 22.032 60.634 22.032 56.248ZM102.849 18.61C117.129 14.02 131.562 11.725 146.148 11.725C160.734 11.725 171.954 14.173 179.808 19.069C181.644 24.577 182.562 29.83 182.562 34.828C182.562 46.558 177.717 56.401 168.027 64.357C158.337 72.211 145.842 77.872 130.542 81.34L126.87 115.612L111.57 117.142L102.849 18.61ZM153.033 39.265C153.033 31.411 149.82 25.546 143.394 21.67C141.558 21.67 139.314 22.027 136.662 22.741L131.613 70.936C138.243 67.264 143.445 62.521 147.219 56.707C151.095 50.893 153.033 45.079 153.033 39.265ZM214.96 32.533C239.644 42.427 251.986 54.718 251.986 69.406C251.986 77.056 249.793 82.615 245.407 86.083C241.123 89.449 233.116 91.132 221.386 91.132C213.94 91.132 207.82 90.571 203.026 89.449C201.088 94.243 200.119 99.241 200.119 104.443C204.709 105.055 209.911 105.361 215.725 105.361C226.333 105.361 236.329 103.678 245.713 100.312L250.303 115.153C242.857 117.499 234.493 118.672 225.211 118.672C208.687 118.672 196.549 115.663 188.797 109.645C187.165 102.403 186.349 95.569 186.349 89.143C186.349 76.291 189.154 64.714 194.764 54.412C200.476 44.11 207.208 36.817 214.96 32.533ZM206.086 82.258C207.412 82.36 210.727 82.411 216.031 82.411C221.437 82.411 227.608 81.697 234.544 80.269C234.85 78.331 235.003 76.393 235.003 74.455C235.003 68.335 233.32 62.47 229.954 56.86C219.856 63.592 211.9 72.058 206.086 82.258ZM333.257 34.981C335.195 34.981 337.082 35.287 338.918 35.899C342.59 40.285 345.548 46.915 347.792 55.789C350.138 64.561 351.311 74.404 351.311 85.318C351.311 96.13 348.914 104.392 344.12 110.104C339.428 115.816 331.217 118.672 319.487 118.672C311.123 118.672 303.218 116.938 295.772 113.47L291.641 146.824L277.412 148.201L272.669 41.407L305.411 36.358L302.045 63.286H303.116C307.196 54.514 311.837 47.629 317.039 42.631C322.241 37.531 327.647 34.981 333.257 34.981ZM313.52 109.186C317.294 109.186 320.507 108.472 323.159 107.044C324.689 99.19 325.454 91.795 325.454 84.859C325.454 77.821 325.148 71.344 324.536 65.428C323.924 59.512 323.21 55.432 322.394 53.188C320.15 54.106 318.467 54.871 317.345 55.483C316.223 55.993 314.438 57.421 311.99 59.767C309.542 62.011 307.553 64.714 306.023 67.876C301.943 76.444 298.934 88.378 296.996 103.678C301.586 107.35 307.094 109.186 313.52 109.186ZM400.234 32.533C424.918 42.427 437.26 54.718 437.26 69.406C437.26 77.056 435.067 82.615 430.681 86.083C426.397 89.449 418.39 91.132 406.66 91.132C399.214 91.132 393.094 90.571 388.3 89.449C386.362 94.243 385.393 99.241 385.393 104.443C389.983 105.055 395.185 105.361 400.999 105.361C411.607 105.361 421.603 103.678 430.987 100.312L435.577 115.153C428.131 117.499 419.767 118.672 410.485 118.672C393.961 118.672 381.823 115.663 374.071 109.645C372.439 102.403 371.623 95.569 371.623 89.143C371.623 76.291 374.428 64.714 380.038 54.412C385.75 44.11 392.482 36.817 400.234 32.533ZM391.36 82.258C392.686 82.36 396.001 82.411 401.305 82.411C406.711 82.411 412.882 81.697 419.818 80.269C420.124 78.331 420.277 76.393 420.277 74.455C420.277 68.335 418.594 62.47 415.228 56.86C405.13 63.592 397.174 72.058 391.36 82.258ZM454.882 64.663C454.882 51.607 461.767 39.673 475.537 28.861L500.629 45.691C489.307 52.933 483.646 60.532 483.646 68.488C483.646 72.67 485.941 78.127 490.531 84.859C495.223 91.591 497.569 96.844 497.569 100.618C497.569 113.98 488.389 124.282 470.029 131.524L463.297 122.497C471.355 118.111 475.384 113.266 475.384 107.962C475.384 102.964 471.967 96.64 465.133 88.99C462.583 86.134 460.237 82.513 458.095 78.127C455.953 73.741 454.882 69.253 454.882 64.663ZM532.904 117.295L526.325 55.483L512.249 57.472L511.331 41.713L524.795 41.101L522.5 19.681L560.597 14.632L557.537 39.418L572.684 38.653L572.225 48.904L556.007 51.199L548.051 115.918L532.904 117.295ZM594.205 117.295L586.402 41.56L619.144 36.511L609.352 115.918L594.205 117.295ZM591.145 24.577C588.391 21.721 587.014 18.355 587.014 14.479C587.014 10.603 588.391 7.28799 591.145 4.53399C594.001 1.67799 597.367 0.249991 601.243 0.249991C605.119 0.249991 608.434 1.67799 611.188 4.53399C614.044 7.28799 615.472 10.603 615.472 14.479C615.472 18.355 614.044 21.721 611.188 24.577C608.434 27.331 605.119 28.708 601.243 28.708C597.367 28.708 594.001 27.331 591.145 24.577ZM700.619 34.981C702.557 34.981 704.444 35.287 706.28 35.899C711.482 42.223 715.052 53.188 716.99 68.794C718.928 84.298 719.897 99.7 719.897 115L692.357 117.295C692.357 93.835 691.49 72.466 689.756 53.188C676.19 58.186 667.163 79.096 662.675 115.918L647.528 117.295L639.725 41.407L672.467 36.358L669.101 63.286H670.478C674.558 54.412 679.199 47.476 684.401 42.478C689.603 37.48 695.009 34.981 700.619 34.981ZM749.297 117.295L741.494 41.56L774.236 36.511L764.444 115.918L749.297 117.295ZM746.237 24.577C743.483 21.721 742.106 18.355 742.106 14.479C742.106 10.603 743.483 7.28799 746.237 4.53399C749.093 1.67799 752.459 0.249991 756.335 0.249991C760.211 0.249991 763.526 1.67799 766.28 4.53399C769.136 7.28799 770.564 10.603 770.564 14.479C770.564 18.355 769.136 21.721 766.28 24.577C763.526 27.331 760.211 28.708 756.335 28.708C752.459 28.708 749.093 27.331 746.237 24.577ZM805.527 118.519C803.793 118.519 802.518 118.468 801.702 118.366C798.234 116.02 795.429 112.552 793.287 107.962C791.247 103.27 790.227 98.425 790.227 93.427C790.227 86.899 792.675 82.156 797.571 79.198C802.569 76.24 811.698 74.761 824.958 74.761C829.854 74.761 834.954 75.118 840.258 75.832L839.952 72.466C839.544 68.386 837.606 65.173 834.138 62.827C830.67 60.379 826.233 59.155 820.827 59.155C815.421 59.155 810.015 60.838 804.609 64.204L797.877 42.019C806.649 38.449 816.645 36.664 827.865 36.664C839.085 36.664 847.959 39.214 854.487 44.314C861.015 49.312 864.279 57.166 864.279 67.876C864.279 70.324 864.177 72.262 863.973 73.69L859.689 115.918L844.542 117.295L842.247 95.11H841.023C837.555 102.454 832.761 108.217 826.641 112.399C820.521 116.479 813.483 118.519 805.527 118.519ZM840.87 82.258L832.761 82.105C826.029 82.105 820.521 82.462 816.237 83.176C814.809 86.032 814.095 88.582 814.095 90.826C814.095 93.07 814.401 95.212 815.013 97.252C815.625 99.292 816.288 100.669 817.002 101.383C829.242 99.445 837.198 93.07 840.87 82.258ZM944.463 34.981C946.401 34.981 948.288 35.287 950.124 35.899C955.326 42.223 958.896 53.188 960.834 68.794C962.772 84.298 963.741 99.7 963.741 115L936.201 117.295C936.201 93.835 935.334 72.466 933.6 53.188C920.034 58.186 911.007 79.096 906.519 115.918L891.372 117.295L883.569 41.407L916.311 36.358L912.945 63.286H914.322C918.402 54.412 923.043 47.476 928.245 42.478C933.447 37.48 938.853 34.981 944.463 34.981Z" fill="#411C1C"/>
<path d="M35.032 66.248C35.032 55.844 40.132 45.797 50.332 36.107L48.19 10.403H63.49L62.113 26.315C64.765 24.377 68.845 21.572 74.353 17.9L92.866 42.686C84.91 45.44 78.484 48.959 73.588 53.243C68.794 57.527 66.397 62.015 66.397 66.707C66.397 69.971 67.57 75.224 69.916 82.466C72.364 89.606 73.588 94.706 73.588 97.766C73.588 106.232 69.559 113.372 61.501 119.186L63.49 142.136H48.19L49.567 125.612C44.263 127.856 37.276 129.947 28.606 131.885L25.393 121.94C39.571 117.962 46.66 110.873 46.66 100.673C46.66 98.123 45.691 95.012 43.753 91.34C41.815 87.668 39.877 83.69 37.939 79.406C36.001 75.02 35.032 70.634 35.032 66.248ZM115.849 28.61C130.129 24.02 144.562 21.725 159.148 21.725C173.734 21.725 184.954 24.173 192.808 29.069C194.644 34.577 195.562 39.83 195.562 44.828C195.562 56.558 190.717 66.401 181.027 74.357C171.337 82.211 158.842 87.872 143.542 91.34L139.87 125.612L124.57 127.142L115.849 28.61ZM166.033 49.265C166.033 41.411 162.82 35.546 156.394 31.67C154.558 31.67 152.314 32.027 149.662 32.741L144.613 80.936C151.243 77.264 156.445 72.521 160.219 66.707C164.095 60.893 166.033 55.079 166.033 49.265ZM227.96 42.533C252.644 52.427 264.986 64.718 264.986 79.406C264.986 87.056 262.793 92.615 258.407 96.083C254.123 99.449 246.116 101.132 234.386 101.132C226.94 101.132 220.82 100.571 216.026 99.449C214.088 104.243 213.119 109.241 213.119 114.443C217.709 115.055 222.911 115.361 228.725 115.361C239.333 115.361 249.329 113.678 258.713 110.312L263.303 125.153C255.857 127.499 247.493 128.672 238.211 128.672C221.687 128.672 209.549 125.663 201.797 119.645C200.165 112.403 199.349 105.569 199.349 99.143C199.349 86.291 202.154 74.714 207.764 64.412C213.476 54.11 220.208 46.817 227.96 42.533ZM219.086 92.258C220.412 92.36 223.727 92.411 229.031 92.411C234.437 92.411 240.608 91.697 247.544 90.269C247.85 88.331 248.003 86.393 248.003 84.455C248.003 78.335 246.32 72.47 242.954 66.86C232.856 73.592 224.9 82.058 219.086 92.258ZM346.257 44.981C348.195 44.981 350.082 45.287 351.918 45.899C355.59 50.285 358.548 56.915 360.792 65.789C363.138 74.561 364.311 84.404 364.311 95.318C364.311 106.13 361.914 114.392 357.12 120.104C352.428 125.816 344.217 128.672 332.487 128.672C324.123 128.672 316.218 126.938 308.772 123.47L304.641 156.824L290.412 158.201L285.669 51.407L318.411 46.358L315.045 73.286H316.116C320.196 64.514 324.837 57.629 330.039 52.631C335.241 47.531 340.647 44.981 346.257 44.981ZM326.52 119.186C330.294 119.186 333.507 118.472 336.159 117.044C337.689 109.19 338.454 101.795 338.454 94.859C338.454 87.821 338.148 81.344 337.536 75.428C336.924 69.512 336.21 65.432 335.394 63.188C333.15 64.106 331.467 64.871 330.345 65.483C329.223 65.993 327.438 67.421 324.99 69.767C322.542 72.011 320.553 74.714 319.023 77.876C314.943 86.444 311.934 98.378 309.996 113.678C314.586 117.35 320.094 119.186 326.52 119.186ZM413.234 42.533C437.918 52.427 450.26 64.718 450.26 79.406C450.26 87.056 448.067 92.615 443.681 96.083C439.397 99.449 431.39 101.132 419.66 101.132C412.214 101.132 406.094 100.571 401.3 99.449C399.362 104.243 398.393 109.241 398.393 114.443C402.983 115.055 408.185 115.361 413.999 115.361C424.607 115.361 434.603 113.678 443.987 110.312L448.577 125.153C441.131 127.499 432.767 128.672 423.485 128.672C406.961 128.672 394.823 125.663 387.071 119.645C385.439 112.403 384.623 105.569 384.623 99.143C384.623 86.291 387.428 74.714 393.038 64.412C398.75 54.11 405.482 46.817 413.234 42.533ZM404.36 92.258C405.686 92.36 409.001 92.411 414.305 92.411C419.711 92.411 425.882 91.697 432.818 90.269C433.124 88.331 433.277 86.393 433.277 84.455C433.277 78.335 431.594 72.47 428.228 66.86C418.13 73.592 410.174 82.058 404.36 92.258ZM467.882 74.663C467.882 61.607 474.767 49.673 488.537 38.861L513.629 55.691C502.307 62.933 496.646 70.532 496.646 78.488C496.646 82.67 498.941 88.127 503.531 94.859C508.223 101.591 510.569 106.844 510.569 110.618C510.569 123.98 501.389 134.282 483.029 141.524L476.297 132.497C484.355 128.111 488.384 123.266 488.384 117.962C488.384 112.964 484.967 106.64 478.133 98.99C475.583 96.134 473.237 92.513 471.095 88.127C468.953 83.741 467.882 79.253 467.882 74.663ZM545.904 127.295L539.325 65.483L525.249 67.472L524.331 51.713L537.795 51.101L535.5 29.681L573.597 24.632L570.537 49.418L585.684 48.653L585.225 58.904L569.007 61.199L561.051 125.918L545.904 127.295ZM607.205 127.295L599.402 51.56L632.144 46.511L622.352 125.918L607.205 127.295ZM604.145 34.577C601.391 31.721 600.014 28.355 600.014 24.479C600.014 20.603 601.391 17.288 604.145 14.534C607.001 11.678 610.367 10.25 614.243 10.25C618.119 10.25 621.434 11.678 624.188 14.534C627.044 17.288 628.472 20.603 628.472 24.479C628.472 28.355 627.044 31.721 624.188 34.577C621.434 37.331 618.119 38.708 614.243 38.708C610.367 38.708 607.001 37.331 604.145 34.577ZM713.619 44.981C715.557 44.981 717.444 45.287 719.28 45.899C724.482 52.223 728.052 63.188 729.99 78.794C731.928 94.298 732.897 109.7 732.897 125L705.357 127.295C705.357 103.835 704.49 82.466 702.756 63.188C689.19 68.186 680.163 89.096 675.675 125.918L660.528 127.295L652.725 51.407L685.467 46.358L682.101 73.286H683.478C687.558 64.412 692.199 57.476 697.401 52.478C702.603 47.48 708.009 44.981 713.619 44.981ZM762.297 127.295L754.494 51.56L787.236 46.511L777.444 125.918L762.297 127.295ZM759.237 34.577C756.483 31.721 755.106 28.355 755.106 24.479C755.106 20.603 756.483 17.288 759.237 14.534C762.093 11.678 765.459 10.25 769.335 10.25C773.211 10.25 776.526 11.678 779.28 14.534C782.136 17.288 783.564 20.603 783.564 24.479C783.564 28.355 782.136 31.721 779.28 34.577C776.526 37.331 773.211 38.708 769.335 38.708C765.459 38.708 762.093 37.331 759.237 34.577ZM818.527 128.519C816.793 128.519 815.518 128.468 814.702 128.366C811.234 126.02 808.429 122.552 806.287 117.962C804.247 113.27 803.227 108.425 803.227 103.427C803.227 96.899 805.675 92.156 810.571 89.198C815.569 86.24 824.698 84.761 837.958 84.761C842.854 84.761 847.954 85.118 853.258 85.832L852.952 82.466C852.544 78.386 850.606 75.173 847.138 72.827C843.67 70.379 839.233 69.155 833.827 69.155C828.421 69.155 823.015 70.838 817.609 74.204L810.877 52.019C819.649 48.449 829.645 46.664 840.865 46.664C852.085 46.664 860.959 49.214 867.487 54.314C874.015 59.312 877.279 67.166 877.279 77.876C877.279 80.324 877.177 82.262 876.973 83.69L872.689 125.918L857.542 127.295L855.247 105.11H854.023C850.555 112.454 845.761 118.217 839.641 122.399C833.521 126.479 826.483 128.519 818.527 128.519ZM853.87 92.258L845.761 92.105C839.029 92.105 833.521 92.462 829.237 93.176C827.809 96.032 827.095 98.582 827.095 100.826C827.095 103.07 827.401 105.212 828.013 107.252C828.625 109.292 829.288 110.669 830.002 111.383C842.242 109.445 850.198 103.07 853.87 92.258ZM957.463 44.981C959.401 44.981 961.288 45.287 963.124 45.899C968.326 52.223 971.896 63.188 973.834 78.794C975.772 94.298 976.741 109.7 976.741 125L949.201 127.295C949.201 103.835 948.334 82.466 946.6 63.188C933.034 68.186 924.007 89.096 919.519 125.918L904.372 127.295L896.569 51.407L929.311 46.358L925.945 73.286H927.322C931.402 64.412 936.043 57.476 941.245 52.478C946.447 47.48 951.853 44.981 957.463 44.981Z" fill="white"/>
</svg>
