<svg width="750" height="126" viewBox="0 0 750 126" fill="none" xmlns="http://www.w3.org/2000/svg">
<path d="M14.994 11.61C29.988 6.81599 44.166 4.41899 57.528 4.41899C70.992 4.41899 81.957 6.45899 90.423 10.539C93.789 18.801 95.472 27.42 95.472 36.396C95.472 48.534 92.514 60.111 86.598 71.127C80.784 82.143 72.267 91.323 61.047 98.667C49.929 105.909 37.485 109.734 23.715 110.142L14.994 11.61ZM68.238 46.8C68.238 39.354 67.116 32.724 64.872 26.91C62.73 21.096 59.619 17.016 55.539 14.67C53.703 14.67 51.459 15.027 48.807 15.741L40.392 97.29C49.572 93.516 56.508 86.937 61.2 77.553C65.892 68.067 68.238 57.816 68.238 46.8ZM182.574 76.329C182.574 82.551 182.064 87.753 181.044 91.935C180.024 96.015 178.188 99.636 175.536 102.798C170.436 108.714 160.542 111.672 145.854 111.672C131.268 111.672 119.946 108.357 111.888 101.727C110.154 93.159 109.287 84.693 109.287 76.329C109.287 59.397 112.449 44.25 118.773 30.888C125.199 17.526 132.645 8.03999 141.111 2.42999C153.045 7.326 162.939 16.506 170.793 29.97C178.647 43.332 182.574 58.785 182.574 76.329ZM164.061 69.444C164.061 53.736 161.46 40.272 156.258 29.052C146.364 38.13 138.612 48.636 133.002 60.57C127.494 72.504 124.74 84.234 124.74 95.76C128.208 96.474 132.339 96.831 137.133 96.831C146.517 96.831 154.575 95.658 161.307 93.312C163.143 85.356 164.061 77.4 164.061 69.444ZM288.43 7.02L281.851 108L268.081 110.295L218.509 28.287H217.285L217.744 108L202.444 108.765L206.575 8.54999L243.601 6.255L270.376 82.602H271.6L273.13 7.785L288.43 7.02ZM300.729 108L329.34 6.255L366.366 8.54999L386.256 108L372.486 110.295L361.929 84.897L321.231 88.263L316.029 110.295L300.729 108ZM336.072 25.533L323.985 76.482L358.563 76.788L337.296 25.533H336.072ZM396.091 8.397L474.274 6.255L473.815 16.506L452.395 18.648L442.909 108.612L426.079 110.142L418.429 22.014L397.009 24.156L396.091 8.397ZM500.346 110.142L491.625 8.54999L528.039 6.255L517.176 108.612L500.346 110.142ZM640.748 7.02L634.169 108L620.399 110.295L570.827 28.287H569.603L570.062 108L554.762 108.765L558.893 8.54999L595.919 6.255L622.694 82.602H623.918L625.448 7.785L640.748 7.02ZM698.947 110.142C691.093 110.142 683.8 109.224 677.068 107.388C670.438 105.552 665.338 103.155 661.768 100.197C660.034 92.037 659.167 83.571 659.167 74.799C659.167 59.805 661.768 45.729 666.97 32.571C672.172 19.311 680.179 8.75399 690.991 0.899993L720.52 19.566C706.444 28.542 695.275 39.966 687.013 53.838C678.751 67.71 674.62 81.684 674.62 95.76C680.23 96.882 685.738 97.443 691.144 97.443C696.652 97.443 701.599 96.933 705.985 95.913L702.925 62.406L731.995 60.57L722.815 114.426L707.821 115.65L707.209 109.683C704.455 109.989 701.701 110.142 698.947 110.142Z" fill="#411C1C"/>
<path d="M27.994 21.61C42.988 16.816 57.166 14.419 70.528 14.419C83.992 14.419 94.957 16.459 103.423 20.539C106.789 28.801 108.472 37.42 108.472 46.396C108.472 58.534 105.514 70.111 99.598 81.127C93.784 92.143 85.267 101.323 74.047 108.667C62.929 115.909 50.485 119.734 36.715 120.142L27.994 21.61ZM81.238 56.8C81.238 49.354 80.116 42.724 77.872 36.91C75.73 31.096 72.619 27.016 68.539 24.67C66.703 24.67 64.459 25.027 61.807 25.741L53.392 107.29C62.572 103.516 69.508 96.937 74.2 87.553C78.892 78.067 81.238 67.816 81.238 56.8ZM195.574 86.329C195.574 92.551 195.064 97.753 194.044 101.935C193.024 106.015 191.188 109.636 188.536 112.798C183.436 118.714 173.542 121.672 158.854 121.672C144.268 121.672 132.946 118.357 124.888 111.727C123.154 103.159 122.287 94.693 122.287 86.329C122.287 69.397 125.449 54.25 131.773 40.888C138.199 27.526 145.645 18.04 154.111 12.43C166.045 17.326 175.939 26.506 183.793 39.97C191.647 53.332 195.574 68.785 195.574 86.329ZM177.061 79.444C177.061 63.736 174.46 50.272 169.258 39.052C159.364 48.13 151.612 58.636 146.002 70.57C140.494 82.504 137.74 94.234 137.74 105.76C141.208 106.474 145.339 106.831 150.133 106.831C159.517 106.831 167.575 105.658 174.307 103.312C176.143 95.356 177.061 87.4 177.061 79.444ZM301.43 17.02L294.851 118L281.081 120.295L231.509 38.287H230.285L230.744 118L215.444 118.765L219.575 18.55L256.601 16.255L283.376 92.602H284.6L286.13 17.785L301.43 17.02ZM313.729 118L342.34 16.255L379.366 18.55L399.256 118L385.486 120.295L374.929 94.897L334.231 98.263L329.029 120.295L313.729 118ZM349.072 35.533L336.985 86.482L371.563 86.788L350.296 35.533H349.072ZM409.091 18.397L487.274 16.255L486.815 26.506L465.395 28.648L455.909 118.612L439.079 120.142L431.429 32.014L410.009 34.156L409.091 18.397ZM513.346 120.142L504.625 18.55L541.039 16.255L530.176 118.612L513.346 120.142ZM653.748 17.02L647.169 118L633.399 120.295L583.827 38.287H582.603L583.062 118L567.762 118.765L571.893 18.55L608.919 16.255L635.694 92.602H636.918L638.448 17.785L653.748 17.02ZM711.947 120.142C704.093 120.142 696.8 119.224 690.068 117.388C683.438 115.552 678.338 113.155 674.768 110.197C673.034 102.037 672.167 93.571 672.167 84.799C672.167 69.805 674.768 55.729 679.97 42.571C685.172 29.311 693.179 18.754 703.991 10.9L733.52 29.566C719.444 38.542 708.275 49.966 700.013 63.838C691.751 77.71 687.62 91.684 687.62 105.76C693.23 106.882 698.738 107.443 704.144 107.443C709.652 107.443 714.599 106.933 718.985 105.913L715.925 72.406L744.995 70.57L735.815 124.426L720.821 125.65L720.209 119.683C717.455 119.989 714.701 120.142 711.947 120.142Z" fill="white"/>
</svg>
