<svg width="785" height="307" viewBox="0 0 785 307" fill="none" xmlns="http://www.w3.org/2000/svg">
<path d="M10.3359 54.7871H96.7148V94.6543H62.1387V132.43H94.5V170.328H62.1387V214.133H100.16V254H10.3359V54.7871ZM230.836 54.7871V254H185.432L158.484 163.438V254H115.172V54.7871H158.484L187.523 144.488V54.7871H230.836ZM356.098 54.7871V94.6543H325.336V254H273.533V94.6543H242.895V54.7871H356.098ZM367.91 54.7871H454.289V94.6543H419.713V132.43H452.074V170.328H419.713V214.133H457.734V254H367.91V54.7871ZM472.746 54.7871H509.414C533.859 54.7871 550.389 55.7305 559.002 57.6172C567.697 59.5039 574.752 64.3438 580.166 72.1367C585.662 79.8477 588.41 92.1934 588.41 109.174C588.41 124.678 586.482 135.096 582.627 140.428C578.771 145.76 571.184 148.959 559.863 150.025C570.117 152.568 577.008 155.973 580.535 160.238C584.062 164.504 586.236 168.441 587.057 172.051C587.959 175.578 588.41 185.381 588.41 201.459V254H540.299V187.801C540.299 177.137 539.438 170.533 537.715 167.99C536.074 165.447 531.686 164.176 524.549 164.176V254H472.746V54.7871ZM524.549 88.8711V133.168C530.373 133.168 534.434 132.389 536.73 130.83C539.109 129.189 540.299 123.98 540.299 115.203V104.252C540.299 97.9355 539.15 93.793 536.854 91.8242C534.639 89.8555 530.537 88.8711 524.549 88.8711ZM640.213 213.395V254H602.684V213.395H640.213ZM686.725 213.395V254H649.195V213.395H686.725ZM733.236 213.395V254H695.707V213.395H733.236ZM779.748 213.395V254H742.219V213.395H779.748Z" fill="white"/>
<path d="M10.3359 54.7871V47.7871H3.33594V54.7871H10.3359ZM96.7148 54.7871H103.715V47.7871H96.7148V54.7871ZM96.7148 94.6543V101.654H103.715V94.6543H96.7148ZM62.1387 94.6543V87.6543H55.1387V94.6543H62.1387ZM62.1387 132.43H55.1387V139.43H62.1387V132.43ZM94.5 132.43H101.5V125.43H94.5V132.43ZM94.5 170.328V177.328H101.5V170.328H94.5ZM62.1387 170.328V163.328H55.1387V170.328H62.1387ZM62.1387 214.133H55.1387V221.133H62.1387V214.133ZM100.16 214.133H107.16V207.133H100.16V214.133ZM100.16 254V261H107.16V254H100.16ZM10.3359 254H3.33594V261H10.3359V254ZM10.3359 61.7871H96.7148V47.7871H10.3359V61.7871ZM89.7148 54.7871V94.6543H103.715V54.7871H89.7148ZM96.7148 87.6543H62.1387V101.654H96.7148V87.6543ZM55.1387 94.6543V132.43H69.1387V94.6543H55.1387ZM62.1387 139.43H94.5V125.43H62.1387V139.43ZM87.5 132.43V170.328H101.5V132.43H87.5ZM94.5 163.328H62.1387V177.328H94.5V163.328ZM55.1387 170.328V214.133H69.1387V170.328H55.1387ZM62.1387 221.133H100.16V207.133H62.1387V221.133ZM93.1602 214.133V254H107.16V214.133H93.1602ZM100.16 247H10.3359V261H100.16V247ZM17.3359 254V54.7871H3.33594V254H17.3359ZM230.836 54.7871H237.836V47.7871H230.836V54.7871ZM230.836 254V261H237.836V254H230.836ZM185.432 254L178.722 255.996L180.211 261H185.432V254ZM158.484 163.438L165.194 161.441L151.484 163.438H158.484ZM158.484 254V261H165.484V254H158.484ZM115.172 254H108.172V261H115.172V254ZM115.172 54.7871V47.7871H108.172V54.7871H115.172ZM158.484 54.7871L165.144 52.6312L163.576 47.7871H158.484V54.7871ZM187.523 144.488L180.864 146.644L194.523 144.488H187.523ZM187.523 54.7871V47.7871H180.523V54.7871H187.523ZM223.836 54.7871V254H237.836V54.7871H223.836ZM230.836 247H185.432V261H230.836V247ZM192.141 252.004L165.194 161.441L151.775 165.434L178.722 255.996L192.141 252.004ZM151.484 163.438V254H165.484V163.438H151.484ZM158.484 247H115.172V261H158.484V247ZM122.172 254V54.7871H108.172V254H122.172ZM115.172 61.7871H158.484V47.7871H115.172V61.7871ZM151.825 56.9431L180.864 146.644L194.183 142.332L165.144 52.6312L151.825 56.9431ZM194.523 144.488V54.7871H180.523V144.488H194.523ZM187.523 61.7871H230.836V47.7871H187.523V61.7871ZM356.098 54.7871H363.098V47.7871H356.098V54.7871ZM356.098 94.6543V101.654H363.098V94.6543H356.098ZM325.336 94.6543V87.6543H318.336V94.6543H325.336ZM325.336 254V261H332.336V254H325.336ZM273.533 254H266.533V261H273.533V254ZM273.533 94.6543H280.533V87.6543H273.533V94.6543ZM242.895 94.6543H235.895V101.654H242.895V94.6543ZM242.895 54.7871V47.7871H235.895V54.7871H242.895ZM349.098 54.7871V94.6543H363.098V54.7871H349.098ZM356.098 87.6543H325.336V101.654H356.098V87.6543ZM318.336 94.6543V254H332.336V94.6543H318.336ZM325.336 247H273.533V261H325.336V247ZM280.533 254V94.6543H266.533V254H280.533ZM273.533 87.6543H242.895V101.654H273.533V87.6543ZM249.895 94.6543V54.7871H235.895V94.6543H249.895ZM242.895 61.7871H356.098V47.7871H242.895V61.7871ZM367.91 54.7871V47.7871H360.91V54.7871H367.91ZM454.289 54.7871H461.289V47.7871H454.289V54.7871ZM454.289 94.6543V101.654H461.289V94.6543H454.289ZM419.713 94.6543V87.6543H412.713V94.6543H419.713ZM419.713 132.43H412.713V139.43H419.713V132.43ZM452.074 132.43H459.074V125.43H452.074V132.43ZM452.074 170.328V177.328H459.074V170.328H452.074ZM419.713 170.328V163.328H412.713V170.328H419.713ZM419.713 214.133H412.713V221.133H419.713V214.133ZM457.734 214.133H464.734V207.133H457.734V214.133ZM457.734 254V261H464.734V254H457.734ZM367.91 254H360.91V261H367.91V254ZM367.91 61.7871H454.289V47.7871H367.91V61.7871ZM447.289 54.7871V94.6543H461.289V54.7871H447.289ZM454.289 87.6543H419.713V101.654H454.289V87.6543ZM412.713 94.6543V132.43H426.713V94.6543H412.713ZM419.713 139.43H452.074V125.43H419.713V139.43ZM445.074 132.43V170.328H459.074V132.43H445.074ZM452.074 163.328H419.713V177.328H452.074V163.328ZM412.713 170.328V214.133H426.713V170.328H412.713ZM419.713 221.133H457.734V207.133H419.713V221.133ZM450.734 214.133V254H464.734V214.133H450.734ZM457.734 247H367.91V261H457.734V247ZM374.91 254V54.7871H360.91V254H374.91ZM472.746 54.7871V47.7871H465.746V54.7871H472.746ZM559.002 57.6172L557.504 64.4551L557.518 64.458L559.002 57.6172ZM580.166 72.1367L574.417 76.1306L574.441 76.1653L574.466 76.1996L580.166 72.1367ZM559.863 150.025L559.207 143.056L558.178 156.82L559.863 150.025ZM587.057 172.051L580.231 173.602L580.252 173.694L580.275 173.786L587.057 172.051ZM588.41 254V261H595.41V254H588.41ZM540.299 254H533.299V261H540.299V254ZM537.715 167.99L531.833 171.785L531.875 171.851L531.919 171.916L537.715 167.99ZM524.549 164.176V157.176H517.549V164.176H524.549ZM524.549 254V261H531.549V254H524.549ZM472.746 254H465.746V261H472.746V254ZM524.549 88.8711V81.8711H517.549V88.8711H524.549ZM524.549 133.168H517.549V140.168H524.549V133.168ZM536.73 130.83L540.661 136.622L540.683 136.608L540.705 136.593L536.73 130.83ZM536.854 91.8242L532.203 97.0561L532.25 97.098L532.298 97.139L536.854 91.8242ZM472.746 61.7871H509.414V47.7871H472.746V61.7871ZM509.414 61.7871C533.944 61.7871 549.739 62.7542 557.504 64.4551L560.5 50.7793C551.038 48.7068 533.774 47.7871 509.414 47.7871V61.7871ZM557.518 64.458C564.36 65.9428 569.94 69.6859 574.417 76.1306L585.915 68.1428C579.564 59.0016 571.034 53.065 560.486 50.7764L557.518 64.458ZM574.466 76.1996C578.675 82.1048 581.41 92.6377 581.41 109.174H595.41C595.41 91.749 592.649 77.5905 585.866 68.0738L574.466 76.1996ZM581.41 109.174C581.41 116.675 580.941 122.697 580.081 127.342C579.204 132.082 578.014 134.861 576.955 136.326L588.299 144.529C591.096 140.662 592.797 135.566 593.848 129.889C594.916 124.116 595.41 117.176 595.41 109.174H581.41ZM576.955 136.326C574.905 139.16 569.908 142.048 559.207 143.056L560.52 156.995C572.46 155.87 582.638 152.359 588.299 144.529L576.955 136.326ZM558.178 156.82C568.107 159.282 573.11 162.243 575.141 164.699L585.93 155.777C580.906 149.702 572.127 145.855 561.548 143.231L558.178 156.82ZM575.141 164.699C578.287 168.504 579.744 171.459 580.231 173.602L593.883 170.499C592.729 165.424 589.838 160.504 585.93 155.777L575.141 164.699ZM580.275 173.786C580.524 174.757 580.851 177.404 581.079 182.37C581.298 187.119 581.41 193.469 581.41 201.459H595.41C595.41 193.371 595.297 186.781 595.064 181.727C594.842 176.89 594.492 172.872 593.838 170.316L580.275 173.786ZM581.41 201.459V254H595.41V201.459H581.41ZM588.41 247H540.299V261H588.41V247ZM547.299 254V187.801H533.299V254H547.299ZM547.299 187.801C547.299 182.323 547.08 177.67 546.594 173.945C546.15 170.542 545.366 166.804 543.51 164.064L531.919 171.916C531.786 171.719 532.294 172.555 532.712 175.755C533.087 178.634 533.299 182.615 533.299 187.801H547.299ZM543.597 164.195C541.494 160.935 538.158 159.28 535.141 158.406C532.063 157.514 528.451 157.176 524.549 157.176V171.176C527.784 171.176 529.935 171.473 531.245 171.853C532.616 172.25 532.295 172.502 531.833 171.785L543.597 164.195ZM517.549 164.176V254H531.549V164.176H517.549ZM524.549 247H472.746V261H524.549V247ZM479.746 254V54.7871H465.746V254H479.746ZM517.549 88.8711V133.168H531.549V88.8711H517.549ZM524.549 140.168C530.531 140.168 536.484 139.457 540.661 136.622L532.8 125.038C532.383 125.321 530.216 126.168 524.549 126.168V140.168ZM540.705 136.593C544.146 134.219 545.541 130.272 546.231 127.251C546.993 123.915 547.299 119.827 547.299 115.203H533.299C533.299 119.356 533.01 122.262 532.582 124.135C532.083 126.323 531.694 125.8 532.756 125.068L540.705 136.593ZM547.299 115.203V104.252H533.299V115.203H547.299ZM547.299 104.252C547.299 100.728 546.985 97.4303 546.183 94.5377C545.387 91.667 543.972 88.7059 541.409 86.5094L532.298 97.139C532.032 96.9113 532.339 97.0058 532.692 98.2778C533.038 99.5277 533.299 101.459 533.299 104.252H547.299ZM541.504 86.5924C537.217 82.7815 530.765 81.8711 524.549 81.8711V95.8711C527.202 95.8711 529.138 96.0934 530.483 96.4161C531.858 96.7463 532.243 97.0921 532.203 97.0561L541.504 86.5924ZM640.213 213.395H647.213V206.395H640.213V213.395ZM640.213 254V261H647.213V254H640.213ZM602.684 254H595.684V261H602.684V254ZM602.684 213.395V206.395H595.684V213.395H602.684ZM633.213 213.395V254H647.213V213.395H633.213ZM640.213 247H602.684V261H640.213V247ZM609.684 254V213.395H595.684V254H609.684ZM602.684 220.395H640.213V206.395H602.684V220.395ZM686.725 213.395H693.725V206.395H686.725V213.395ZM686.725 254V261H693.725V254H686.725ZM649.195 254H642.195V261H649.195V254ZM649.195 213.395V206.395H642.195V213.395H649.195ZM679.725 213.395V254H693.725V213.395H679.725ZM686.725 247H649.195V261H686.725V247ZM656.195 254V213.395H642.195V254H656.195ZM649.195 220.395H686.725V206.395H649.195V220.395ZM733.236 213.395H740.236V206.395H733.236V213.395ZM733.236 254V261H740.236V254H733.236ZM695.707 254H688.707V261H695.707V254ZM695.707 213.395V206.395H688.707V213.395H695.707ZM726.236 213.395V254H740.236V213.395H726.236ZM733.236 247H695.707V261H733.236V247ZM702.707 254V213.395H688.707V254H702.707ZM695.707 220.395H733.236V206.395H695.707V220.395ZM779.748 213.395H786.748V206.395H779.748V213.395ZM779.748 254V261H786.748V254H779.748ZM742.219 254H735.219V261H742.219V254ZM742.219 213.395V206.395H735.219V213.395H742.219ZM772.748 213.395V254H786.748V213.395H772.748ZM779.748 247H742.219V261H779.748V247ZM749.219 254V213.395H735.219V254H749.219ZM742.219 220.395H779.748V206.395H742.219V220.395Z" fill="black"/>
</svg>
