<svg width="220" height="144" viewBox="0 0 220 144" fill="none" xmlns="http://www.w3.org/2000/svg">
<rect x="4" y="4" width="212" height="136" rx="46" stroke="#FFF066" stroke-width="8"/>
<path d="M134 55.1765C132.16 56.0824 130.176 56.6776 128.12 56.9624C130.224 55.5906 131.849 53.4165 132.614 50.8024C130.63 52.0965 128.431 53.0024 126.113 53.52C124.225 51.2941 121.572 50 118.56 50C112.944 50 108.355 54.9694 108.355 61.1035C108.355 61.9835 108.45 62.8376 108.618 63.64C100.109 63.1741 92.5325 58.7482 87.4895 52.0447C86.6052 53.6753 86.1033 55.5906 86.1033 57.6094C86.1033 61.4659 87.8958 64.8824 90.6683 66.8235C88.9713 66.8235 87.3939 66.3059 86.0076 65.5294V65.6071C86.0076 70.9906 89.5449 75.4941 94.2294 76.5035C92.7254 76.9492 91.1465 77.0113 89.6166 76.6847C90.2658 78.8911 91.5371 80.8218 93.252 82.2052C94.9668 83.5887 97.0388 84.3554 99.1769 84.3977C95.5527 87.5047 91.0602 89.1841 86.4379 89.16C85.6252 89.16 84.8126 89.1082 84 89.0047C88.5411 92.1624 93.9426 94 99.7266 94C118.56 94 128.909 77.0729 128.909 62.3976C128.909 61.9059 128.909 61.44 128.885 60.9482C130.893 59.3953 132.614 57.4282 134 55.1765Z" fill="#FFF066"/>
</svg>
