<svg width="838" height="627" viewBox="0 0 838 627" fill="none" xmlns="http://www.w3.org/2000/svg">
<path d="M190.715 61.8745C229.422 65.3062 267.335 71.0045 305.433 76.8053C324.636 76.8053 331.633 76.9347 350.352 73.7923C363.388 71.6042 376.277 71.9846 389.763 71.9846H482.545C501.831 71.9846 518.689 70.8329 537.15 66.4943C556.671 61.9067 575.703 57.9757 596.219 56.3173C621.28 54.2916 651.022 52.9792 671.432 65.1553C698.47 81.2851 704.433 106.202 714.357 128.494C717.654 135.901 718.999 145.421 724.993 152.062C729.931 157.533 734.484 163.032 737.908 169.068C741.848 176.012 744.279 182.927 747.215 190.024C754.55 207.754 758.639 226.295 760.89 244.659C762.943 261.404 759.323 278.133 760.985 295.008C763.444 319.974 770.529 344.51 773.806 369.461C776.713 391.6 777.224 413.382 777.224 435.612C777.224 469.414 783.533 505.038 777.129 538.52C773.54 557.286 772.822 581.772 755.857 597.373C750.331 602.454 743.627 605.679 735.439 608.286C732.14 609.337 729.506 611.843 725.943 611.902C705.413 612.238 684.742 612.121 664.215 611.835C640.705 611.507 617.3 608.949 593.75 609.759C577.319 610.324 561.196 612.769 544.653 613.04C518.293 613.472 492.071 614.396 465.736 615.249C447.437 615.843 429.305 613.554 411.225 611.902C384.596 609.468 358.127 608.286 331.264 608.286C295.4 608.286 259.437 609.09 223.573 609.491C177.966 610.002 132.546 613.042 87.2016 616.321C77.3259 617.035 61.4591 619.433 50.4498 618.932C37.4508 618.341 35.9687 587.635 34.3056 581.772C27.9562 559.39 23.3845 537.831 23.3845 515.019C23.3845 505.493 28.5127 496.622 28.5127 487.166C28.5127 476.036 24.7751 466.827 21.6751 455.899C19.5509 448.41 17.4853 441.442 14.7426 434.005C7.99889 415.718 7.99944 397.901 8.00001 379.154L8.00002 378.634C8.00002 345.763 8.52431 313.22 16.9268 280.747C21.1271 264.515 33.4884 249.578 39.1489 233.478C43.5945 220.832 48.5399 209.799 48.9304 196.586C49.4568 178.77 53.7684 161.372 57.7622 143.759C61.4049 127.695 69.3061 113.815 75.4258 98.4984C78.5661 90.6386 86.373 83.6172 91.5701 76.4035C94.1347 72.8437 96.421 67.3819 100.687 64.4857C105.95 60.9124 113.43 60.5423 120.345 59.9329C143.612 57.8823 167.617 59.8268 190.715 61.8745Z" fill="white" stroke="black" stroke-width="16" stroke-linecap="round"/>
<path d="M233.845 14.8745C273.003 18.3062 311.359 24.0045 349.901 29.8053C369.327 29.8053 376.406 29.9347 395.343 26.7923C408.531 24.6042 421.571 24.9846 435.214 24.9846H529.077C548.589 24.9846 565.643 23.8329 584.319 19.4943C604.068 14.9067 623.321 10.9757 644.077 9.31734C669.43 7.29162 699.518 5.97923 720.167 18.1553C747.519 34.2851 753.552 59.2019 763.591 81.4938C766.927 88.9008 768.288 98.4209 774.352 105.062C779.348 110.533 783.953 116.032 787.418 122.068C791.403 129.012 793.862 135.927 796.833 143.024C804.253 160.754 808.39 179.295 810.667 197.659C812.744 214.404 809.082 231.133 810.763 248.008C813.251 272.974 820.418 297.51 823.733 322.461C826.675 344.6 827.192 366.382 827.192 388.612C827.192 422.414 833.574 458.038 827.096 491.52C823.465 510.286 822.738 534.772 805.575 550.373C799.985 555.454 793.203 558.679 784.92 561.286C781.582 562.337 778.917 564.843 775.312 564.902C754.544 565.238 733.631 565.121 712.865 564.835C689.081 564.507 665.404 561.949 641.579 562.759C624.956 563.324 608.645 565.769 591.909 566.04C565.242 566.472 538.714 567.396 512.072 568.249C493.56 568.843 475.217 566.554 456.926 564.902C429.986 562.468 403.209 561.286 376.033 561.286C339.751 561.286 303.368 562.09 267.086 562.491C220.948 563.002 174.998 566.042 129.125 569.321C119.134 570.035 103.082 572.433 91.9447 571.932C78.7942 571.341 77.2948 540.635 75.6123 534.772C69.1888 512.39 64.5639 490.831 64.5639 468.019C64.5639 458.493 69.7518 449.622 69.7518 440.166C69.7518 429.036 65.9707 419.827 62.8345 408.899C60.6855 401.41 58.5958 394.442 55.8212 387.005C48.9989 368.718 48.9994 350.901 49 332.154L49 331.634C49 298.763 49.5304 266.22 58.0309 233.747C62.2801 217.515 74.7856 202.578 80.512 186.478C85.0094 173.832 90.0125 162.799 90.4075 149.586C90.9401 131.77 95.302 114.372 99.3423 96.7593C103.027 80.6953 111.021 66.8153 117.212 51.4984C120.389 43.6386 128.287 36.6172 133.544 29.4035C136.139 25.8437 138.452 20.3819 142.767 17.4857C148.092 13.9124 155.659 13.5423 162.654 12.9329C186.193 10.8823 210.478 12.8268 233.845 14.8745Z" fill="#745A32" stroke="black" stroke-width="16" stroke-linecap="round"/>
<path d="M166.113 133.375C166.816 129.938 168.535 126.109 171.27 121.891C174.668 122.945 178.496 124.645 182.754 126.988C183.184 130.582 182.754 134.84 181.465 139.762C202.676 157.066 201.406 163.453 177.656 158.922L176.367 166.598C199.023 185.66 197.734 201.402 172.5 213.824H166.113C165.84 220.27 162.871 225.387 157.207 229.176C149.434 226.793 146.445 220.836 148.242 211.305C141.172 210.484 136.914 206.227 135.469 198.531L140.566 192.145C152.129 195.113 157.246 188.727 155.918 172.984C146.738 167.008 141.621 158.062 140.566 146.148L149.531 134.664C154.297 133.453 159.824 133.023 166.113 133.375ZM165 147.32H155.859C158.047 161.891 161.094 161.891 165 147.32ZM171.27 198.531C176.035 194.039 176.035 188.922 171.27 183.18C163.691 192.672 163.691 197.789 171.27 198.531ZM264.668 117.496L265.371 120.719H264.668H265.371C269.707 130.914 270.879 143.102 268.887 157.281C272.48 179.469 266.621 200.094 251.309 219.156C248.105 219.898 244.59 219.898 240.762 219.156C236.348 214.078 233.066 207.75 230.918 200.172L228.105 195.25L227.402 193.844L225.996 191.734L224.59 189.625C219.395 198.297 216.348 208.609 215.449 220.562C211.582 222.281 208.066 225.094 204.902 229C204.16 224.898 202.051 221.148 198.574 217.75C198.809 214.43 199.512 210.445 200.684 205.797V203.688C201.074 201.695 201.309 199.352 201.387 196.656L202.09 194.547V189.625L202.793 184.703L203.496 182.594L204.199 178.375L204.902 173.453L205.605 168.531V165.719C206.777 164.078 207.949 161.969 209.121 159.391C209.004 154.352 209.473 149.898 210.527 146.031L211.934 142.516C213.848 139.938 216.66 137.359 220.371 134.781C225.723 132.984 231.113 133.922 236.543 137.594C237.285 142.281 236.582 147.203 234.434 152.359L240.762 169.938C241.504 171.344 242.207 173.219 242.871 175.562L244.277 177.672C244.629 174.547 245.566 170.797 247.09 166.422L248.496 160.797V158.688L249.199 156.578L249.902 153.062L250.605 150.953L252.012 143.219C252.52 140.25 252.285 137.906 251.309 136.188L252.012 134.078L254.121 130.562C256.777 129.156 258.887 126.812 260.449 123.531L262.559 121.422C263.262 121.5 263.965 120.191 264.668 117.496ZM283.301 137.008C283.105 130.68 285.469 125.211 290.391 120.602C295.469 122.008 301.445 122.535 308.32 122.184L311.484 122.945H313.828H316.172H318.516L320.039 123.707C322.383 124.098 325 124.098 327.891 123.707L336.504 125.289L338.848 126.051C340.566 128.16 342.383 131.031 344.297 134.664C344.961 143.922 337.93 148.355 323.203 147.965L320.859 163.609L320.039 165.133V167.477L319.277 170.641L318.516 179.195L317.695 182.359V185.465L316.934 187.809L316.172 190.914V193.258L315.352 197.184V200.289L314.59 203.453C317.949 209.469 323.418 214.684 330.996 219.098C330.527 221.285 329.746 223.629 328.652 226.129C324.824 227.574 320.137 228.082 314.59 227.652L309.141 228.473L302.871 229.234C302.988 228.062 302.734 227.027 302.109 226.129L284.121 221.441L281.777 220.621L280.195 219.859L277.852 219.098L269.238 215.934L266.133 213.59C266.406 205.699 270.312 199.703 277.852 195.602C278.32 201.734 284.316 203.57 295.84 201.109C296.621 197.359 297.148 192.672 297.422 187.047L298.184 185.465L298.945 177.672L299.766 175.328L301.289 162.027L302.871 157.34C302.988 153.59 303.77 149.156 305.215 144.039V141.695C300.215 141.695 294.746 143.004 288.809 145.621H286.465C285.918 142.809 284.863 139.938 283.301 137.008ZM352.969 214.469C331.016 174.078 340.996 142.789 382.91 120.602C398.223 119.898 407.129 125.836 409.629 138.414C407.129 141.656 403.633 144.625 399.141 147.32C393.789 147.359 387.852 146.012 381.328 143.277C362.969 157.027 357.832 174.82 365.918 196.656L369.199 202.34C376.309 204.176 383.047 202.555 389.414 197.477C387.734 196.695 385.84 195.348 383.73 193.434L377.285 189.391L374.824 188.57C374.707 188.023 374.18 187.496 373.242 186.988C372.109 185.27 370.488 183.922 368.379 182.945C367.559 183.531 366.738 183.785 365.918 183.707C365.527 181.363 365.801 178.668 366.738 175.621L368.379 172.398C395.918 167.867 411.289 175.953 414.492 196.656C413.203 209.195 406.738 217.828 395.098 222.555C385.371 230.445 374.844 230.719 363.516 223.375L352.969 214.469ZM428.555 214.469C406.602 174.078 416.582 142.789 458.496 120.602C473.809 119.898 482.715 125.836 485.215 138.414C482.715 141.656 479.219 144.625 474.727 147.32C469.375 147.359 463.438 146.012 456.914 143.277C438.555 157.027 433.418 174.82 441.504 196.656L444.785 202.34C451.895 204.176 458.633 202.555 465 197.477C463.32 196.695 461.426 195.348 459.316 193.434L452.871 189.391L450.41 188.57C450.293 188.023 449.766 187.496 448.828 186.988C447.695 185.27 446.074 183.922 443.965 182.945C443.145 183.531 442.324 183.785 441.504 183.707C441.113 181.363 441.387 178.668 442.324 175.621L443.965 172.398C471.504 167.867 486.875 175.953 490.078 196.656C488.789 209.195 482.324 217.828 470.684 222.555C460.957 230.445 450.43 230.719 439.102 223.375L428.555 214.469ZM522.832 129.801L536.426 120.719C538.926 123.336 542.461 125.855 547.031 128.277L545.508 134.312C560.859 166.617 558.34 198.414 537.949 229.703L532.441 216.227C530.449 217.164 530.781 209.547 533.438 193.375L515.918 196.891L509.18 220.621L501.621 228.18C497.832 227.203 494.297 224.684 491.016 220.621L492.539 199.41C494.844 193.16 497.578 186.852 500.742 180.484L499.98 173.043L502.852 165.836L509.59 161.734L516.738 140.406L522.832 129.801ZM523.418 175.797L533.496 174.977L529.805 160.562L523.418 175.797ZM558.281 142.223C562.422 131.09 570.938 123.902 583.828 120.66C595.469 119.332 606.367 122.789 616.523 131.031C616.602 140.992 611.816 147.125 602.168 149.43C602.52 155.836 601.445 162.75 598.945 170.172V172.574C599.414 177.535 598.887 183.648 597.363 190.914L596.602 195.719V201.285L595.781 203.688L596.602 209.254V215.641C591.055 230.172 584.668 232.574 577.441 222.848L575.859 223.609C575.977 220.758 575.703 217.848 575.039 214.879C575.82 211.832 575.82 208.375 575.039 204.508C575.742 200.055 576.016 194.723 575.859 188.512V164.605C575.664 161.676 575.918 158.199 576.621 154.176C567.207 155.035 561.094 151.051 558.281 142.223ZM651.68 122.418C652.266 122.262 652.832 121.695 653.379 120.719C674.473 127.867 685.801 143.727 687.363 168.297C681.191 196.422 664.199 216.52 636.387 228.59C633.496 228.902 630.391 228.629 627.07 227.77C610.469 219.488 604.238 205.602 608.379 186.109L604.98 175.914L610.898 160.621L611.777 158.102L614.297 151.305L615.176 148.727L623.672 137.711L625.371 136.012L629.824 124.82L633.047 123.648C635.43 126.734 639.941 126.324 646.582 122.418H649.16H651.68ZM662.754 169.996C660.957 158.551 656.133 152.027 648.281 150.426C646.914 153.512 644.648 156.637 641.484 159.801L637.266 166.598L634.688 169.996C634.18 173.746 634.473 178.277 635.566 183.59C634.434 190.621 635.566 197.691 638.965 204.801C650.02 196.676 657.949 185.074 662.754 169.996Z" fill="#1D0606"/>
<mask id="path-4-outside-1_471_34" maskUnits="userSpaceOnUse" x="145" y="97" width="565" height="131" fill="black">
<rect fill="white" x="145" y="97" width="565" height="131"/>
<path d="M182.113 118.375C182.816 114.938 184.535 111.109 187.27 106.891C190.668 107.945 194.496 109.645 198.754 111.988C199.184 115.582 198.754 119.84 197.465 124.762C218.676 142.066 217.406 148.453 193.656 143.922L192.367 151.598C215.023 170.66 213.734 186.402 188.5 198.824H182.113C181.84 205.27 178.871 210.387 173.207 214.176C165.434 211.793 162.445 205.836 164.242 196.305C157.172 195.484 152.914 191.227 151.469 183.531L156.566 177.145C168.129 180.113 173.246 173.727 171.918 157.984C162.738 152.008 157.621 143.062 156.566 131.148L165.531 119.664C170.297 118.453 175.824 118.023 182.113 118.375ZM181 132.32H171.859C174.047 146.891 177.094 146.891 181 132.32ZM187.27 183.531C192.035 179.039 192.035 173.922 187.27 168.18C179.691 177.672 179.691 182.789 187.27 183.531ZM280.668 102.496L281.371 105.719H280.668H281.371C285.707 115.914 286.879 128.102 284.887 142.281C288.48 164.469 282.621 185.094 267.309 204.156C264.105 204.898 260.59 204.898 256.762 204.156C252.348 199.078 249.066 192.75 246.918 185.172L244.105 180.25L243.402 178.844L241.996 176.734L240.59 174.625C235.395 183.297 232.348 193.609 231.449 205.562C227.582 207.281 224.066 210.094 220.902 214C220.16 209.898 218.051 206.148 214.574 202.75C214.809 199.43 215.512 195.445 216.684 190.797V188.688C217.074 186.695 217.309 184.352 217.387 181.656L218.09 179.547V174.625L218.793 169.703L219.496 167.594L220.199 163.375L220.902 158.453L221.605 153.531V150.719C222.777 149.078 223.949 146.969 225.121 144.391C225.004 139.352 225.473 134.898 226.527 131.031L227.934 127.516C229.848 124.938 232.66 122.359 236.371 119.781C241.723 117.984 247.113 118.922 252.543 122.594C253.285 127.281 252.582 132.203 250.434 137.359L256.762 154.938C257.504 156.344 258.207 158.219 258.871 160.562L260.277 162.672C260.629 159.547 261.566 155.797 263.09 151.422L264.496 145.797V143.688L265.199 141.578L265.902 138.062L266.605 135.953L268.012 128.219C268.52 125.25 268.285 122.906 267.309 121.188L268.012 119.078L270.121 115.562C272.777 114.156 274.887 111.812 276.449 108.531L278.559 106.422C279.262 106.5 279.965 105.191 280.668 102.496ZM299.301 122.008C299.105 115.68 301.469 110.211 306.391 105.602C311.469 107.008 317.445 107.535 324.32 107.184L327.484 107.945H329.828H332.172H334.516L336.039 108.707C338.383 109.098 341 109.098 343.891 108.707L352.504 110.289L354.848 111.051C356.566 113.16 358.383 116.031 360.297 119.664C360.961 128.922 353.93 133.355 339.203 132.965L336.859 148.609L336.039 150.133V152.477L335.277 155.641L334.516 164.195L333.695 167.359V170.465L332.934 172.809L332.172 175.914V178.258L331.352 182.184V185.289L330.59 188.453C333.949 194.469 339.418 199.684 346.996 204.098C346.527 206.285 345.746 208.629 344.652 211.129C340.824 212.574 336.137 213.082 330.59 212.652L325.141 213.473L318.871 214.234C318.988 213.062 318.734 212.027 318.109 211.129L300.121 206.441L297.777 205.621L296.195 204.859L293.852 204.098L285.238 200.934L282.133 198.59C282.406 190.699 286.312 184.703 293.852 180.602C294.32 186.734 300.316 188.57 311.84 186.109C312.621 182.359 313.148 177.672 313.422 172.047L314.184 170.465L314.945 162.672L315.766 160.328L317.289 147.027L318.871 142.34C318.988 138.59 319.77 134.156 321.215 129.039V126.695C316.215 126.695 310.746 128.004 304.809 130.621H302.465C301.918 127.809 300.863 124.938 299.301 122.008ZM368.969 199.469C347.016 159.078 356.996 127.789 398.91 105.602C414.223 104.898 423.129 110.836 425.629 123.414C423.129 126.656 419.633 129.625 415.141 132.32C409.789 132.359 403.852 131.012 397.328 128.277C378.969 142.027 373.832 159.82 381.918 181.656L385.199 187.34C392.309 189.176 399.047 187.555 405.414 182.477C403.734 181.695 401.84 180.348 399.73 178.434L393.285 174.391L390.824 173.57C390.707 173.023 390.18 172.496 389.242 171.988C388.109 170.27 386.488 168.922 384.379 167.945C383.559 168.531 382.738 168.785 381.918 168.707C381.527 166.363 381.801 163.668 382.738 160.621L384.379 157.398C411.918 152.867 427.289 160.953 430.492 181.656C429.203 194.195 422.738 202.828 411.098 207.555C401.371 215.445 390.844 215.719 379.516 208.375L368.969 199.469ZM444.555 199.469C422.602 159.078 432.582 127.789 474.496 105.602C489.809 104.898 498.715 110.836 501.215 123.414C498.715 126.656 495.219 129.625 490.727 132.32C485.375 132.359 479.438 131.012 472.914 128.277C454.555 142.027 449.418 159.82 457.504 181.656L460.785 187.34C467.895 189.176 474.633 187.555 481 182.477C479.32 181.695 477.426 180.348 475.316 178.434L468.871 174.391L466.41 173.57C466.293 173.023 465.766 172.496 464.828 171.988C463.695 170.27 462.074 168.922 459.965 167.945C459.145 168.531 458.324 168.785 457.504 168.707C457.113 166.363 457.387 163.668 458.324 160.621L459.965 157.398C487.504 152.867 502.875 160.953 506.078 181.656C504.789 194.195 498.324 202.828 486.684 207.555C476.957 215.445 466.43 215.719 455.102 208.375L444.555 199.469ZM538.832 114.801L552.426 105.719C554.926 108.336 558.461 110.855 563.031 113.277L561.508 119.312C576.859 151.617 574.34 183.414 553.949 214.703L548.441 201.227C546.449 202.164 546.781 194.547 549.438 178.375L531.918 181.891L525.18 205.621L517.621 213.18C513.832 212.203 510.297 209.684 507.016 205.621L508.539 184.41C510.844 178.16 513.578 171.852 516.742 165.484L515.98 158.043L518.852 150.836L525.59 146.734L532.738 125.406L538.832 114.801ZM539.418 160.797L549.496 159.977L545.805 145.562L539.418 160.797ZM574.281 127.223C578.422 116.09 586.938 108.902 599.828 105.66C611.469 104.332 622.367 107.789 632.523 116.031C632.602 125.992 627.816 132.125 618.168 134.43C618.52 140.836 617.445 147.75 614.945 155.172V157.574C615.414 162.535 614.887 168.648 613.363 175.914L612.602 180.719V186.285L611.781 188.688L612.602 194.254V200.641C607.055 215.172 600.668 217.574 593.441 207.848L591.859 208.609C591.977 205.758 591.703 202.848 591.039 199.879C591.82 196.832 591.82 193.375 591.039 189.508C591.742 185.055 592.016 179.723 591.859 173.512V149.605C591.664 146.676 591.918 143.199 592.621 139.176C583.207 140.035 577.094 136.051 574.281 127.223ZM667.68 107.418C668.266 107.262 668.832 106.695 669.379 105.719C690.473 112.867 701.801 128.727 703.363 153.297C697.191 181.422 680.199 201.52 652.387 213.59C649.496 213.902 646.391 213.629 643.07 212.77C626.469 204.488 620.238 190.602 624.379 171.109L620.98 160.914L626.898 145.621L627.777 143.102L630.297 136.305L631.176 133.727L639.672 122.711L641.371 121.012L645.824 109.82L649.047 108.648C651.43 111.734 655.941 111.324 662.582 107.418H665.16H667.68ZM678.754 154.996C676.957 143.551 672.133 137.027 664.281 135.426C662.914 138.512 660.648 141.637 657.484 144.801L653.266 151.598L650.688 154.996C650.18 158.746 650.473 163.277 651.566 168.59C650.434 175.621 651.566 182.691 654.965 189.801C666.02 181.676 673.949 170.074 678.754 154.996Z"/>
</mask>
<path d="M182.113 118.375C182.816 114.938 184.535 111.109 187.27 106.891C190.668 107.945 194.496 109.645 198.754 111.988C199.184 115.582 198.754 119.84 197.465 124.762C218.676 142.066 217.406 148.453 193.656 143.922L192.367 151.598C215.023 170.66 213.734 186.402 188.5 198.824H182.113C181.84 205.27 178.871 210.387 173.207 214.176C165.434 211.793 162.445 205.836 164.242 196.305C157.172 195.484 152.914 191.227 151.469 183.531L156.566 177.145C168.129 180.113 173.246 173.727 171.918 157.984C162.738 152.008 157.621 143.062 156.566 131.148L165.531 119.664C170.297 118.453 175.824 118.023 182.113 118.375ZM181 132.32H171.859C174.047 146.891 177.094 146.891 181 132.32ZM187.27 183.531C192.035 179.039 192.035 173.922 187.27 168.18C179.691 177.672 179.691 182.789 187.27 183.531ZM280.668 102.496L281.371 105.719H280.668H281.371C285.707 115.914 286.879 128.102 284.887 142.281C288.48 164.469 282.621 185.094 267.309 204.156C264.105 204.898 260.59 204.898 256.762 204.156C252.348 199.078 249.066 192.75 246.918 185.172L244.105 180.25L243.402 178.844L241.996 176.734L240.59 174.625C235.395 183.297 232.348 193.609 231.449 205.562C227.582 207.281 224.066 210.094 220.902 214C220.16 209.898 218.051 206.148 214.574 202.75C214.809 199.43 215.512 195.445 216.684 190.797V188.688C217.074 186.695 217.309 184.352 217.387 181.656L218.09 179.547V174.625L218.793 169.703L219.496 167.594L220.199 163.375L220.902 158.453L221.605 153.531V150.719C222.777 149.078 223.949 146.969 225.121 144.391C225.004 139.352 225.473 134.898 226.527 131.031L227.934 127.516C229.848 124.938 232.66 122.359 236.371 119.781C241.723 117.984 247.113 118.922 252.543 122.594C253.285 127.281 252.582 132.203 250.434 137.359L256.762 154.938C257.504 156.344 258.207 158.219 258.871 160.562L260.277 162.672C260.629 159.547 261.566 155.797 263.09 151.422L264.496 145.797V143.688L265.199 141.578L265.902 138.062L266.605 135.953L268.012 128.219C268.52 125.25 268.285 122.906 267.309 121.188L268.012 119.078L270.121 115.562C272.777 114.156 274.887 111.812 276.449 108.531L278.559 106.422C279.262 106.5 279.965 105.191 280.668 102.496ZM299.301 122.008C299.105 115.68 301.469 110.211 306.391 105.602C311.469 107.008 317.445 107.535 324.32 107.184L327.484 107.945H329.828H332.172H334.516L336.039 108.707C338.383 109.098 341 109.098 343.891 108.707L352.504 110.289L354.848 111.051C356.566 113.16 358.383 116.031 360.297 119.664C360.961 128.922 353.93 133.355 339.203 132.965L336.859 148.609L336.039 150.133V152.477L335.277 155.641L334.516 164.195L333.695 167.359V170.465L332.934 172.809L332.172 175.914V178.258L331.352 182.184V185.289L330.59 188.453C333.949 194.469 339.418 199.684 346.996 204.098C346.527 206.285 345.746 208.629 344.652 211.129C340.824 212.574 336.137 213.082 330.59 212.652L325.141 213.473L318.871 214.234C318.988 213.062 318.734 212.027 318.109 211.129L300.121 206.441L297.777 205.621L296.195 204.859L293.852 204.098L285.238 200.934L282.133 198.59C282.406 190.699 286.312 184.703 293.852 180.602C294.32 186.734 300.316 188.57 311.84 186.109C312.621 182.359 313.148 177.672 313.422 172.047L314.184 170.465L314.945 162.672L315.766 160.328L317.289 147.027L318.871 142.34C318.988 138.59 319.77 134.156 321.215 129.039V126.695C316.215 126.695 310.746 128.004 304.809 130.621H302.465C301.918 127.809 300.863 124.938 299.301 122.008ZM368.969 199.469C347.016 159.078 356.996 127.789 398.91 105.602C414.223 104.898 423.129 110.836 425.629 123.414C423.129 126.656 419.633 129.625 415.141 132.32C409.789 132.359 403.852 131.012 397.328 128.277C378.969 142.027 373.832 159.82 381.918 181.656L385.199 187.34C392.309 189.176 399.047 187.555 405.414 182.477C403.734 181.695 401.84 180.348 399.73 178.434L393.285 174.391L390.824 173.57C390.707 173.023 390.18 172.496 389.242 171.988C388.109 170.27 386.488 168.922 384.379 167.945C383.559 168.531 382.738 168.785 381.918 168.707C381.527 166.363 381.801 163.668 382.738 160.621L384.379 157.398C411.918 152.867 427.289 160.953 430.492 181.656C429.203 194.195 422.738 202.828 411.098 207.555C401.371 215.445 390.844 215.719 379.516 208.375L368.969 199.469ZM444.555 199.469C422.602 159.078 432.582 127.789 474.496 105.602C489.809 104.898 498.715 110.836 501.215 123.414C498.715 126.656 495.219 129.625 490.727 132.32C485.375 132.359 479.438 131.012 472.914 128.277C454.555 142.027 449.418 159.82 457.504 181.656L460.785 187.34C467.895 189.176 474.633 187.555 481 182.477C479.32 181.695 477.426 180.348 475.316 178.434L468.871 174.391L466.41 173.57C466.293 173.023 465.766 172.496 464.828 171.988C463.695 170.27 462.074 168.922 459.965 167.945C459.145 168.531 458.324 168.785 457.504 168.707C457.113 166.363 457.387 163.668 458.324 160.621L459.965 157.398C487.504 152.867 502.875 160.953 506.078 181.656C504.789 194.195 498.324 202.828 486.684 207.555C476.957 215.445 466.43 215.719 455.102 208.375L444.555 199.469ZM538.832 114.801L552.426 105.719C554.926 108.336 558.461 110.855 563.031 113.277L561.508 119.312C576.859 151.617 574.34 183.414 553.949 214.703L548.441 201.227C546.449 202.164 546.781 194.547 549.438 178.375L531.918 181.891L525.18 205.621L517.621 213.18C513.832 212.203 510.297 209.684 507.016 205.621L508.539 184.41C510.844 178.16 513.578 171.852 516.742 165.484L515.98 158.043L518.852 150.836L525.59 146.734L532.738 125.406L538.832 114.801ZM539.418 160.797L549.496 159.977L545.805 145.562L539.418 160.797ZM574.281 127.223C578.422 116.09 586.938 108.902 599.828 105.66C611.469 104.332 622.367 107.789 632.523 116.031C632.602 125.992 627.816 132.125 618.168 134.43C618.52 140.836 617.445 147.75 614.945 155.172V157.574C615.414 162.535 614.887 168.648 613.363 175.914L612.602 180.719V186.285L611.781 188.688L612.602 194.254V200.641C607.055 215.172 600.668 217.574 593.441 207.848L591.859 208.609C591.977 205.758 591.703 202.848 591.039 199.879C591.82 196.832 591.82 193.375 591.039 189.508C591.742 185.055 592.016 179.723 591.859 173.512V149.605C591.664 146.676 591.918 143.199 592.621 139.176C583.207 140.035 577.094 136.051 574.281 127.223ZM667.68 107.418C668.266 107.262 668.832 106.695 669.379 105.719C690.473 112.867 701.801 128.727 703.363 153.297C697.191 181.422 680.199 201.52 652.387 213.59C649.496 213.902 646.391 213.629 643.07 212.77C626.469 204.488 620.238 190.602 624.379 171.109L620.98 160.914L626.898 145.621L627.777 143.102L630.297 136.305L631.176 133.727L639.672 122.711L641.371 121.012L645.824 109.82L649.047 108.648C651.43 111.734 655.941 111.324 662.582 107.418H665.16H667.68ZM678.754 154.996C676.957 143.551 672.133 137.027 664.281 135.426C662.914 138.512 660.648 141.637 657.484 144.801L653.266 151.598L650.688 154.996C650.18 158.746 650.473 163.277 651.566 168.59C650.434 175.621 651.566 182.691 654.965 189.801C666.02 181.676 673.949 170.074 678.754 154.996Z" fill="url(#paint0_linear_471_34)"/>
<path d="M182.113 118.375L181.778 124.366L186.953 124.655L187.992 119.577L182.113 118.375ZM187.27 106.891L189.048 101.16L184.707 99.813L182.235 103.627L187.27 106.891ZM198.754 111.988L204.711 111.276L204.346 108.217L201.647 106.732L198.754 111.988ZM197.465 124.762L191.661 123.242L190.683 126.973L193.672 129.411L197.465 124.762ZM193.656 143.922L194.781 138.028L188.755 136.879L187.739 142.928L193.656 143.922ZM192.367 151.598L186.45 150.604L185.883 153.983L188.504 156.189L192.367 151.598ZM188.5 198.824V204.824H189.897L191.15 204.207L188.5 198.824ZM182.113 198.824V192.824H176.362L176.119 198.57L182.113 198.824ZM173.207 214.176L171.449 219.912L174.174 220.748L176.543 219.163L173.207 214.176ZM164.242 196.305L170.138 197.416L171.332 191.087L164.934 190.345L164.242 196.305ZM151.469 183.531L146.779 179.788L145.064 181.937L145.572 184.639L151.469 183.531ZM156.566 177.145L158.059 171.333L154.299 170.368L151.877 173.402L156.566 177.145ZM171.918 157.984L177.897 157.48L177.65 154.557L175.192 152.956L171.918 157.984ZM156.566 131.148L151.837 127.456L150.381 129.321L150.59 131.678L156.566 131.148ZM165.531 119.664L164.054 113.849L162.065 114.354L160.802 115.972L165.531 119.664ZM181 132.32L186.795 133.874L188.82 126.32H181V132.32ZM171.859 132.32V126.32H164.891L165.926 133.211L171.859 132.32ZM187.27 183.531L186.685 189.503L189.4 189.769L191.385 187.897L187.27 183.531ZM187.27 168.18L191.887 164.348L187.179 158.676L182.581 164.436L187.27 168.18ZM187.992 119.577C188.495 117.118 189.815 113.994 192.304 110.154L182.235 103.627C179.255 108.225 177.138 112.757 176.235 117.173L187.992 119.577ZM185.491 112.621C188.392 113.521 191.838 115.031 195.861 117.245L201.647 106.732C197.154 104.259 192.944 102.369 189.048 101.16L185.491 112.621ZM192.796 112.701C193.108 115.31 192.831 118.774 191.661 123.242L203.269 126.282C204.677 120.905 205.259 115.854 204.711 111.276L192.796 112.701ZM193.672 129.411C198.869 133.651 202.431 137.019 204.568 139.557C205.64 140.831 206.187 141.703 206.428 142.208C206.703 142.783 206.337 142.36 206.536 141.36C206.799 140.036 207.696 139.317 208.078 139.114C208.263 139.016 207.99 139.202 206.81 139.29C204.49 139.462 200.585 139.136 194.781 138.028L192.532 149.816C198.602 150.974 203.762 151.549 207.697 151.257C209.645 151.112 211.797 150.725 213.704 149.713C215.809 148.596 217.725 146.621 218.306 143.7C218.822 141.104 218.071 138.743 217.258 137.039C216.411 135.265 215.168 133.516 213.748 131.829C210.899 128.444 206.666 124.525 201.258 120.113L193.672 129.411ZM187.739 142.928L186.45 150.604L198.284 152.591L199.573 144.916L187.739 142.928ZM188.504 156.189C199.576 165.504 202.802 172.459 202.413 177.211C202.042 181.739 198.052 187.435 185.85 193.441L191.15 204.207C204.182 197.792 213.454 189.405 214.373 178.191C215.272 167.202 207.815 156.753 196.23 147.007L188.504 156.189ZM188.5 192.824H182.113V204.824H188.5V192.824ZM176.119 198.57C175.932 202.981 174.05 206.393 169.871 209.189L176.543 219.163C183.692 214.38 187.748 207.558 188.108 199.079L176.119 198.57ZM174.965 208.439C172.276 207.615 171.101 206.431 170.499 205.231C169.809 203.855 169.377 201.457 170.138 197.416L158.346 195.193C157.311 200.684 157.475 206.03 159.773 210.611C162.159 215.368 166.364 218.354 171.449 219.912L174.965 208.439ZM164.934 190.345C162.488 190.061 160.995 189.259 159.989 188.253C158.938 187.202 157.932 185.437 157.366 182.424L145.572 184.639C146.451 189.321 148.297 193.532 151.503 196.739C154.755 199.991 158.927 201.728 163.551 202.265L164.934 190.345ZM156.158 187.274L161.256 180.887L151.877 173.402L146.779 179.788L156.158 187.274ZM155.074 182.956C161.934 184.717 169.08 184.173 173.759 178.333C177.849 173.228 178.585 165.633 177.897 157.48L165.939 158.489C166.579 166.077 165.421 169.548 164.394 170.829C163.956 171.376 162.761 172.54 158.059 171.333L155.074 182.956ZM175.192 152.956C167.712 148.086 163.452 140.892 162.543 130.619L150.59 131.678C151.79 145.233 157.765 155.929 168.644 163.013L175.192 152.956ZM161.296 134.84L170.261 123.356L160.802 115.972L151.837 127.456L161.296 134.84ZM167.009 125.479C171.044 124.454 175.937 124.039 181.778 124.366L182.448 112.384C175.712 112.008 169.55 112.452 164.054 113.849L167.009 125.479ZM181 126.32H171.859V138.32H181V126.32ZM165.926 133.211C166.489 136.961 167.157 140.159 168.014 142.545C168.431 143.705 169.028 145.068 169.946 146.248C170.837 147.394 172.756 149.248 175.785 149.248C178.672 149.248 180.565 147.542 181.438 146.568C182.393 145.501 183.104 144.238 183.646 143.1C184.755 140.777 185.79 137.622 186.795 133.874L175.205 130.767C174.256 134.303 173.446 136.613 172.816 137.932C172.49 138.616 172.358 138.719 172.498 138.563C172.583 138.468 172.862 138.173 173.366 137.881C173.903 137.572 174.734 137.248 175.785 137.248C176.856 137.248 177.75 137.584 178.384 137.977C178.971 138.34 179.297 138.724 179.42 138.882C179.55 139.05 179.578 139.127 179.531 139.034C179.49 138.95 179.412 138.777 179.308 138.488C179.096 137.899 178.847 137.028 178.58 135.813C178.316 134.612 178.052 133.156 177.793 131.429L165.926 133.211ZM191.385 187.897C194.615 184.853 196.844 180.968 196.844 176.324C196.844 171.848 194.765 167.816 191.887 164.348L182.652 172.012C184.54 174.286 184.844 175.683 184.844 176.324C184.844 176.797 184.69 177.717 183.154 179.165L191.385 187.897ZM182.581 164.436C180.546 166.985 178.871 169.421 177.681 171.716C176.531 173.932 175.586 176.483 175.586 179.137C175.586 182.127 176.807 184.945 179.337 186.901C181.559 188.619 184.271 189.266 186.685 189.503L187.854 177.56C186.479 177.425 186.35 177.155 186.677 177.408C186.895 177.576 187.171 177.873 187.369 178.295C187.562 178.703 187.586 179.026 187.586 179.137C187.586 179.232 187.588 178.677 188.333 177.241C189.037 175.883 190.204 174.12 191.959 171.923L182.581 164.436ZM280.668 102.496L286.53 101.217L274.862 100.982L280.668 102.496ZM281.371 105.719V111.719H288.821L287.233 104.44L281.371 105.719ZM281.371 105.719L286.893 103.371L285.339 99.7188H281.371V105.719ZM284.887 142.281L278.945 141.446L278.819 142.345L278.964 143.241L284.887 142.281ZM267.309 204.156L268.663 210.001L270.686 209.533L271.986 207.914L267.309 204.156ZM256.762 204.156L252.233 208.092L253.59 209.653L255.62 210.047L256.762 204.156ZM246.918 185.172L252.69 183.535L252.491 182.831L252.127 182.195L246.918 185.172ZM244.105 180.25L238.739 182.933L238.813 183.082L238.896 183.227L244.105 180.25ZM243.402 178.844L248.769 176.16L248.602 175.826L248.395 175.516L243.402 178.844ZM240.59 174.625L245.582 171.297L240.319 163.402L235.443 171.541L240.59 174.625ZM231.449 205.562L233.886 211.045L237.164 209.589L237.432 206.012L231.449 205.562ZM220.902 214L214.998 215.068L217.328 227.945L225.565 217.777L220.902 214ZM214.574 202.75L208.589 202.328L208.394 205.099L210.38 207.041L214.574 202.75ZM216.684 190.797L222.502 192.264L222.684 191.542V190.797H216.684ZM216.684 188.688L210.796 187.533L210.684 188.105V188.688H216.684ZM217.387 181.656L211.695 179.759L211.415 180.598L211.389 181.482L217.387 181.656ZM218.09 179.547L223.782 181.444L224.09 180.521V179.547H218.09ZM218.09 174.625L212.15 173.776L212.09 174.199V174.625H218.09ZM218.793 169.703L213.101 167.806L212.93 168.319L212.853 168.855L218.793 169.703ZM219.496 167.594L225.188 169.491L225.337 169.045L225.414 168.58L219.496 167.594ZM220.199 163.375L226.118 164.361L226.129 164.293L226.139 164.224L220.199 163.375ZM221.605 153.531L227.545 154.38L227.605 153.958V153.531H221.605ZM221.605 150.719L216.723 147.231L215.605 148.796V150.719H221.605ZM225.121 144.391L230.583 146.873L231.151 145.624L231.119 144.251L225.121 144.391ZM226.527 131.031L220.956 128.803L220.829 129.122L220.739 129.453L226.527 131.031ZM227.934 127.516L223.116 123.939L222.652 124.564L222.363 125.287L227.934 127.516ZM236.371 119.781L234.461 114.093L233.65 114.366L232.948 114.854L236.371 119.781ZM252.543 122.594L258.469 121.655L258.062 119.083L255.904 117.624L252.543 122.594ZM250.434 137.359L244.895 135.052L244 137.201L244.788 139.392L250.434 137.359ZM256.762 154.938L251.116 156.97L251.259 157.366L251.455 157.738L256.762 154.938ZM258.871 160.562L253.098 162.198L253.356 163.106L253.879 163.891L258.871 160.562ZM260.277 162.672L255.285 166L264.402 179.676L266.24 163.343L260.277 162.672ZM263.09 151.422L268.756 153.395L268.845 153.14L268.911 152.877L263.09 151.422ZM264.496 145.797L270.317 147.252L270.496 146.536V145.797H264.496ZM264.496 143.688L258.804 141.79L258.496 142.714V143.688H264.496ZM265.199 141.578L270.891 143.475L271.009 143.121L271.083 142.755L265.199 141.578ZM265.902 138.062L260.21 136.165L260.092 136.52L260.019 136.886L265.902 138.062ZM266.605 135.953L272.298 137.85L272.432 137.446L272.509 137.026L266.605 135.953ZM268.012 128.219L273.915 129.292L273.921 129.261L273.926 129.23L268.012 128.219ZM267.309 121.188L261.616 119.29L260.771 121.827L262.092 124.152L267.309 121.188ZM268.012 119.078L262.867 115.991L262.528 116.556L262.32 117.181L268.012 119.078ZM270.121 115.562L267.314 110.26L265.836 111.042L264.976 112.476L270.121 115.562ZM276.449 108.531L272.207 104.289L271.476 105.019L271.032 105.952L276.449 108.531ZM278.559 106.422L279.221 100.459L276.355 100.14L274.316 102.179L278.559 106.422ZM274.806 103.775L275.509 106.998L287.233 104.44L286.53 101.217L274.806 103.775ZM281.371 99.7188H280.668V111.719H281.371V99.7188ZM280.668 111.719H281.371V99.7188H280.668V111.719ZM275.85 108.067C279.651 117.006 280.829 128.037 278.945 141.446L290.828 143.116C292.929 128.166 291.763 114.822 286.893 103.371L275.85 108.067ZM278.964 143.241C282.26 163.592 276.984 182.531 262.631 200.399L271.986 207.914C288.258 187.657 294.701 165.345 290.81 141.322L278.964 143.241ZM265.954 198.311C263.709 198.831 261.057 198.877 257.904 198.266L255.62 210.047C260.122 210.92 264.502 210.966 268.663 210.001L265.954 198.311ZM261.29 200.22C257.545 195.912 254.639 190.409 252.69 183.535L241.145 186.808C243.494 195.091 247.15 202.244 252.233 208.092L261.29 200.22ZM252.127 182.195L249.315 177.273L238.896 183.227L241.709 188.149L252.127 182.195ZM249.472 177.567L248.769 176.16L238.036 181.527L238.739 182.933L249.472 177.567ZM248.395 175.516L246.988 173.406L237.004 180.063L238.41 182.172L248.395 175.516ZM246.988 173.406L245.582 171.297L235.598 177.953L237.004 180.063L246.988 173.406ZM235.443 171.541C229.686 181.15 226.422 192.4 225.466 205.113L237.432 206.012C238.274 194.818 241.103 185.444 245.737 177.709L235.443 171.541ZM229.012 200.08C224.13 202.249 219.889 205.718 216.24 210.223L225.565 217.777C228.244 214.469 231.034 212.313 233.886 211.045L229.012 200.08ZM226.806 212.932C225.807 207.41 222.983 202.579 218.768 198.459L210.38 207.041C213.119 209.718 214.513 212.387 214.998 215.068L226.806 212.932ZM220.559 203.172C220.761 200.321 221.382 196.705 222.502 192.264L210.866 189.33C209.642 194.186 208.857 198.539 208.589 202.328L220.559 203.172ZM222.684 190.797V188.688H210.684V190.797H222.684ZM222.571 189.842C223.042 187.441 223.299 184.755 223.384 181.83L211.389 181.482C211.318 183.948 211.106 185.949 210.796 187.533L222.571 189.842ZM223.079 183.554L223.782 181.444L212.398 177.65L211.695 179.759L223.079 183.554ZM224.09 179.547V174.625H212.09V179.547H224.09ZM224.03 175.474L224.733 170.552L212.853 168.855L212.15 173.776L224.03 175.474ZM224.485 171.6L225.188 169.491L213.804 165.696L213.101 167.806L224.485 171.6ZM225.414 168.58L226.118 164.361L214.281 162.389L213.578 166.607L225.414 168.58ZM226.139 164.224L226.842 159.302L214.963 157.605L214.26 162.526L226.139 164.224ZM226.842 159.302L227.545 154.38L215.666 152.683L214.963 157.605L226.842 159.302ZM227.605 153.531V150.719H215.605V153.531H227.605ZM226.488 154.206C227.955 152.152 229.31 149.675 230.583 146.873L219.659 141.908C218.588 144.263 217.6 146.004 216.723 147.231L226.488 154.206ZM231.119 144.251C231.012 139.65 231.447 135.795 232.316 132.61L220.739 129.453C219.498 134.002 218.995 139.053 219.123 144.53L231.119 144.251ZM232.098 133.26L233.504 129.744L222.363 125.287L220.956 128.803L232.098 133.26ZM232.751 131.092C234.154 129.202 236.418 127.054 239.794 124.709L232.948 114.854C228.902 117.664 225.541 120.673 223.116 123.939L232.751 131.092ZM238.281 125.469C241.56 124.368 245.019 124.749 249.182 127.564L255.904 117.624C249.208 113.095 241.886 111.6 234.461 114.093L238.281 125.469ZM246.617 123.532C247.157 126.941 246.693 130.737 244.895 135.052L255.972 139.667C258.471 133.669 259.414 127.621 258.469 121.655L246.617 123.532ZM244.788 139.392L251.116 156.97L262.407 152.905L256.079 135.327L244.788 139.392ZM251.455 157.738C251.928 158.633 252.495 160.069 253.098 162.198L264.644 158.927C263.919 156.368 263.08 154.055 262.068 152.137L251.455 157.738ZM253.879 163.891L255.285 166L265.27 159.344L263.863 157.234L253.879 163.891ZM266.24 163.343C266.524 160.816 267.317 157.527 268.756 153.395L257.424 149.449C255.815 154.067 254.734 158.277 254.315 162.001L266.24 163.343ZM268.911 152.877L270.317 147.252L258.675 144.342L257.269 149.967L268.911 152.877ZM270.496 145.797V143.688H258.496V145.797H270.496ZM270.188 145.585L270.891 143.475L259.507 139.681L258.804 141.79L270.188 145.585ZM271.083 142.755L271.786 139.239L260.019 136.886L259.316 140.401L271.083 142.755ZM271.594 139.96L272.298 137.85L260.913 134.056L260.21 136.165L271.594 139.96ZM272.509 137.026L273.915 129.292L262.108 127.145L260.702 134.88L272.509 137.026ZM273.926 129.23C274.55 125.579 274.465 121.636 272.525 118.223L262.092 124.152C262.106 124.176 262.489 124.921 262.098 127.207L273.926 129.23ZM273.001 123.085L273.704 120.975L262.32 117.181L261.616 119.29L273.001 123.085ZM273.157 122.165L275.266 118.649L264.976 112.476L262.867 115.991L273.157 122.165ZM272.928 120.865C276.947 118.738 279.868 115.307 281.866 111.111L271.032 105.952C269.905 108.318 268.608 109.575 267.314 110.26L272.928 120.865ZM280.692 112.774L282.801 110.665L274.316 102.179L272.207 104.289L280.692 112.774ZM277.896 112.385C280.236 112.645 282.021 111.624 283.037 110.736C283.978 109.912 284.559 108.971 284.899 108.339C285.593 107.046 286.087 105.493 286.474 104.011L274.862 100.982C274.716 101.542 274.587 101.964 274.48 102.269C274.367 102.59 274.309 102.694 274.328 102.659C274.34 102.636 274.396 102.533 274.506 102.384C274.611 102.24 274.814 101.986 275.135 101.705C275.799 101.124 277.233 100.238 279.221 100.459L277.896 112.385ZM299.301 122.008L293.304 122.193L293.347 123.594L294.007 124.831L299.301 122.008ZM306.391 105.602L307.992 99.8192L304.747 98.9206L302.289 101.222L306.391 105.602ZM324.32 107.184L325.725 101.35L324.881 101.147L324.014 101.191L324.32 107.184ZM327.484 107.945L326.08 113.779L326.772 113.945H327.484V107.945ZM334.516 107.945L337.199 102.579L335.932 101.945H334.516V107.945ZM336.039 108.707L333.356 114.074L334.163 114.477L335.053 114.625L336.039 108.707ZM343.891 108.707L344.975 102.806L344.034 102.633L343.087 102.761L343.891 108.707ZM352.504 110.289L354.358 104.583L353.98 104.46L353.588 104.388L352.504 110.289ZM354.848 111.051L359.499 107.261L358.383 105.891L356.702 105.345L354.848 111.051ZM360.297 119.664L366.281 119.235L366.192 117.98L365.605 116.867L360.297 119.664ZM339.203 132.965L339.362 126.967L334.056 126.826L333.269 132.076L339.203 132.965ZM336.859 148.609L342.142 151.454L342.638 150.533L342.793 149.498L336.859 148.609ZM336.039 150.133L330.756 147.288L330.039 148.62V150.133H336.039ZM336.039 152.477L341.872 153.881L342.039 153.189V152.477H336.039ZM335.277 155.641L329.444 154.236L329.34 154.667L329.301 155.108L335.277 155.641ZM334.516 164.195L340.324 165.701L340.448 165.221L340.492 164.727L334.516 164.195ZM333.695 167.359L327.887 165.854L327.695 166.594V167.359H333.695ZM333.695 170.465L339.402 172.319L339.695 171.415V170.465H333.695ZM332.934 172.809L327.227 170.954L327.159 171.164L327.106 171.379L332.934 172.809ZM332.172 175.914L326.345 174.485L326.172 175.189V175.914H332.172ZM332.172 178.258L338.045 179.485L338.172 178.878V178.258H332.172ZM331.352 182.184L325.478 180.956L325.352 181.563V182.184H331.352ZM331.352 185.289L337.185 186.693L337.352 186.001V185.289H331.352ZM330.59 188.453L324.757 187.049L324.207 189.33L325.351 191.379L330.59 188.453ZM346.996 204.098L352.863 205.355L353.774 201.102L350.016 198.913L346.996 204.098ZM344.652 211.129L346.772 216.742L349.136 215.849L350.149 213.534L344.652 211.129ZM330.59 212.652L331.053 206.67L330.372 206.618L329.697 206.719L330.59 212.652ZM325.141 213.473L325.864 219.429L325.949 219.419L326.034 219.406L325.141 213.473ZM318.871 214.234L312.901 213.637L312.155 221.094L319.595 220.191L318.871 214.234ZM318.109 211.129L323.035 207.703L321.768 205.882L319.622 205.323L318.109 211.129ZM300.121 206.441L298.139 212.105L298.371 212.186L298.608 212.248L300.121 206.441ZM297.777 205.621L295.174 211.027L295.478 211.173L295.795 211.284L297.777 205.621ZM296.195 204.859L298.798 199.453L298.434 199.278L298.05 199.153L296.195 204.859ZM293.852 204.098L291.783 209.73L291.889 209.769L291.997 209.804L293.852 204.098ZM285.238 200.934L281.624 205.723L282.334 206.259L283.169 206.566L285.238 200.934ZM282.133 198.59L276.136 198.382L276.028 201.5L278.518 203.379L282.133 198.59ZM293.852 180.602L299.834 180.144L299.128 170.901L290.984 175.331L293.852 180.602ZM311.84 186.109L313.093 191.977L316.916 191.161L317.714 187.333L311.84 186.109ZM313.422 172.047L308.016 169.444L307.488 170.54L307.429 171.756L313.422 172.047ZM314.184 170.465L319.59 173.068L320.052 172.108L320.155 171.049L314.184 170.465ZM314.945 162.672L309.282 160.69L309.044 161.37L308.974 162.088L314.945 162.672ZM315.766 160.328L321.429 162.31L321.65 161.677L321.727 161.011L315.766 160.328ZM317.289 147.027L311.604 145.109L311.4 145.712L311.328 146.345L317.289 147.027ZM318.871 142.34L324.556 144.259L324.84 143.416L324.868 142.527L318.871 142.34ZM321.215 129.039L326.989 130.67L327.215 129.87V129.039H321.215ZM321.215 126.695H327.215V120.695H321.215V126.695ZM304.809 130.621V136.621H306.072L307.229 136.111L304.809 130.621ZM302.465 130.621L296.575 131.766L297.519 136.621H302.465V130.621ZM305.298 121.823C305.16 117.341 306.736 113.499 310.492 109.981L302.289 101.222C296.202 106.923 293.051 114.019 293.304 122.193L305.298 121.823ZM304.789 111.384C310.645 113.005 317.294 113.551 324.627 113.176L324.014 101.191C317.596 101.52 312.293 101.01 307.992 99.8192L304.789 111.384ZM322.916 113.017L326.08 113.779L328.889 102.112L325.725 101.35L322.916 113.017ZM327.484 113.945H329.828V101.945H327.484V113.945ZM329.828 113.945H332.172V101.945H329.828V113.945ZM332.172 113.945H334.516V101.945H332.172V113.945ZM331.832 113.312L333.356 114.074L338.722 103.34L337.199 102.579L331.832 113.312ZM335.053 114.625C338.105 115.134 341.339 115.106 344.694 114.653L343.087 102.761C340.661 103.089 338.661 103.061 337.025 102.789L335.053 114.625ZM342.807 114.608L351.42 116.19L353.588 104.388L344.975 102.806L342.807 114.608ZM350.649 115.995L352.993 116.757L356.702 105.345L354.358 104.583L350.649 115.995ZM350.196 114.841C351.571 116.528 353.177 119.022 354.989 122.461L365.605 116.867C363.589 113.041 361.561 109.792 359.499 107.261L350.196 114.841ZM354.312 120.093C354.422 121.622 354.19 122.575 353.912 123.173C353.651 123.734 353.205 124.3 352.321 124.857C350.322 126.118 346.341 127.152 339.362 126.967L339.044 138.963C346.792 139.168 353.69 138.181 358.722 135.008C361.353 133.349 363.462 131.095 364.793 128.233C366.106 125.408 366.504 122.335 366.281 119.235L354.312 120.093ZM333.269 132.076L330.926 147.72L342.793 149.498L345.137 133.854L333.269 132.076ZM331.577 145.765L330.756 147.288L341.322 152.977L342.142 151.454L331.577 145.765ZM330.039 150.133V152.477H342.039V150.133H330.039ZM330.206 151.072L329.444 154.236L341.111 157.045L341.872 153.881L330.206 151.072ZM329.301 155.108L328.539 163.663L340.492 164.727L341.254 156.173L329.301 155.108ZM328.708 162.69L327.887 165.854L339.503 168.865L340.324 165.701L328.708 162.69ZM327.695 167.359V170.465H339.695V167.359H327.695ZM327.989 168.61L327.227 170.954L338.64 174.663L339.402 172.319L327.989 168.61ZM327.106 171.379L326.345 174.485L337.999 177.343L338.761 174.238L327.106 171.379ZM326.172 175.914V178.258H338.172V175.914H326.172ZM326.299 177.031L325.478 180.956L337.225 183.411L338.045 179.485L326.299 177.031ZM325.352 182.184V185.289H337.352V182.184H325.352ZM325.518 183.885L324.757 187.049L336.423 189.857L337.185 186.693L325.518 183.885ZM325.351 191.379C329.359 198.556 335.719 204.473 343.976 209.282L350.016 198.913C343.117 194.895 338.539 190.382 335.828 185.528L325.351 191.379ZM341.129 202.84C340.761 204.559 340.121 206.516 339.155 208.724L350.149 213.534C351.371 210.742 352.294 208.011 352.863 205.355L341.129 202.84ZM342.533 205.516C339.769 206.559 336.021 207.055 331.053 206.67L330.126 218.634C336.252 219.109 341.88 218.589 346.772 216.742L342.533 205.516ZM329.697 206.719L324.247 207.54L326.034 219.406L331.483 218.585L329.697 206.719ZM324.417 207.516L318.147 208.278L319.595 220.191L325.864 219.429L324.417 207.516ZM324.841 214.831C325.089 212.354 324.541 209.868 323.035 207.703L313.184 214.555C313.087 214.416 312.995 214.226 312.941 214.008C312.89 213.798 312.899 213.659 312.901 213.637L324.841 214.831ZM319.622 205.323L301.634 200.635L298.608 212.248L316.596 216.935L319.622 205.323ZM302.103 200.778L299.759 199.958L295.795 211.284L298.139 212.105L302.103 200.778ZM300.38 200.215L298.798 199.453L293.592 210.265L295.174 211.027L300.38 200.215ZM298.05 199.153L295.706 198.391L291.997 209.804L294.341 210.566L298.05 199.153ZM295.92 198.466L287.307 195.302L283.169 206.566L291.783 209.73L295.92 198.466ZM288.853 196.144L285.747 193.801L278.518 203.379L281.624 205.723L288.853 196.144ZM288.129 198.798C288.322 193.244 290.849 189.066 296.719 185.872L290.984 175.331C281.776 180.34 276.491 188.154 276.136 198.382L288.129 198.798ZM287.869 181.059C288.06 183.562 288.861 186.057 290.58 188.176C292.292 190.286 294.56 191.585 296.944 192.315C301.446 193.694 307.068 193.264 313.093 191.977L310.587 180.242C305.088 181.416 301.95 181.298 300.457 180.841C299.842 180.653 299.803 180.497 299.899 180.615C300.002 180.742 299.877 180.708 299.834 180.144L287.869 181.059ZM317.714 187.333C318.581 183.17 319.133 178.145 319.415 172.338L307.429 171.756C307.164 177.198 306.661 181.549 305.966 184.886L317.714 187.333ZM318.828 174.65L319.59 173.068L308.778 167.862L308.016 169.444L318.828 174.65ZM320.155 171.049L320.917 163.256L308.974 162.088L308.212 169.881L320.155 171.049ZM320.608 164.654L321.429 162.31L310.102 158.346L309.282 160.69L320.608 164.654ZM321.727 161.011L323.25 147.71L311.328 146.345L309.805 159.645L321.727 161.011ZM322.974 148.946L324.556 144.259L313.186 140.421L311.604 145.109L322.974 148.946ZM324.868 142.527C324.965 139.421 325.626 135.495 326.989 130.67L315.441 127.408C313.913 132.817 313.011 137.758 312.874 142.152L324.868 142.527ZM327.215 129.039V126.695H315.215V129.039H327.215ZM321.215 120.695C315.173 120.695 308.871 122.273 302.389 125.131L307.229 136.111C312.621 133.735 317.257 132.695 321.215 132.695V120.695ZM304.809 124.621H302.465V136.621H304.809V124.621ZM308.355 129.476C307.677 125.993 306.395 122.559 304.595 119.184L294.007 124.831C295.332 127.316 296.159 129.624 296.575 131.766L308.355 129.476ZM368.969 199.469L363.697 202.334L364.236 203.325L365.098 204.053L368.969 199.469ZM398.91 105.602L398.635 99.6079L397.292 99.6696L396.103 100.299L398.91 105.602ZM425.629 123.414L430.38 127.078L432.045 124.919L431.514 122.244L425.629 123.414ZM415.141 132.32L415.184 138.32L416.823 138.308L418.228 137.465L415.141 132.32ZM397.328 128.277L399.648 122.744L396.48 121.416L393.731 123.475L397.328 128.277ZM381.918 181.656L376.291 183.74L376.468 184.216L376.722 184.656L381.918 181.656ZM385.199 187.34L380.003 190.34L381.262 192.52L383.699 193.149L385.199 187.34ZM405.414 182.477L409.155 187.167L416.733 181.124L407.944 177.036L405.414 182.477ZM399.73 178.434L403.762 173.99L403.369 173.633L402.919 173.351L399.73 178.434ZM393.285 174.391L396.473 169.308L395.864 168.926L395.183 168.699L393.285 174.391ZM390.824 173.57L384.957 174.827L385.676 178.179L388.927 179.262L390.824 173.57ZM389.242 171.988L384.232 175.29L385.061 176.547L386.384 177.264L389.242 171.988ZM384.379 167.945L386.9 162.501L383.732 161.034L380.891 163.063L384.379 167.945ZM381.918 168.707L376 169.693L376.758 174.243L381.349 174.68L381.918 168.707ZM382.738 160.621L377.391 157.899L377.156 158.361L377.004 158.857L382.738 160.621ZM384.379 157.398L383.405 151.478L380.409 151.971L379.032 154.676L384.379 157.398ZM430.492 181.656L436.461 182.27L436.54 181.502L436.422 180.739L430.492 181.656ZM411.098 207.555L408.84 201.995L408.012 202.332L407.318 202.895L411.098 207.555ZM379.516 208.375L375.645 212.959L375.934 213.204L376.252 213.41L379.516 208.375ZM374.24 196.603C363.726 177.258 361.384 161.08 365.705 147.532C370.042 133.937 381.532 121.59 401.717 110.904L396.103 100.299C374.374 111.801 359.917 126.192 354.273 143.886C348.614 161.627 352.259 181.289 363.697 202.334L374.24 196.603ZM399.185 111.595C406.097 111.278 410.728 112.508 413.746 114.52C416.616 116.433 418.739 119.526 419.744 124.584L431.514 122.244C430.019 114.724 426.439 108.559 420.402 104.535C414.514 100.61 407.036 99.2221 398.635 99.6079L399.185 111.595ZM420.877 119.75C418.943 122.259 416.075 124.763 412.054 127.175L418.228 137.465C423.191 134.487 427.315 131.054 430.38 127.078L420.877 119.75ZM415.097 126.32C410.772 126.352 405.651 125.26 399.648 122.744L395.009 133.811C402.052 136.763 408.806 138.367 415.184 138.32L415.097 126.32ZM393.731 123.475C383.761 130.942 376.951 139.846 373.941 150.27C370.935 160.685 371.919 171.932 376.291 183.74L387.545 179.573C383.831 169.544 383.34 160.977 385.471 153.599C387.598 146.23 392.536 139.363 400.925 133.08L393.731 123.475ZM376.722 184.656L380.003 190.34L390.395 184.34L387.114 178.656L376.722 184.656ZM383.699 193.149C392.852 195.513 401.499 193.274 409.155 187.167L401.673 177.786C396.595 181.836 391.765 182.839 386.699 181.53L383.699 193.149ZM407.944 177.036C407.024 176.608 405.637 175.692 403.762 173.99L395.699 182.877C398.042 185.004 400.445 186.783 402.884 187.917L407.944 177.036ZM402.919 173.351L396.473 169.308L390.097 179.473L396.542 183.516L402.919 173.351ZM395.183 168.699L392.722 167.878L388.927 179.262L391.388 180.083L395.183 168.699ZM396.691 172.313C395.985 169.017 393.308 167.367 392.1 166.713L386.384 177.264C386.543 177.35 386.378 177.287 386.098 177.007C385.81 176.72 385.21 176.004 384.957 174.827L396.691 172.313ZM394.252 168.686C392.428 165.919 389.888 163.884 386.9 162.501L381.858 173.39C383.089 173.96 383.79 174.62 384.232 175.29L394.252 168.686ZM380.891 163.063C380.915 163.046 381.076 162.936 381.374 162.843C381.689 162.746 382.075 162.695 382.487 162.734L381.349 174.68C383.912 174.924 386.143 174.058 387.866 172.828L380.891 163.063ZM387.836 167.721C387.642 166.554 387.72 164.832 388.473 162.386L377.004 158.857C375.881 162.504 375.413 166.172 376 169.693L387.836 167.721ZM388.085 163.343L389.726 160.121L379.032 154.676L377.391 157.899L388.085 163.343ZM385.353 163.319C398.557 161.146 407.752 162.21 413.768 165.375C419.416 168.346 423.184 173.665 424.563 182.574L436.422 180.739C434.597 168.945 429.078 159.869 419.355 154.754C410 149.833 397.739 149.119 383.405 151.478L385.353 163.319ZM424.524 181.043C423.971 186.415 422.352 190.63 419.874 193.939C417.397 197.246 413.819 199.974 408.84 201.995L413.355 213.114C420.017 210.409 425.491 206.457 429.479 201.132C433.467 195.807 435.724 189.436 436.461 182.27L424.524 181.043ZM407.318 202.895C403.281 206.17 399.455 207.584 395.751 207.68C391.999 207.777 387.713 206.538 382.779 203.34L376.252 213.41C382.647 217.555 389.288 219.852 396.063 219.676C402.887 219.498 409.188 216.83 414.878 212.214L407.318 202.895ZM383.387 203.791L372.84 194.885L365.098 204.053L375.645 212.959L383.387 203.791ZM444.555 199.469L439.283 202.334L439.822 203.325L440.684 204.053L444.555 199.469ZM474.496 105.602L474.221 99.6079L472.878 99.6696L471.689 100.299L474.496 105.602ZM501.215 123.414L505.966 127.078L507.631 124.919L507.1 122.244L501.215 123.414ZM490.727 132.32L490.77 138.32L492.409 138.308L493.814 137.465L490.727 132.32ZM472.914 128.277L475.234 122.744L472.066 121.416L469.317 123.475L472.914 128.277ZM457.504 181.656L451.877 183.74L452.054 184.216L452.308 184.656L457.504 181.656ZM460.785 187.34L455.589 190.34L456.848 192.52L459.285 193.149L460.785 187.34ZM481 182.477L484.741 187.167L492.319 181.124L483.53 177.036L481 182.477ZM475.316 178.434L479.348 173.99L478.955 173.633L478.505 173.351L475.316 178.434ZM468.871 174.391L472.059 169.308L471.45 168.926L470.768 168.699L468.871 174.391ZM466.41 173.57L460.543 174.827L461.261 178.179L464.513 179.262L466.41 173.57ZM464.828 171.988L459.818 175.29L460.647 176.547L461.97 177.264L464.828 171.988ZM459.965 167.945L462.486 162.501L459.318 161.034L456.477 163.063L459.965 167.945ZM457.504 168.707L451.586 169.693L452.344 174.243L456.935 174.68L457.504 168.707ZM458.324 160.621L452.977 157.899L452.742 158.361L452.59 158.857L458.324 160.621ZM459.965 157.398L458.991 151.478L455.995 151.971L454.618 154.676L459.965 157.398ZM506.078 181.656L512.047 182.27L512.126 181.502L512.008 180.739L506.078 181.656ZM486.684 207.555L484.426 201.995L483.598 202.332L482.904 202.895L486.684 207.555ZM455.102 208.375L451.23 212.959L451.52 213.204L451.838 213.41L455.102 208.375ZM449.826 196.603C439.312 177.258 436.97 161.08 441.291 147.532C445.628 133.937 457.118 121.59 477.303 110.904L471.689 100.299C449.96 111.801 435.503 126.192 429.859 143.886C424.2 161.627 427.844 181.289 439.283 202.334L449.826 196.603ZM474.771 111.595C481.683 111.278 486.314 112.508 489.332 114.52C492.202 116.433 494.325 119.526 495.33 124.584L507.1 122.244C505.605 114.724 502.025 108.559 495.988 104.535C490.1 100.61 482.622 99.2221 474.221 99.6079L474.771 111.595ZM496.463 119.75C494.529 122.259 491.661 124.763 487.64 127.175L493.814 137.465C498.777 134.487 502.901 131.054 505.966 127.078L496.463 119.75ZM490.683 126.32C486.358 126.352 481.237 125.26 475.234 122.744L470.595 133.811C477.638 136.763 484.392 138.367 490.77 138.32L490.683 126.32ZM469.317 123.475C459.347 130.942 452.537 139.846 449.527 150.27C446.521 160.685 447.505 171.932 451.877 183.74L463.131 179.573C459.417 169.544 458.926 160.977 461.057 153.599C463.184 146.23 468.122 139.363 476.511 133.08L469.317 123.475ZM452.308 184.656L455.589 190.34L465.981 184.34L462.7 178.656L452.308 184.656ZM459.285 193.149C468.438 195.513 477.085 193.274 484.741 187.167L477.259 177.786C472.181 181.836 467.351 182.839 462.285 181.53L459.285 193.149ZM483.53 177.036C482.61 176.608 481.223 175.692 479.348 173.99L471.284 182.877C473.628 185.004 476.031 186.783 478.47 187.917L483.53 177.036ZM478.505 173.351L472.059 169.308L465.683 179.473L472.128 183.516L478.505 173.351ZM470.768 168.699L468.308 167.878L464.513 179.262L466.974 180.083L470.768 168.699ZM472.277 172.313C471.571 169.017 468.894 167.367 467.686 166.713L461.97 177.264C462.129 177.35 461.964 177.287 461.684 177.007C461.396 176.72 460.796 176.004 460.543 174.827L472.277 172.313ZM469.838 168.686C468.014 165.919 465.474 163.884 462.486 162.501L457.444 173.39C458.675 173.96 459.376 174.62 459.818 175.29L469.838 168.686ZM456.477 163.063C456.501 163.046 456.662 162.936 456.96 162.843C457.275 162.746 457.66 162.695 458.073 162.734L456.935 174.68C459.498 174.924 461.729 174.058 463.452 172.828L456.477 163.063ZM463.422 167.721C463.228 166.554 463.306 164.832 464.059 162.386L452.59 158.857C451.467 162.504 450.999 166.172 451.586 169.693L463.422 167.721ZM463.671 163.343L465.312 160.121L454.618 154.676L452.977 157.899L463.671 163.343ZM460.939 163.319C474.143 161.146 483.338 162.21 489.354 165.375C495.002 168.346 498.77 173.665 500.149 182.574L512.008 180.739C510.183 168.945 504.664 159.869 494.941 154.754C485.585 149.833 473.325 149.119 458.991 151.478L460.939 163.319ZM500.11 181.043C499.557 186.415 497.938 190.63 495.46 193.939C492.983 197.246 489.405 199.974 484.426 201.995L488.941 213.114C495.603 210.409 501.077 206.457 505.065 201.132C509.052 195.807 511.31 189.436 512.047 182.27L500.11 181.043ZM482.904 202.895C478.867 206.17 475.041 207.584 471.337 207.68C467.585 207.777 463.299 206.538 458.365 203.34L451.838 213.41C458.233 217.555 464.874 219.852 471.649 219.676C478.473 219.498 484.774 216.83 490.464 212.214L482.904 202.895ZM458.973 203.791L448.426 194.885L440.684 204.053L451.23 212.959L458.973 203.791ZM538.832 114.801L535.499 109.812L534.33 110.593L533.63 111.812L538.832 114.801ZM552.426 105.719L556.764 101.574L553.283 97.93L549.093 100.73L552.426 105.719ZM563.031 113.277L568.849 114.746L570.001 110.18L565.841 107.976L563.031 113.277ZM561.508 119.312L555.69 117.844L555.162 119.938L556.089 121.888L561.508 119.312ZM553.949 214.703L548.395 216.973L552.726 227.57L558.976 217.979L553.949 214.703ZM548.441 201.227L553.995 198.957L551.605 193.107L545.887 195.798L548.441 201.227ZM549.438 178.375L555.358 179.347L556.765 170.785L548.257 172.492L549.438 178.375ZM531.918 181.891L530.737 176.008L527.147 176.728L526.146 180.252L531.918 181.891ZM525.18 205.621L529.422 209.864L530.525 208.761L530.952 207.26L525.18 205.621ZM517.621 213.18L516.124 218.99L519.441 219.845L521.864 217.422L517.621 213.18ZM507.016 205.621L501.031 205.191L500.862 207.551L502.348 209.391L507.016 205.621ZM508.539 184.41L502.91 182.334L502.615 183.132L502.554 183.98L508.539 184.41ZM516.742 165.484L522.115 168.154L522.888 166.6L522.711 164.873L516.742 165.484ZM515.98 158.043L510.406 155.822L509.862 157.19L510.012 158.654L515.98 158.043ZM518.852 150.836L515.732 145.711L514.019 146.753L513.278 148.615L518.852 150.836ZM525.59 146.734L528.71 151.86L530.582 150.72L531.279 148.641L525.59 146.734ZM532.738 125.406L527.536 122.417L527.239 122.934L527.049 123.5L532.738 125.406ZM539.418 160.797L533.885 158.477L530.069 167.578L539.905 166.777L539.418 160.797ZM549.496 159.977L549.983 165.957L557.073 165.38L555.309 158.488L549.496 159.977ZM545.805 145.562L551.617 144.074L547.182 126.757L540.271 143.243L545.805 145.562ZM542.165 119.79L555.759 110.708L549.093 100.73L535.499 109.812L542.165 119.79ZM548.087 109.863C551.177 113.098 555.306 115.974 560.222 118.579L565.841 107.976C561.616 105.737 558.674 103.574 556.764 101.574L548.087 109.863ZM557.214 111.809L555.69 117.844L567.325 120.781L568.849 114.746L557.214 111.809ZM556.089 121.888C570.497 152.207 568.234 181.793 548.922 211.427L558.976 217.979C580.445 185.035 583.222 151.027 566.927 116.737L556.089 121.888ZM559.503 212.433L553.995 198.957L542.887 203.496L548.395 216.973L559.503 212.433ZM545.887 195.798C546.437 195.539 547.369 195.228 548.559 195.32C549.824 195.418 550.904 195.937 551.692 196.608C552.41 197.219 552.779 197.857 552.946 198.196C553.121 198.549 553.188 198.808 553.206 198.878C553.223 198.949 553.11 198.332 553.191 196.478C553.34 193.05 554.035 187.402 555.358 179.347L543.517 177.403C542.183 185.52 541.385 191.766 541.202 195.956C541.117 197.911 541.128 200.032 541.56 201.773C541.743 202.508 542.261 204.338 543.914 205.746C544.879 206.568 546.153 207.17 547.632 207.284C549.034 207.393 550.197 207.032 550.996 206.655L545.887 195.798ZM548.257 172.492L530.737 176.008L533.098 187.773L550.618 184.258L548.257 172.492ZM526.146 180.252L519.408 203.982L530.952 207.26L537.69 183.53L526.146 180.252ZM520.937 201.378L513.378 208.937L521.864 217.422L529.422 209.864L520.937 201.378ZM519.119 207.37C516.937 206.807 514.423 205.243 511.683 201.851L502.348 209.391C506.171 214.124 510.727 217.599 516.124 218.99L519.119 207.37ZM513 206.051L514.524 184.84L502.554 183.98L501.031 205.191L513 206.051ZM514.169 186.486C516.394 180.452 519.041 174.341 522.115 168.154L511.369 162.814C508.115 169.362 505.294 175.869 502.91 182.334L514.169 186.486ZM522.711 164.873L521.949 157.432L510.012 158.654L510.773 166.095L522.711 164.873ZM521.554 160.263L524.426 153.056L513.278 148.615L510.406 155.822L521.554 160.263ZM521.971 155.961L528.71 151.86L522.47 141.609L515.732 145.711L521.971 155.961ZM531.279 148.641L538.427 127.313L527.049 123.5L519.901 144.828L531.279 148.641ZM537.941 128.395L544.034 117.79L533.63 111.812L527.536 122.417L537.941 128.395ZM539.905 166.777L549.983 165.957L549.009 153.996L538.931 154.817L539.905 166.777ZM555.309 158.488L551.617 144.074L539.992 147.051L543.684 161.465L555.309 158.488ZM540.271 143.243L533.885 158.477L544.951 163.117L551.338 147.882L540.271 143.243ZM574.281 127.223L568.658 125.131L567.936 127.071L568.564 129.044L574.281 127.223ZM599.828 105.66L599.148 99.6988L598.752 99.7441L598.365 99.8414L599.828 105.66ZM632.523 116.031L638.523 115.984L638.501 113.155L636.304 111.372L632.523 116.031ZM618.168 134.43L616.774 128.594L611.903 129.757L612.177 134.758L618.168 134.43ZM614.945 155.172L609.259 153.257L608.945 154.188V155.172H614.945ZM614.945 157.574H608.945V157.857L608.972 158.139L614.945 157.574ZM613.363 175.914L607.491 174.683L607.461 174.828L607.437 174.975L613.363 175.914ZM612.602 180.719L606.676 179.779L606.602 180.246V180.719H612.602ZM612.602 186.285L618.28 188.224L618.602 187.281V186.285H612.602ZM611.781 188.688L606.103 186.749L605.633 188.124L605.845 189.562L611.781 188.688ZM612.602 194.254H618.602V193.814L618.537 193.379L612.602 194.254ZM612.602 200.641L618.207 202.78L618.602 201.747V200.641H612.602ZM593.441 207.848L598.258 204.269L595.303 200.292L590.839 202.442L593.441 207.848ZM591.859 208.609L585.864 208.363L585.454 218.353L594.462 214.015L591.859 208.609ZM591.039 199.879L585.227 198.389L584.869 199.783L585.184 201.189L591.039 199.879ZM591.039 189.508L585.112 188.572L584.944 189.638L585.158 190.696L591.039 189.508ZM591.859 173.512H585.859V173.587L585.861 173.663L591.859 173.512ZM591.859 149.605H597.859V149.406L597.846 149.206L591.859 149.605ZM592.621 139.176L598.532 140.209L599.881 132.488L592.076 133.201L592.621 139.176ZM579.905 129.314C583.266 120.276 590.051 114.306 601.292 111.479L598.365 99.8414C583.824 103.498 573.577 111.904 568.658 125.131L579.905 129.314ZM600.508 111.621C610.354 110.498 619.678 113.334 628.743 120.69L636.304 111.372C625.056 102.244 612.584 98.1659 599.148 99.6988L600.508 111.621ZM626.524 116.078C626.555 120.09 625.613 122.68 624.263 124.411C622.914 126.139 620.645 127.669 616.774 128.594L619.562 140.266C625.339 138.886 630.287 136.197 633.724 131.793C637.158 127.391 638.57 121.933 638.523 115.984L626.524 116.078ZM612.177 134.758C612.479 140.257 611.568 146.402 609.259 153.257L620.631 157.087C623.322 149.098 624.56 141.415 624.159 134.101L612.177 134.758ZM608.945 155.172V157.574H620.945V155.172H608.945ZM608.972 158.139C609.363 162.283 608.945 167.748 607.491 174.683L619.236 177.145C620.828 169.549 621.465 162.787 620.919 157.01L608.972 158.139ZM607.437 174.975L606.676 179.779L618.528 181.658L619.289 176.854L607.437 174.975ZM606.602 180.719V186.285H618.602V180.719H606.602ZM606.923 184.346L606.103 186.749L617.459 190.626L618.28 188.224L606.923 184.346ZM605.845 189.562L606.666 195.129L618.537 193.379L617.717 187.813L605.845 189.562ZM606.602 194.254V200.641H618.602V194.254H606.602ZM606.996 198.501C605.708 201.876 604.479 204.249 603.379 205.809C602.839 206.576 602.385 207.067 602.044 207.367C601.707 207.663 601.534 207.727 601.539 207.725C601.79 207.631 601.948 207.8 601.547 207.585C600.936 207.256 599.806 206.354 598.258 204.269L588.625 211.426C590.69 214.205 593.069 216.65 595.861 218.152C598.863 219.767 602.32 220.252 605.764 218.957C608.931 217.765 611.34 215.345 613.188 212.721C615.073 210.048 616.722 206.671 618.207 202.78L606.996 198.501ZM590.839 202.442L589.256 203.203L594.462 214.015L596.044 213.254L590.839 202.442ZM597.854 208.856C597.994 205.448 597.665 202.015 596.894 198.569L585.184 201.189C585.741 203.681 585.959 206.067 585.864 208.363L597.854 208.856ZM596.851 201.369C597.907 197.252 597.836 192.854 596.92 188.32L585.158 190.696C585.804 193.896 585.734 196.412 585.227 198.389L596.851 201.369ZM596.966 190.444C597.742 185.525 598.02 179.81 597.857 173.361L585.861 173.663C586.012 179.635 585.742 184.584 585.112 188.572L596.966 190.444ZM597.859 173.512V149.605H585.859V173.512H597.859ZM597.846 149.206C597.692 146.901 597.881 143.929 598.532 140.209L586.711 138.143C585.954 142.47 585.636 146.451 585.873 150.005L597.846 149.206ZM592.076 133.201C588.312 133.544 585.881 132.867 584.252 131.805C582.637 130.753 581.1 128.86 579.998 125.401L568.564 129.044C570.275 134.413 573.201 138.927 577.699 141.859C582.184 144.781 587.516 145.667 593.167 145.151L592.076 133.201ZM667.68 107.418V113.418H668.466L669.226 113.215L667.68 107.418ZM669.379 105.719L671.305 100.036L666.581 98.4354L664.144 102.787L669.379 105.719ZM703.363 153.297L709.224 154.583L709.405 153.758L709.351 152.916L703.363 153.297ZM652.387 213.59L653.032 219.555L653.939 219.457L654.775 219.094L652.387 213.59ZM643.07 212.77L640.392 218.139L640.956 218.42L641.567 218.578L643.07 212.77ZM624.379 171.109L630.248 172.356L630.587 170.76L630.071 169.212L624.379 171.109ZM620.98 160.914L615.385 158.749L614.605 160.763L615.288 162.811L620.98 160.914ZM626.898 145.621L632.494 147.786L632.53 147.692L632.564 147.597L626.898 145.621ZM627.777 143.102L622.151 141.016L622.131 141.071L622.112 141.125L627.777 143.102ZM630.297 136.305L635.923 138.39L635.95 138.316L635.976 138.241L630.297 136.305ZM631.176 133.727L626.425 130.062L625.818 130.849L625.497 131.791L631.176 133.727ZM639.672 122.711L635.429 118.468L635.156 118.741L634.921 119.047L639.672 122.711ZM641.371 121.012L645.614 125.254L646.489 124.38L646.946 123.23L641.371 121.012ZM645.824 109.82L643.774 104.182L641.244 105.101L640.249 107.602L645.824 109.82ZM649.047 108.648L653.796 104.981L651.117 101.511L646.996 103.01L649.047 108.648ZM662.582 107.418V101.418H660.948L659.54 102.246L662.582 107.418ZM678.754 154.996L684.471 156.818L684.901 155.467L684.681 154.066L678.754 154.996ZM664.281 135.426L665.48 129.547L660.751 128.582L658.796 132.995L664.281 135.426ZM657.484 144.801L653.242 140.558L652.752 141.048L652.387 141.637L657.484 144.801ZM653.266 151.598L658.046 155.224L658.215 155L658.363 154.762L653.266 151.598ZM650.688 154.996L645.907 151.37L644.954 152.627L644.742 154.191L650.688 154.996ZM651.566 168.59L657.49 169.544L657.665 168.458L657.443 167.38L651.566 168.59ZM654.965 189.801L649.552 192.388L652.678 198.928L658.518 194.635L654.965 189.801ZM669.226 113.215C672.269 112.404 673.882 109.957 674.614 108.65L664.144 102.787C664.042 102.97 664.075 102.86 664.301 102.633C664.532 102.402 665.13 101.888 666.134 101.621L669.226 113.215ZM667.453 111.401C676.985 114.632 683.981 119.698 688.813 126.462C693.674 133.268 696.647 142.219 697.375 153.678L709.351 152.916C708.517 139.804 705.045 128.541 698.578 119.487C692.081 110.392 682.866 103.954 671.305 100.036L667.453 111.401ZM697.503 152.011C691.769 178.14 676.153 196.735 649.998 208.086L654.775 219.094C684.245 206.304 702.614 184.704 709.224 154.583L697.503 152.011ZM651.742 207.625C649.687 207.847 647.316 207.671 644.574 206.961L641.567 218.578C645.465 219.587 649.305 219.958 653.032 219.555L651.742 207.625ZM645.749 207.4C638.407 203.738 633.852 199.106 631.421 193.687C628.967 188.218 628.361 181.241 630.248 172.356L618.51 169.863C616.257 180.47 616.695 190.182 620.472 198.6C624.271 207.067 631.132 213.519 640.392 218.139L645.749 207.4ZM630.071 169.212L626.673 159.017L615.288 162.811L618.687 173.007L630.071 169.212ZM626.576 163.079L632.494 147.786L621.303 143.456L615.385 158.749L626.576 163.079ZM632.564 147.597L633.443 145.078L622.112 141.125L621.233 143.645L632.564 147.597ZM633.403 145.187L635.923 138.39L624.671 134.219L622.151 141.016L633.403 145.187ZM635.976 138.241L636.855 135.663L625.497 131.791L624.618 134.369L635.976 138.241ZM635.927 137.391L644.423 126.375L634.921 119.047L626.425 130.062L635.927 137.391ZM643.915 126.954L645.614 125.254L637.128 116.769L635.429 118.468L643.915 126.954ZM646.946 123.23L651.399 112.039L640.249 107.602L635.796 118.793L646.946 123.23ZM647.875 115.459L651.097 114.287L646.996 103.01L643.774 104.182L647.875 115.459ZM644.298 112.315C646.963 115.767 650.85 116.986 654.761 116.631C658.312 116.308 662.004 114.719 665.624 112.59L659.54 102.246C656.52 104.023 654.636 104.593 653.675 104.68C653.265 104.717 653.23 104.646 653.404 104.714C653.617 104.797 653.762 104.937 653.796 104.981L644.298 112.315ZM662.582 113.418H665.16V101.418H662.582V113.418ZM665.16 113.418H667.68V101.418H665.16V113.418ZM684.681 154.066C683.693 147.77 681.792 142.252 678.612 137.952C675.331 133.515 670.879 130.648 665.48 129.547L663.082 141.305C665.536 141.805 667.421 143.001 668.964 145.087C670.608 147.311 672.018 150.777 672.827 155.927L684.681 154.066ZM658.796 132.995C657.808 135.225 656.044 137.756 653.242 140.558L661.727 149.043C665.253 145.518 668.021 141.798 669.767 137.856L658.796 132.995ZM652.387 141.637L648.168 148.433L658.363 154.762L662.582 147.965L652.387 141.637ZM648.485 147.971L645.907 151.37L655.468 158.622L658.046 155.224L648.485 147.971ZM644.742 154.191C644.113 158.834 644.513 164.087 645.69 169.8L657.443 167.38C656.432 162.468 656.246 158.658 656.633 155.801L644.742 154.191ZM645.643 167.635C644.295 175.999 645.685 184.3 649.552 192.388L660.378 187.213C657.448 181.083 656.572 175.243 657.49 169.544L645.643 167.635ZM658.518 194.635C670.746 185.649 679.342 172.911 684.471 156.818L673.037 153.174C668.556 167.237 661.294 177.703 651.411 184.966L658.518 194.635Z" fill="white" mask="url(#path-4-outside-1_471_34)"/>
<path d="M144.399 303.571C153.804 303.571 163.749 302.86 173.014 304.067C188.946 304.067 234.617 296.951 250.589 296.951C291.091 296.951 288.181 297.463 328.455 300.329C340.93 301.217 355.759 296.357 368.26 296.954C368.26 296.954 368.26 296.954 368.26 296.954C367.825 294.325 367.547 291.681 367.547 289C368.26 296.951 373.178 302.352 368.26 296.954C368.788 300.141 369.545 303.307 370.316 306.49C371.874 312.921 373.664 319.203 374.47 325.716C375.721 335.82 377.859 346.205 377.931 356.345C377.943 357.991 378.725 370.864 374.701 370.998C368.84 371.193 362.718 370.648 356.894 370.255C345.541 369.488 334.142 371.494 322.779 371.494C318.499 371.494 314.592 372.454 310.318 372.486C305.165 372.524 300.01 372.486 294.857 372.486C279.877 372.486 265.387 373.304 250.589 374.469C241.097 375.216 231.218 375.085 221.859 376.507C212.877 377.871 203.796 378.365 194.629 377.719C176.664 376.454 158.9 375.282 140.861 374.469C136.292 374.263 125.135 374.412 121.246 371.88C120.297 371.262 120.467 366.451 120.4 365.985C119.5 359.745 120.4 353.62 120.4 347.366C120.4 339.616 119.997 331.807 120.438 324.063C120.696 319.543 121.266 314.015 123.015 309.63C123.837 307.57 123.752 306.089 126.63 305.058C129.147 304.157 132.108 303.765 134.899 303.598C138.027 303.412 141.263 303.571 144.399 303.571Z" fill="#1D0606"/>
<path d="M173.014 304.067C163.749 302.86 153.804 303.571 144.399 303.571C141.263 303.571 138.027 303.412 134.899 303.598C132.108 303.765 129.147 304.157 126.63 305.058C123.752 306.089 123.837 307.57 123.015 309.63C121.266 314.015 120.696 319.543 120.438 324.063C119.997 331.807 120.4 339.616 120.4 347.366C120.4 353.62 119.5 359.745 120.4 365.985C120.467 366.451 120.297 371.262 121.246 371.88C125.135 374.412 136.292 374.263 140.861 374.469C158.9 375.282 176.664 376.454 194.629 377.719C203.796 378.365 212.877 377.871 221.859 376.507C231.218 375.085 241.097 375.216 250.589 374.469C265.387 373.304 279.877 372.486 294.857 372.486C300.01 372.486 305.165 372.524 310.318 372.486C314.592 372.454 318.499 371.494 322.779 371.494C334.142 371.494 345.541 369.488 356.894 370.255C362.718 370.648 368.84 371.193 374.701 370.998C378.725 370.864 377.943 357.991 377.931 356.345C377.859 346.205 375.721 335.82 374.47 325.716C373.664 319.203 371.874 312.921 370.316 306.49C368.909 300.681 367.547 294.929 367.547 289C368.26 296.951 373.178 302.353 368.26 296.954C355.759 296.357 340.93 301.217 328.455 300.329C288.181 297.463 291.091 296.951 250.589 296.951C234.617 296.951 188.946 304.067 173.014 304.067Z" stroke="#433A2B" stroke-width="4" stroke-linecap="round"/>
<path d="M154.399 292.571C163.804 292.571 173.749 291.86 183.014 293.067C198.946 293.067 244.617 285.951 260.589 285.951C301.091 285.951 298.181 286.463 338.455 289.329C350.93 290.217 365.759 285.357 378.26 285.954C378.26 285.954 378.26 285.954 378.26 285.954C377.825 283.325 377.547 280.681 377.547 278C378.26 285.951 383.178 291.352 378.26 285.954C378.788 289.141 379.545 292.307 380.316 295.49C381.874 301.921 383.664 308.203 384.47 314.716C385.721 324.82 387.859 335.205 387.931 345.345C387.943 346.991 388.725 359.864 384.701 359.998C378.84 360.193 372.718 359.648 366.894 359.255C355.541 358.488 344.142 360.494 332.779 360.494C328.499 360.494 324.592 361.454 320.318 361.486C315.165 361.524 310.01 361.486 304.857 361.486C289.877 361.486 275.387 362.304 260.589 363.469C251.097 364.216 241.218 364.085 231.859 365.507C222.877 366.871 213.796 367.365 204.629 366.719C186.664 365.454 168.9 364.282 150.861 363.469C146.292 363.263 135.135 363.412 131.246 360.88C130.297 360.262 130.467 355.451 130.4 354.985C129.5 348.745 130.4 342.62 130.4 336.366C130.4 328.616 129.997 320.807 130.438 313.063C130.696 308.543 131.266 303.015 133.015 298.63C133.837 296.57 133.752 295.089 136.63 294.058C139.147 293.157 142.108 292.765 144.899 292.598C148.027 292.412 151.263 292.571 154.399 292.571Z" fill="white"/>
<path d="M183.014 293.067C173.749 291.86 163.804 292.571 154.399 292.571C151.263 292.571 148.027 292.412 144.899 292.598C142.108 292.765 139.147 293.157 136.63 294.058C133.752 295.089 133.837 296.57 133.015 298.63C131.266 303.015 130.696 308.543 130.438 313.063C129.997 320.807 130.4 328.616 130.4 336.366C130.4 342.62 129.5 348.745 130.4 354.985C130.467 355.451 130.297 360.262 131.246 360.88C135.135 363.412 146.292 363.263 150.861 363.469C168.9 364.282 186.664 365.454 204.629 366.719C213.796 367.365 222.877 366.871 231.859 365.507C241.218 364.085 251.097 364.216 260.589 363.469C275.387 362.304 289.877 361.486 304.857 361.486C310.01 361.486 315.165 361.524 320.318 361.486C324.592 361.454 328.499 360.494 332.779 360.494C344.142 360.494 355.541 358.488 366.894 359.255C372.718 359.648 378.84 360.193 384.701 359.998C388.725 359.864 387.943 346.991 387.931 345.345C387.859 335.205 385.721 324.82 384.47 314.716C383.664 308.203 381.874 301.921 380.316 295.49C378.909 289.681 377.547 283.929 377.547 278C378.26 285.951 383.178 291.353 378.26 285.954C365.759 285.357 350.93 290.217 338.455 289.329C298.181 286.463 301.091 285.951 260.589 285.951C244.617 285.951 198.946 293.067 183.014 293.067Z" stroke="#433A2B" stroke-width="4" stroke-linecap="round"/>
<path d="M143.41 318.306C144.445 315.522 146.574 313.726 149.797 312.915C152.707 312.583 155.432 313.447 157.971 315.508C157.99 317.998 156.794 319.531 154.382 320.107C154.47 321.709 154.201 323.438 153.576 325.293V325.894C153.693 327.134 153.562 328.662 153.181 330.479L152.99 331.68V333.071L152.785 333.672L152.99 335.063V336.66C151.604 340.293 150.007 340.894 148.2 338.462L147.805 338.652C147.834 337.939 147.766 337.212 147.6 336.47C147.795 335.708 147.795 334.844 147.6 333.877C147.775 332.764 147.844 331.431 147.805 329.878V323.901C147.756 323.169 147.819 322.3 147.995 321.294C145.642 321.509 144.113 320.513 143.41 318.306ZM165.983 315.2L169.382 312.93C170.007 313.584 170.891 314.214 172.033 314.819L171.652 316.328C175.49 324.404 174.86 332.354 169.763 340.176L168.386 336.807C167.888 337.041 167.971 335.137 168.635 331.094L164.255 331.973L162.57 337.905L160.681 339.795C159.733 339.551 158.85 338.921 158.029 337.905L158.41 332.603C158.986 331.04 159.67 329.463 160.461 327.871L160.271 326.011L160.988 324.209L162.673 323.184L164.46 317.852L165.983 315.2ZM166.13 326.699L168.649 326.494L167.727 322.891L166.13 326.699ZM191.267 313.311C191.472 313.252 191.696 313.125 191.94 312.93C192.536 312.998 193.117 313.311 193.684 313.867C193.732 314.57 193.645 315.381 193.42 316.299L193.552 316.87C193.112 317.407 192.663 318.096 192.204 318.936L191.94 319.111L191.677 319.492L191.545 319.873C191.096 320.283 190.646 320.908 190.197 321.748L189.802 322.114L189.392 322.686C189.128 323.047 188.771 323.418 188.322 323.799L187.78 324.736L187.253 325.308L186.711 325.674V326.245L186.975 326.436C187.209 327.09 187.57 327.71 188.059 328.296L188.19 328.867L188.454 329.058L188.586 329.614L188.864 329.805L188.996 330.361L189.26 330.552C189.426 331.206 189.694 331.958 190.065 332.808L190.197 333.364L190.461 333.921L190.607 334.492L190.871 334.858V335.43L191.398 336.733V337.861H190.197C189.885 337.432 189.484 337.056 188.996 336.733C188.811 336.333 188.542 336.021 188.19 335.796L188.059 335.43L187.648 335.049C187.346 334.414 186.901 333.853 186.315 333.364C186.325 333.237 186.276 333.11 186.169 332.983L184.44 329.614L184.162 329.424L184.03 328.867C183.513 329.316 183.02 329.941 182.551 330.742C181.721 331.387 180.964 332.324 180.28 333.555C179.772 333.848 179.279 334.346 178.801 335.049L178.273 335.43L177.731 336.177L177.321 336.558L176.662 337.305L176.12 337.671L175.725 338.433C175.197 338.687 174.616 339.185 173.981 339.927C173.854 338.97 173.898 337.847 174.113 336.558C174.484 335.864 174.885 334.927 175.314 333.745C176.086 333.022 176.804 331.958 177.468 330.552L177.731 330.361C177.956 330.078 178.225 329.644 178.537 329.058C178.625 329.019 178.713 328.892 178.801 328.677L179.606 327.93L179.87 327.549L180.148 326.992L180.676 326.611L180.954 326.055L181.35 325.864L181.613 325.498C181.096 324.297 180.383 323.232 179.475 322.305C179.074 321.367 178.449 320.43 177.6 319.492C177.424 317.764 177.824 316.201 178.801 314.805C179.406 314.404 180.168 314.155 181.086 314.058C181.203 315.679 181.74 317.114 182.697 318.364C183.127 319.741 183.796 320.928 184.704 321.924C185.397 321.309 186.154 320.371 186.975 319.111C187.072 319.082 187.165 318.96 187.253 318.745C187.595 318.56 187.907 318.184 188.19 317.617L188.586 317.236L190.065 314.995L190.329 314.614L190.607 314.248L190.871 313.677C191.018 313.628 191.149 313.506 191.267 313.311Z" fill="#282013"/>
<path d="M296.354 314.922C297.477 314.209 299.01 313.55 300.953 312.944C307.955 313.892 311.168 319.658 310.592 330.244C308.17 338.818 303.57 341.743 296.793 339.019C293.99 337.153 292.018 334.375 290.875 330.684C290.65 331.396 290.069 331.836 289.132 332.002C288.946 329.238 289.454 326.172 290.655 322.803C290.606 321.406 290.753 319.58 291.095 317.324V315.786L291.314 315.142C291.822 314.829 292.335 314.39 292.853 313.823C294.034 313.794 295.201 314.16 296.354 314.922ZM304.908 323.901C304.605 320.894 303.287 319.067 300.953 318.423C298.238 318.745 296.559 320.205 295.914 322.803C295.172 326.895 296.197 330.62 298.99 333.979C303.57 335.962 305.543 332.603 304.908 323.901ZM311.822 313.677L313.448 313.032C317.423 313.999 320.016 316.699 321.227 321.133C322.652 318.496 324.815 316.66 327.716 315.625C327.726 316.533 327.94 317.612 328.36 318.862C326.622 320.688 325.108 323.066 323.819 325.996C323.341 326.631 322.911 327.388 322.53 328.267C326.573 327.485 329.273 329.214 330.631 333.452C330.631 337.378 328.575 339.434 324.464 339.619C322.042 338.213 320.421 335.942 319.601 332.808C318.8 336.509 316.749 338.887 313.448 339.941L312.789 337.349V336.382L316.686 329.57L317.008 328.911L317.652 327.622L317.989 326.655C318.604 325.991 319.142 325.015 319.601 323.726C312.218 325.933 309.625 322.583 311.822 313.677ZM323.277 334.521C327.35 335.762 328.067 334.8 325.431 331.636L323.277 334.521ZM314.049 320.254C317.643 321.348 318.277 320.508 315.953 317.734L314.049 320.254Z" fill="#282013"/>
<path d="M443.399 303.571C452.804 303.571 462.749 302.86 472.014 304.067C487.946 304.067 533.617 296.951 549.589 296.951C590.091 296.951 587.181 297.463 627.455 300.329C639.93 301.217 654.759 296.357 667.26 296.954C667.26 296.954 667.26 296.954 667.26 296.954C666.825 294.325 666.547 291.681 666.547 289C667.26 296.951 672.178 302.352 667.26 296.954C667.788 300.141 668.545 303.307 669.316 306.49C670.874 312.921 672.664 319.203 673.47 325.716C674.721 335.82 676.859 346.205 676.931 356.345C676.943 357.991 677.725 370.864 673.701 370.998C667.84 371.193 661.718 370.648 655.894 370.255C644.541 369.488 633.142 371.494 621.779 371.494C617.499 371.494 613.592 372.454 609.318 372.486C604.165 372.524 599.01 372.486 593.857 372.486C578.877 372.486 564.387 373.304 549.589 374.469C540.097 375.216 530.218 375.085 520.859 376.507C511.877 377.871 502.796 378.365 493.629 377.719C475.664 376.454 457.9 375.282 439.861 374.469C435.292 374.263 424.135 374.412 420.246 371.88C419.297 371.262 419.467 366.451 419.4 365.985C418.5 359.745 419.4 353.62 419.4 347.366C419.4 339.616 418.997 331.807 419.438 324.063C419.696 319.543 420.266 314.015 422.015 309.63C422.837 307.57 422.752 306.089 425.63 305.058C428.147 304.157 431.108 303.765 433.899 303.598C437.027 303.412 440.263 303.571 443.399 303.571Z" fill="#1D0606"/>
<path d="M472.014 304.067C462.749 302.86 452.804 303.571 443.399 303.571C440.263 303.571 437.027 303.412 433.899 303.598C431.108 303.765 428.147 304.157 425.63 305.058C422.752 306.089 422.837 307.57 422.015 309.63C420.266 314.015 419.696 319.543 419.438 324.063C418.997 331.807 419.4 339.616 419.4 347.366C419.4 353.62 418.5 359.745 419.4 365.985C419.467 366.451 419.297 371.262 420.246 371.88C424.135 374.412 435.292 374.263 439.861 374.469C457.9 375.282 475.664 376.454 493.629 377.719C502.796 378.365 511.877 377.871 520.859 376.507C530.218 375.085 540.097 375.216 549.589 374.469C564.387 373.304 578.877 372.486 593.857 372.486C599.01 372.486 604.165 372.524 609.318 372.486C613.592 372.454 617.499 371.494 621.779 371.494C633.142 371.494 644.541 369.488 655.894 370.255C661.718 370.648 667.84 371.193 673.701 370.998C677.725 370.864 676.943 357.991 676.931 356.345C676.859 346.205 674.721 335.82 673.47 325.716C672.664 319.203 670.874 312.921 669.316 306.49C667.909 300.681 666.547 294.929 666.547 289C667.26 296.951 672.178 302.353 667.26 296.954C654.759 296.357 639.93 301.217 627.455 300.329C587.181 297.463 590.091 296.951 549.589 296.951C533.617 296.951 487.946 304.067 472.014 304.067Z" stroke="#433A2B" stroke-width="4" stroke-linecap="round"/>
<path d="M453.399 292.571C462.804 292.571 472.749 291.86 482.014 293.067C497.946 293.067 543.617 285.951 559.589 285.951C600.091 285.951 597.181 286.463 637.455 289.329C649.93 290.217 664.759 285.357 677.26 285.954C677.26 285.954 677.26 285.954 677.26 285.954C676.825 283.325 676.547 280.681 676.547 278C677.26 285.951 682.178 291.352 677.26 285.954C677.788 289.141 678.545 292.307 679.316 295.49C680.874 301.921 682.664 308.203 683.47 314.716C684.721 324.82 686.859 335.205 686.931 345.345C686.943 346.991 687.725 359.864 683.701 359.998C677.84 360.193 671.718 359.648 665.894 359.255C654.541 358.488 643.142 360.494 631.779 360.494C627.499 360.494 623.592 361.454 619.318 361.486C614.165 361.524 609.01 361.486 603.857 361.486C588.877 361.486 574.387 362.304 559.589 363.469C550.097 364.216 540.218 364.085 530.859 365.507C521.877 366.871 512.796 367.365 503.629 366.719C485.664 365.454 467.9 364.282 449.861 363.469C445.292 363.263 434.135 363.412 430.246 360.88C429.297 360.262 429.467 355.451 429.4 354.985C428.5 348.745 429.4 342.62 429.4 336.366C429.4 328.616 428.997 320.807 429.438 313.063C429.696 308.543 430.266 303.015 432.015 298.63C432.837 296.57 432.752 295.089 435.63 294.058C438.147 293.157 441.108 292.765 443.899 292.598C447.027 292.412 450.263 292.571 453.399 292.571Z" fill="white"/>
<path d="M482.014 293.067C472.749 291.86 462.804 292.571 453.399 292.571C450.263 292.571 447.027 292.412 443.899 292.598C441.108 292.765 438.147 293.157 435.63 294.058C432.752 295.089 432.837 296.57 432.015 298.63C430.266 303.015 429.696 308.543 429.438 313.063C428.997 320.807 429.4 328.616 429.4 336.366C429.4 342.62 428.5 348.745 429.4 354.985C429.467 355.451 429.297 360.262 430.246 360.88C434.135 363.412 445.292 363.263 449.861 363.469C467.9 364.282 485.664 365.454 503.629 366.719C512.796 367.365 521.877 366.871 530.859 365.507C540.218 364.085 550.097 364.216 559.589 363.469C574.387 362.304 588.877 361.486 603.857 361.486C609.01 361.486 614.165 361.524 619.318 361.486C623.592 361.454 627.499 360.494 631.779 360.494C643.142 360.494 654.541 358.488 665.894 359.255C671.718 359.648 677.84 360.193 683.701 359.998C687.725 359.864 686.943 346.991 686.931 345.345C686.859 335.205 684.721 324.82 683.47 314.716C682.664 308.203 680.874 301.921 679.316 295.49C677.909 289.681 676.547 283.929 676.547 278C677.26 285.951 682.178 291.353 677.26 285.954C664.759 285.357 649.93 290.217 637.455 289.329C597.181 286.463 600.091 285.951 559.589 285.951C543.617 285.951 497.946 293.067 482.014 293.067Z" stroke="#433A2B" stroke-width="4" stroke-linecap="round"/>
<path d="M446.233 320.693C446.692 316.084 449.939 313.477 455.975 312.871C459.773 312.959 460.472 314.614 458.069 317.837C455.071 317.378 452.718 318.267 451.009 320.503C451.37 321.05 451.878 321.562 452.532 322.041C461.106 323.838 464.29 327.524 462.083 333.101C457.63 338.521 451.072 340.684 442.41 339.59C442.82 338.984 443.455 338.413 444.314 337.876C445.379 337.622 446.59 337.114 447.947 336.353C448.074 336.372 448.201 336.309 448.328 336.162C449.402 335.938 450.55 335.43 451.771 334.639C454.056 333.955 456.155 332.617 458.069 330.625C458.03 329.922 457.713 329.287 457.117 328.721C450.701 327.461 447.073 324.785 446.233 320.693ZM477.508 314.16L479.031 312.725L479.251 313.34C480.813 313.096 481.985 313.711 482.767 315.186C482.825 317.305 482.312 319.688 481.229 322.334L480.789 324.385L480.569 325C480.579 325.693 480.433 326.445 480.13 327.256L479.91 328.281C479.812 328.945 479.593 329.692 479.251 330.522V331.753C479.124 332.964 479.271 334.326 479.69 335.84V336.455L479.471 337.275C478.221 338.857 476.722 339.922 474.974 340.469L472.894 337.686C468.099 339.893 464.954 338.462 463.46 333.394C463.333 332.593 463.333 331.567 463.46 330.317L463.548 326.406C462.884 324.238 463.362 320.566 464.983 315.391L466.756 313.34C467.449 313.545 468.108 313.955 468.733 314.57C468.812 315.693 469.178 316.851 469.832 318.042V318.657L469.612 322.744V324.795C469.671 325.566 469.598 326.523 469.393 327.666V328.486V329.087L470.052 330.112C470.706 331.011 471.434 331.147 472.234 330.522C472.566 329.849 472.713 329.033 472.674 328.076C473.484 327.061 473.997 325.762 474.212 324.18C474.407 323.447 474.7 322.7 475.091 321.938L475.311 320.503L475.53 319.478L475.97 318.452L476.409 317.427L476.629 316.401L477.068 315.391L477.508 314.16ZM486.341 318.774C484.339 316.802 484.729 314.854 487.513 312.93C488.372 313.125 489.085 313.384 489.651 313.706C497.239 313.101 501.595 315.83 502.718 321.895C502.718 328.262 498.558 330.669 490.237 329.116C489.905 330.083 489.71 331.25 489.651 332.617C487.2 342.227 485.252 342.554 483.807 333.599C484.471 332.603 484.798 331.431 484.788 330.083L484.979 329.116C483.23 326.978 483.489 325.024 485.755 323.257C485.716 322.495 485.848 321.65 486.15 320.723C486.141 320.156 486.204 319.507 486.341 318.774ZM497.459 323.652C497.879 320.039 495.862 318.413 491.409 318.774L491.014 321.309V321.895V322.48L490.823 323.066V324.048L490.633 324.634C493.055 325.532 495.33 325.205 497.459 323.652ZM506.175 318.774C504.173 316.802 504.563 314.854 507.347 312.93C508.206 313.125 508.919 313.384 509.485 313.706C517.073 313.101 521.429 315.83 522.552 321.895C522.552 328.262 518.392 330.669 510.071 329.116C509.739 330.083 509.544 331.25 509.485 332.617C507.034 342.227 505.086 342.554 503.641 333.599C504.305 332.603 504.632 331.431 504.622 330.083L504.812 329.116C503.064 326.978 503.323 325.024 505.589 323.257C505.55 322.495 505.682 321.65 505.984 320.723C505.975 320.156 506.038 319.507 506.175 318.774ZM517.293 323.652C517.713 320.039 515.696 318.413 511.243 318.774L510.848 321.309V321.895V322.48L510.657 323.066V324.048L510.467 324.634C512.889 325.532 515.164 325.205 517.293 323.652ZM529.803 313.706L531.224 312.9C532.425 313.096 533.777 313.569 535.281 314.321L534.476 317.573V318.188L533.45 321.646L533.245 322.041L533.04 322.656L532.85 323.667L531.824 327.329L531.619 328.135L531.224 329.57L531.019 329.966L530.608 331.387V332.002L530.198 333.423C531.077 333.618 532.161 333.755 533.45 333.833C533.821 333.95 534.363 334.019 535.076 334.038L535.691 334.243H536.292L537.317 334.434H538.123L538.738 334.639L540.364 334.243C542.239 334.907 543.797 336.055 545.037 337.686L543.821 339.517C542.425 339.37 540.799 339.507 538.943 339.927L538.533 339.722H537.728L535.076 339.312C534.256 339.321 533.309 339.189 532.234 338.916H531.619L530.608 338.711H529.993C529.251 338.525 528.372 338.457 527.356 338.506L524.925 339.927C524.739 339.36 524.603 338.682 524.515 337.891C523.753 336.738 523.411 335.386 523.489 333.833C524.017 333.013 524.427 332.065 524.72 330.991C525.979 329.224 526.79 326.987 527.151 324.282L527.972 322.246L528.177 320.825C528.616 319.839 528.953 318.618 529.188 317.163L529.393 316.768L529.188 315.332C529.393 314.951 529.598 314.409 529.803 313.706ZM549.476 313.311L549.666 312.93L550.428 313.12C551.258 315.2 552.771 316.968 554.969 318.423C557.371 314.946 559.964 313.623 562.747 314.453C562.444 317.148 561.053 319.546 558.572 321.646C558.592 322.417 558.465 323.306 558.191 324.312C558.143 325.063 557.957 325.947 557.635 326.963V329.043L556.302 333.218L555.921 335.107C555.472 335.654 555.027 336.416 554.588 337.393L554.207 337.583L553.65 338.901L553.46 339.282L553.079 339.663C552.649 340.366 552.396 340.239 552.317 339.282C551.419 338.452 551.038 337.314 551.175 335.869L550.984 333.599C551.59 332.427 551.971 330.972 552.127 329.233C552.361 328.677 552.552 327.92 552.698 326.963L552.889 326.392C552.615 325.649 552.171 324.829 551.556 323.931C551.351 323.335 551.287 322.637 551.365 321.836C550.867 321.182 550.11 320.552 549.095 319.946L548.714 319.375L548.333 318.994L547.762 318.613L547.381 318.232L546.824 317.866C546.775 317.739 546.648 317.612 546.443 317.485H545.872L545.682 316.533C546.492 315.234 547.757 314.16 549.476 313.311Z" fill="#282013"/>
<path d="M629.928 313.662C630.973 313.936 631.891 313.672 632.682 312.871C633.268 313.418 633.795 314.141 634.264 315.039C634.254 316.221 633.927 317.466 633.282 318.774C633.272 319.204 633.204 319.731 633.077 320.356V321.133L632.887 321.528V322.114L632.682 322.715L632.491 323.887C632.423 324.609 632.228 325.464 631.905 326.45L631.7 327.637C631.466 328.369 631.271 329.287 631.114 330.391L630.924 331.372L630.719 332.544L630.323 333.54L630.133 334.521C632.428 334.629 634.659 335.415 636.827 336.88L638.585 337.671L638.98 337.861H639.581L639.771 338.257C639.43 338.706 639.103 339.297 638.79 340.029H634.85H634.264H633.473H632.887L632.301 339.839H631.51L628.155 339.634H627.379C626.529 339.438 625.411 339.375 624.024 339.443C623.985 339.258 623.985 338.994 624.024 338.652C622.54 338.564 621.031 338.169 619.498 337.466C619.049 335.903 619.444 334.463 620.685 333.145L623.834 333.54H624.42L625.021 333.73H625.797C626.119 332.861 626.319 331.812 626.397 330.581L626.588 330.186C626.48 328.672 626.744 326.904 627.379 324.883V324.282L627.569 323.696L627.965 322.114V321.528L628.155 320.356C627.286 320.63 626.241 321.089 625.021 321.733L624.42 321.924L624.024 322.114C623.009 321.821 621.959 321.235 620.875 320.356C620.982 319.282 621.441 318.164 622.252 317.002L623.248 317.207L626.983 315.435L627.379 315.039L627.965 314.834L628.756 314.438C628.883 314.409 629.015 314.282 629.151 314.058L629.928 313.662ZM642.965 315.303C644.059 314.209 645.519 313.384 647.345 312.827C650.284 312.847 653.277 313.804 656.324 315.698L656.134 316.27C659.356 318.203 658.971 320.811 654.977 324.092C658.873 327.236 659.195 330.928 655.943 335.166C654.537 338.506 651.798 339.971 647.726 339.561C645.089 340.342 642.481 339.961 639.903 338.418C639.962 337.959 640.089 337.51 640.284 337.07L640.665 335.547V334.214L640.855 333.643V332.119C641.09 331.572 641.217 330.933 641.236 330.2L641.617 329.438V328.677C641.012 327.798 640.885 326.841 641.236 325.806C642.252 323.54 642.76 320.869 642.76 317.793L642.965 316.46V315.303ZM650.978 323.711C653.253 320.254 652.105 318.599 647.535 318.745C647.418 319.321 647.354 320.02 647.345 320.84L647.154 322.188V322.759V323.33L646.964 323.901V324.473C648.087 324.453 649.425 324.199 650.978 323.711ZM651.549 332.881C652.613 331.504 652.804 329.976 652.12 328.296C650.772 328.794 649.244 329.048 647.535 329.058L646.964 329.248L646.393 329.438C645.426 331.987 645.299 333.643 646.012 334.404C648.482 335.596 650.328 335.088 651.549 332.881Z" fill="#282013"/>
<defs>
<linearGradient id="paint0_linear_471_34" x1="507" y1="-11" x2="394" y2="372" gradientUnits="userSpaceOnUse">
<stop offset="0.200902" stop-color="#FF7A00"/>
<stop offset="1" stop-color="#FFEA9F"/>
</linearGradient>
</defs>
</svg>
