<svg width="577" height="105" viewBox="0 0 577 105" fill="none" xmlns="http://www.w3.org/2000/svg">
<path d="M7.48612 83.5467C7.48612 72.3581 -2.61388 55.0716 4.59425 44.3832C4.99585 42.972 7.96265 43.4001 10.6658 42.7641C13.3384 42.1352 15.35 40.6709 18.062 40.0683C26.3742 38.2211 35.7722 41.1631 44.1214 41.2434C59.8161 41.3943 75.8318 41.9738 91.4707 40.5521C105.132 39.3102 118.514 35.0306 132.184 33.2251C144.581 31.5878 156.602 31.2896 169.096 31.2896C195.267 31.2896 221.088 35.4426 247.274 34.9532C270.94 34.5108 295.583 34.5951 318.955 30.7366C369.451 22.4 417.637 11.3609 469.505 13.8706C492.781 14.9969 516.046 16.8735 539.319 18.1562C546.361 18.5444 554.633 17.9765 561.508 20.0917C563.749 20.7814 562.746 37.7673 563.581 40.6904C568.01 56.1889 574.045 84.7673 553.006 88.5927C541.569 90.6721 529.015 90.5629 517.338 91.012C480.707 92.4209 443.537 91.2035 407.156 97.5096C387.217 100.966 368.109 100.966 347.88 100.966H347.848C334.464 100.966 322.123 96.771 308.932 96.058C292.99 95.1963 276.441 94.5499 260.477 94.7446C252.843 94.8377 245.564 96.9194 238.012 97.7861C228.652 98.8601 219.564 97.5769 210.224 97.3022C181.494 96.4572 152.748 100.966 123.959 100.966C111.034 100.966 98.2294 102.21 85.3187 102.21C74.6358 102.21 64.0309 100.966 53.2456 100.966C40.4391 100.966 27.2706 101.824 14.5367 100.689C1.9766 99.57 7.48612 92.8263 7.48612 83.5467Z" fill="#1D0606"/>
<path d="M4.99789 43.816C-2.9785 54.4512 7.48612 72.158 7.48612 83.5467C7.48612 92.8263 1.9766 99.57 14.5367 100.689C27.2706 101.824 40.4391 100.966 53.2456 100.966C64.0309 100.966 74.6359 102.21 85.3187 102.21C98.2294 102.21 111.034 100.966 123.959 100.966C152.748 100.966 181.494 96.4572 210.224 97.3022C219.564 97.5769 228.652 98.8601 238.012 97.7861C245.564 96.9194 252.843 94.8377 260.477 94.7446C276.441 94.55 292.99 95.1963 308.932 96.058C322.123 96.771 334.464 100.966 347.848 100.966C368.089 100.966 387.206 100.968 407.156 97.5096C443.537 91.2035 480.707 92.4209 517.338 91.012C529.015 90.5629 541.569 90.6721 553.006 88.5927C574.045 84.7673 568.01 56.1889 563.581 40.6904C562.746 37.7673 563.749 20.7814 561.508 20.0917C554.633 17.9765 546.361 18.5444 539.319 18.1562C516.046 16.8735 492.781 14.9969 469.505 13.8706C417.637 11.3609 369.451 22.4 318.955 30.7366C295.583 34.5951 270.94 34.5108 247.274 34.9532C221.088 35.4426 195.267 31.2896 169.096 31.2896C156.602 31.2896 144.581 31.5878 132.184 33.2251C118.514 35.0306 105.132 39.3102 91.4707 40.5521C75.8318 41.9738 59.8161 41.3943 44.1214 41.2434C35.7722 41.1631 26.3742 38.2211 18.062 40.0683C15.35 40.6709 13.3384 42.1352 10.6658 42.7641C7.15436 43.5903 3.19801 42.6209 4.99769 46.2202" stroke="#282013" stroke-width="4" stroke-linecap="round"/>
<path d="M14.4002 72.0389C14.4002 60.8503 4.30018 43.5638 11.5083 32.8754C11.9099 31.4642 14.8767 31.8923 17.5798 31.2563C20.2524 30.6274 22.264 29.1631 24.976 28.5605C33.2883 26.7133 42.6862 29.6553 51.0354 29.7355C66.7301 29.8865 82.7459 30.466 98.3848 29.0443C112.046 27.8024 125.428 23.5228 139.098 21.7173C151.495 20.08 163.516 19.7818 176.01 19.7818C202.181 19.7818 228.002 23.9348 254.188 23.4453C277.854 23.003 302.497 23.0873 325.869 19.2288C376.365 10.8922 424.551 -0.146943 476.419 2.3628C499.695 3.48905 522.96 5.36565 546.233 6.64843C553.275 7.03654 561.547 6.46869 568.422 8.58388C570.664 9.27363 569.66 26.2595 570.496 29.1826C574.924 44.6811 580.96 73.2594 559.92 77.0849C548.483 79.1643 535.929 79.0551 524.252 79.5042C487.621 80.9131 450.451 79.6956 414.07 86.0018C394.131 89.4579 375.023 89.4579 354.794 89.4579H354.762C341.378 89.4579 329.037 85.2632 315.846 84.5502C299.904 83.6884 283.355 83.0421 267.391 83.2368C259.757 83.3299 252.478 85.4116 244.926 86.2783C235.566 87.3523 226.478 86.0691 217.138 85.7944C188.408 84.9494 159.662 89.4579 130.873 89.4579C117.948 89.4579 105.143 90.7021 92.2328 90.7021C81.5499 90.7021 70.945 89.4579 60.1597 89.4579C47.3531 89.4579 34.1847 90.3161 21.4507 89.1814C8.89066 88.0622 14.4002 81.3185 14.4002 72.0389Z" fill="white"/>
<path d="M11.9119 32.3082C3.93557 42.9434 14.4002 60.6502 14.4002 72.0389C14.4002 81.3185 8.89066 88.0622 21.4507 89.1814C34.1847 90.3161 47.3531 89.4579 60.1597 89.4579C70.945 89.4579 81.5499 90.7021 92.2328 90.7021C105.143 90.7021 117.948 89.4579 130.873 89.4579C159.662 89.4579 188.408 84.9494 217.138 85.7944C226.478 86.0691 235.566 87.3523 244.926 86.2783C252.478 85.4116 259.757 83.3299 267.391 83.2368C283.355 83.0421 299.904 83.6884 315.846 84.5502C329.037 85.2632 341.378 89.4579 354.762 89.4579C375.003 89.4579 394.12 89.4597 414.07 86.0018C450.451 79.6956 487.621 80.9131 524.252 79.5042C535.929 79.0551 548.483 79.1643 559.92 77.0849C580.96 73.2594 574.924 44.6811 570.496 29.1826C569.66 26.2595 570.664 9.27363 568.422 8.58388C561.547 6.46869 553.275 7.03654 546.233 6.64843C522.96 5.36565 499.695 3.48905 476.419 2.3628C424.551 -0.146943 376.365 10.8922 325.869 19.2288C302.497 23.0873 277.854 23.003 254.188 23.4453C228.002 23.9348 202.181 19.7818 176.01 19.7818C163.516 19.7818 151.495 20.08 139.098 21.7173C125.428 23.5228 112.046 27.8024 98.3848 29.0443C82.7459 30.466 66.7301 29.8865 51.0354 29.7355C42.6862 29.6553 33.2883 26.7133 24.976 28.5605C22.264 29.1631 20.2524 30.6274 17.5798 31.2563C14.0684 32.0825 10.1121 31.113 11.9118 34.7124" stroke="#282013" stroke-width="4" stroke-linecap="round"/>
<path d="M252.164 37.8105C253.258 36.7168 254.718 35.8916 256.544 35.335C259.483 35.3545 262.477 36.3115 265.523 38.2061L265.333 38.7773C268.556 40.7109 268.17 43.3184 264.176 46.5996C268.072 49.7441 268.395 53.4355 265.143 57.6738C263.736 61.0137 260.997 62.4785 256.925 62.0684C254.288 62.8496 251.681 62.4688 249.103 60.9258C249.161 60.4668 249.288 60.0176 249.483 59.5781L249.864 58.0547V56.7217L250.055 56.1504V54.627C250.289 54.0801 250.416 53.4404 250.436 52.708L250.816 51.9463V51.1846C250.211 50.3057 250.084 49.3486 250.436 48.3135C251.451 46.0479 251.959 43.377 251.959 40.3008L252.164 38.9678V37.8105ZM260.177 46.2188C262.452 42.7617 261.305 41.1064 256.734 41.2529C256.617 41.8291 256.554 42.5273 256.544 43.3477L256.354 44.6953V45.2666V45.8379L256.163 46.4092V46.9805C257.286 46.9609 258.624 46.707 260.177 46.2188ZM260.748 55.3887C261.812 54.0117 262.003 52.4834 261.319 50.8037C259.972 51.3018 258.443 51.5557 256.734 51.5654L256.163 51.7559L255.592 51.9463C254.625 54.4951 254.498 56.1504 255.211 56.9121C257.682 58.1035 259.527 57.5957 260.748 55.3887ZM282.252 36.668L283.775 35.2324L283.995 35.8477C285.558 35.6035 286.729 36.2188 287.511 37.6934C287.569 39.8125 287.057 42.1953 285.973 44.8418L285.533 46.8926L285.313 47.5078C285.323 48.2012 285.177 48.9531 284.874 49.7637L284.654 50.7891C284.557 51.4531 284.337 52.2002 283.995 53.0303V54.2607C283.868 55.4717 284.015 56.834 284.435 58.3477V58.9629L284.215 59.7832C282.965 61.3652 281.466 62.4297 279.718 62.9766L277.638 60.1934C272.843 62.4004 269.698 60.9697 268.204 55.9014C268.077 55.1006 268.077 54.0752 268.204 52.8252L268.292 48.9141C267.628 46.7461 268.106 43.0742 269.728 37.8984L271.5 35.8477C272.193 36.0527 272.853 36.4629 273.478 37.0781C273.556 38.2012 273.922 39.3584 274.576 40.5498V41.165L274.356 45.252V47.3027C274.415 48.0742 274.342 49.0312 274.137 50.1738V50.9941V51.5947L274.796 52.6201C275.45 53.5186 276.178 53.6553 276.979 53.0303C277.311 52.3564 277.457 51.541 277.418 50.584C278.229 49.5684 278.741 48.2695 278.956 46.6875C279.151 45.9551 279.444 45.208 279.835 44.4463L280.055 43.0107L280.274 41.9854L280.714 40.96L281.153 39.9346L281.373 38.9092L281.812 37.8984L282.252 36.668ZM292.228 35.8184L292.418 35.4375L293.18 35.6279C294.01 37.708 295.523 39.4756 297.721 40.9307C300.123 37.4541 302.716 36.1309 305.499 36.9609C305.196 39.6562 303.805 42.0537 301.324 44.1533C301.344 44.9248 301.217 45.8135 300.943 46.8193C300.895 47.5713 300.709 48.4551 300.387 49.4707V51.5508L299.054 55.7256L298.673 57.6152C298.224 58.1621 297.779 58.9238 297.34 59.9004L296.959 60.0908L296.402 61.4092L296.212 61.79L295.831 62.1709C295.401 62.874 295.147 62.7471 295.069 61.79C294.171 60.96 293.79 59.8223 293.927 58.377L293.736 56.1064C294.342 54.9346 294.723 53.4795 294.879 51.7412C295.113 51.1846 295.304 50.4277 295.45 49.4707L295.641 48.8994C295.367 48.1572 294.923 47.3369 294.308 46.4385C294.103 45.8428 294.039 45.1445 294.117 44.3438C293.619 43.6895 292.862 43.0596 291.847 42.4541L291.466 41.8828L291.085 41.502L290.514 41.1211L290.133 40.7402L289.576 40.374C289.527 40.2471 289.4 40.1201 289.195 39.9932H288.624L288.434 39.041C289.244 37.7422 290.509 36.668 292.228 35.8184Z" fill="#282013"/>
</svg>
