<svg width="1920" height="295" viewBox="0 0 1920 295" fill="none" xmlns="http://www.w3.org/2000/svg">
<path d="M54.7486 239.521C-8.38086 239.521 -32.0544 219.273 -36 209.149V148H1922V191.736V258.959C1911.97 246.81 1881.16 222.512 1838.16 222.512C1784.4 222.512 1728.67 295 1679.84 295C1631.01 295 1582.19 209.149 1530.89 209.149C1479.6 209.149 1453.95 209.149 1349.4 249.24C1244.84 289.331 1189.24 301.57 1102.3 258.959C1064.17 240.271 1056.84 204.766 1016.49 191.736C951.671 170.806 889.833 239.521 848.799 239.521C797.506 239.521 711.196 260.579 652.999 258.959C594.802 257.339 574.087 209.149 517.862 209.149C461.638 209.149 473.968 239.521 436.485 239.521C399.001 239.521 326.994 209.149 290.005 209.149C253.015 209.149 133.66 239.521 54.7486 239.521Z" fill="#A57731"/>
<path d="M54.7486 206.521C-8.38086 206.521 -32.0544 186.273 -36 176.149V115L946.946 136L1922 115V158.736V225.959C1911.97 213.81 1881.16 189.512 1838.16 189.512C1784.4 189.512 1728.67 262 1679.84 262C1631.01 262 1582.19 176.149 1530.89 176.149C1479.6 176.149 1453.95 176.149 1349.4 216.24C1244.84 256.331 1189.24 268.57 1102.3 225.959C1064.17 207.271 1056.84 171.766 1016.49 158.736C951.671 137.806 889.833 206.521 848.799 206.521C797.506 206.521 711.196 227.579 652.999 225.959C594.802 224.339 574.087 176.149 517.862 176.149C461.638 176.149 473.968 206.521 436.485 206.521C399.001 206.521 326.994 176.149 290.005 176.149C253.015 176.149 133.66 206.521 54.7486 206.521Z" fill="#805322"/>
<path d="M1831.25 55.4793C1894.38 55.4793 1918.05 75.7273 1922 85.8512V147H-36V103.264V36.0413C-25.9716 48.1901 4.83691 72.4876 47.8439 72.4876C101.603 72.4876 157.334 0 206.161 0C254.987 0 303.814 85.8512 355.107 85.8512C406.4 85.8512 432.046 85.8512 536.604 45.7603C641.162 5.66943 696.755 -6.56979 783.697 36.0413C821.827 54.7294 829.159 90.2339 869.513 103.264C934.329 124.194 996.167 55.4793 1037.2 55.4793C1088.49 55.4793 1174.8 34.4215 1233 36.0413C1291.2 37.6612 1311.91 85.8512 1368.14 85.8512C1424.36 85.8512 1412.03 55.4793 1449.52 55.4793C1487 55.4793 1559.01 85.8512 1596 85.8512C1632.99 85.8512 1752.34 55.4793 1831.25 55.4793Z" fill="#5E3F11"/>
<path d="M1831.25 88.4793C1894.38 88.4793 1918.05 108.727 1922 118.851V180L939.054 159L-36 180V136.264V69.0413C-25.9716 81.1901 4.83691 105.488 47.8439 105.488C101.603 105.488 157.334 33 206.161 33C254.987 33 303.814 118.851 355.107 118.851C406.4 118.851 432.046 118.851 536.604 78.7603C641.162 38.6694 696.755 26.4302 783.697 69.0413C821.827 87.7294 829.159 123.234 869.513 136.264C934.329 157.194 996.167 88.4793 1037.2 88.4793C1088.49 88.4793 1174.8 67.4215 1233 69.0413C1291.2 70.6612 1311.91 118.851 1368.14 118.851C1424.36 118.851 1412.03 88.4793 1449.52 88.4793C1487 88.4793 1559.01 118.851 1596 118.851C1632.99 118.851 1752.34 88.4793 1831.25 88.4793Z" fill="#805322"/>
</svg>
