<svg width="161" height="141" viewBox="0 0 161 141" fill="none" xmlns="http://www.w3.org/2000/svg">
<path d="M13.0179 22.0339C15.2644 17.2601 33.6945 18.1672 38.1997 18.0455C46.9674 20.968 59.2922 18.346 68.3866 16.325C87.9298 11.982 111.227 14.7453 131.107 15.2301C137.57 15.3877 138.145 23.5014 138.145 28.5249C138.145 41.8396 134.821 54.1737 134 67.3143C132.969 83.8145 138.003 99.3657 141.508 115.332C143.733 125.468 140.844 130.391 130.325 133.397C128.748 133.847 123.661 132.067 121.253 132.067C103.337 132.067 85.965 137.698 67.761 137.698C53.3624 137.698 34.5564 138.351 21.3076 132.85C11.6626 128.844 11.5495 126.331 7.23078 118.773C2.62557 110.714 3.00774 97.5113 3.00774 87.882C3.00774 73.284 6.86194 58.1095 9.2641 43.6965C10.3739 37.0377 10.1679 28.0903 13.0179 22.0339Z" fill="white" stroke="black" stroke-width="6" stroke-linecap="round"/>
<path d="M28.3949 11.1159C30.6413 6.34215 49.0715 7.24927 53.5767 7.1275C62.3443 10.0501 74.6692 7.42799 83.7636 5.40701C103.307 1.06407 126.604 3.82728 146.484 4.31214C152.946 4.46978 153.522 12.5834 153.522 17.6069C153.522 30.9216 150.198 43.2558 149.377 56.3963C148.346 72.8965 153.38 88.4478 156.885 104.414C159.11 114.55 156.221 119.473 145.701 122.479C144.125 122.929 139.038 121.15 136.63 121.15C118.714 121.15 101.342 126.78 83.1379 126.78C68.7394 126.78 49.9334 127.433 36.6845 121.932C27.0395 117.926 26.9265 115.413 22.6077 107.855C18.0025 99.7957 18.3847 86.5934 18.3847 76.964C18.3847 62.366 22.2389 47.1915 24.6411 32.7785C25.7508 26.1198 25.5448 17.1723 28.3949 11.1159Z" fill="#745A32" stroke="black" stroke-width="6" stroke-linecap="round"/>
<path d="M104.377 44.4023H112.044L95.2937 63.5482L115 89.5961H99.5708L87.4875 73.7961L73.6583 89.5961H65.9875L83.9042 69.1169L65 44.4044H80.8208L91.7437 58.8461L104.377 44.4023ZM101.687 85.0086H105.935L78.5125 48.7503H73.9542L101.687 85.0086Z" fill="black"/>
</svg>
