<svg width="507" height="344" viewBox="0 0 507 344" fill="none" xmlns="http://www.w3.org/2000/svg">
<rect x="0.5" y="0.5" width="506" height="343" fill="#7D3B12"/>
<path d="M67.58 130V94.04H62.62V86.6H76.26V130H67.58ZM82.6557 130V86.6H104.914V94.04H91.1497V104.394H103.426V111.586H91.1497V122.808H105.162V130H82.6557ZM116.968 94.04H107.606V86.6H134.762V94.04H125.4V130H116.968V94.04ZM146.853 130H138.359V86.6H146.853V104.084H156.773V86.6H165.267V130H156.773V112.02H146.853V130ZM179.739 115.678V108.61H192.511V115.678H179.739ZM206.958 130V86.6H215.452V122.808H228.348V130H206.958ZM240.94 94.04V109.54H246.458C248.731 107.68 249.868 104.952 249.868 101.356C249.868 99.8267 249.558 98.38 248.938 97.016C248.359 95.652 247.656 94.66 246.83 94.04H240.94ZM232.57 130V86.6H249.372C252.182 87.84 254.394 89.7413 256.006 92.304C257.659 94.8667 258.486 97.8633 258.486 101.294C258.486 104.683 257.638 107.825 255.944 110.718C254.249 113.611 251.748 115.657 248.442 116.856H240.94V130H232.57ZM272.955 130V86.6H281.449V122.808H294.345V130H272.955ZM316.901 86.6C319.794 88.956 321.944 92.118 323.349 96.086C324.754 100.054 325.457 104.146 325.457 108.362C325.457 112.537 324.775 116.505 323.411 120.266C322.047 124.027 319.877 127.272 316.901 130H304.129C301.153 127.272 298.983 124.027 297.619 120.266C296.255 116.505 295.573 112.537 295.573 108.362C295.573 104.146 296.276 100.054 297.681 96.086C299.086 92.118 301.236 88.956 304.129 86.6H316.901ZM308.283 122.808H312.747C313.78 121.609 314.648 119.667 315.351 116.98C316.095 114.252 316.467 111.379 316.467 108.362C316.467 105.345 316.116 102.513 315.413 99.868C314.71 97.1813 313.842 95.2387 312.809 94.04H308.283C307.25 95.2387 306.361 97.1813 305.617 99.868C304.914 102.513 304.563 105.345 304.563 108.362C304.563 111.379 304.914 114.252 305.617 116.98C306.361 119.667 307.25 121.609 308.283 122.808ZM342.32 122.808H353.232V130H337.484C334.756 127.437 332.69 124.193 331.284 120.266C329.879 116.339 329.176 112.309 329.176 108.176C329.176 104.001 329.962 99.992 331.532 96.148C333.103 92.304 335.438 89.1213 338.538 86.6H353.232V94.04H342.32C341.204 95.3213 340.233 97.388 339.406 100.24C338.621 103.092 338.228 105.82 338.228 108.424C338.228 111.028 338.621 113.756 339.406 116.608C340.233 119.46 341.204 121.527 342.32 122.808ZM357.781 130V86.6H366.275V104.89H366.585L374.335 86.6H383.077L374.025 107.308L383.511 130H374.087L366.709 111.028H366.275V130H357.781ZM386.48 130V86.6H408.738V94.04H394.974V104.394H407.25V111.586H394.974V122.808H408.986V130H386.48ZM422.219 122.808H427.799C428.956 121.361 429.865 119.253 430.527 116.484C431.229 113.715 431.581 110.966 431.581 108.238C431.581 101.749 430.361 97.016 427.923 94.04H422.219V122.808ZM413.787 130V86.6H431.767C437.636 91.808 440.571 98.876 440.571 107.804C440.571 116.691 437.822 124.089 432.325 130H413.787Z" fill="#FFE195"/>
<path d="M108.753 212.128H116.145V217H105.477C103.629 215.264 102.229 213.066 101.277 210.406C100.325 207.746 99.8489 205.016 99.8489 202.216C99.8489 199.388 100.381 196.672 101.445 194.068C102.509 191.464 104.091 189.308 106.191 187.6H116.145V192.64H108.753C107.997 193.508 107.339 194.908 106.779 196.84C106.247 198.772 105.981 200.62 105.981 202.384C105.981 204.148 106.247 205.996 106.779 207.928C107.339 209.86 107.997 211.26 108.753 212.128ZM131.852 187.6C133.812 189.196 135.268 191.338 136.22 194.026C137.172 196.714 137.648 199.486 137.648 202.342C137.648 205.17 137.186 207.858 136.262 210.406C135.338 212.954 133.868 215.152 131.852 217H123.2C121.184 215.152 119.714 212.954 118.79 210.406C117.866 207.858 117.404 205.17 117.404 202.342C117.404 199.486 117.88 196.714 118.832 194.026C119.784 191.338 121.24 189.196 123.2 187.6H131.852ZM126.014 212.128H129.038C129.738 211.316 130.326 210 130.802 208.18C131.306 206.332 131.558 204.386 131.558 202.342C131.558 200.298 131.32 198.38 130.844 196.588C130.368 194.768 129.78 193.452 129.08 192.64H126.014C125.314 193.452 124.712 194.768 124.208 196.588C123.732 198.38 123.494 200.298 123.494 202.342C123.494 204.386 123.732 206.332 124.208 208.18C124.712 210 125.314 211.316 126.014 212.128ZM154.027 217L146.173 200.746L145.963 200.83L146.215 205.786V217H140.923V187.6H145.165L152.893 204.484L153.103 204.4L152.641 199.234V187.6H157.933V217H154.027ZM166.71 192.64H160.368V187.6H178.764V192.64H172.422V217H166.71V192.64ZM181.201 187.6H192.373C194.137 188.188 195.635 189.28 196.867 190.876C198.127 192.444 198.757 194.376 198.757 196.672C198.757 200.424 197.273 203.182 194.305 204.946L198.547 217H192.667L189.097 206.29H186.871V217H181.201V187.6ZM186.871 192.64V201.586H190.483C190.959 201.474 191.477 200.998 192.037 200.158C192.625 199.29 192.919 198.282 192.919 197.134C192.919 195.986 192.667 194.978 192.163 194.11C191.687 193.242 191.211 192.752 190.735 192.64H186.871ZM214.306 217L213.424 212.338H206.788L205.906 217H200.194L205.864 187.6H214.558L219.934 217H214.306ZM210.022 193.06L208.384 202.846L207.46 207.844H212.71L211.744 202.846L210.106 193.06H210.022ZM230.118 212.128H237.51V217H226.842C224.994 215.264 223.594 213.066 222.642 210.406C221.69 207.746 221.214 205.016 221.214 202.216C221.214 199.388 221.746 196.672 222.81 194.068C223.874 191.464 225.456 189.308 227.556 187.6H237.51V192.64H230.118C229.362 193.508 228.704 194.908 228.144 196.84C227.612 198.772 227.346 200.62 227.346 202.384C227.346 204.148 227.612 205.996 228.144 207.928C228.704 209.86 229.362 211.26 230.118 212.128ZM245.337 192.64H238.995V187.6H257.391V192.64H251.049V217H245.337V192.64ZM284.572 187.6L278.608 217H270.712L264.748 187.6H270.796L273.106 201.208L274.534 210.028H274.786L276.214 201.208L278.524 187.6H284.572ZM286.816 217V187.6H301.894V192.64H292.57V199.654H300.886V204.526H292.57V212.128H302.062V217H286.816ZM305.314 187.6H316.486C318.25 188.188 319.748 189.28 320.98 190.876C322.24 192.444 322.87 194.376 322.87 196.672C322.87 200.424 321.386 203.182 318.418 204.946L322.66 217H316.78L313.21 206.29H310.984V217H305.314V187.6ZM310.984 192.64V201.586H314.596C315.072 201.474 315.59 200.998 316.15 200.158C316.738 199.29 317.032 198.282 317.032 197.134C317.032 195.986 316.78 194.978 316.276 194.11C315.8 193.242 315.324 192.752 314.848 192.64H310.984ZM325.904 217V187.6H331.658V217H325.904ZM335.706 217V187.6H351.036V192.64H341.46V199.99H349.776V204.862H341.46V217H335.706ZM353.466 217V187.6H359.22V217H353.466ZM363.269 217V187.6H378.347V192.64H369.023V199.654H377.339V204.526H369.023V212.128H378.515V217H363.269ZM387.479 212.128H391.259C392.043 211.148 392.659 209.72 393.107 207.844C393.583 205.968 393.821 204.106 393.821 202.258C393.821 197.862 392.995 194.656 391.343 192.64H387.479V212.128ZM381.767 217V187.6H393.947C397.923 191.128 399.911 195.916 399.911 201.964C399.911 207.984 398.049 212.996 394.325 217H381.767ZM414.65 199.318L414.104 198.058C413.516 196.91 413.222 195.678 413.222 194.362C413.222 191.954 414.216 190.33 416.204 189.49H422.966V194.53H418.64L418.556 194.782L425.948 212.338V217H414.272C412.676 216.384 411.416 215.32 410.492 213.808C409.596 212.296 409.148 210.616 409.148 208.768C409.148 206.92 409.61 205.17 410.534 203.518C411.458 201.838 412.83 200.438 414.65 199.318ZM416.708 203.812C415.168 205.128 414.398 206.654 414.398 208.39C414.398 210.098 414.944 211.414 416.036 212.338H420.446L416.708 203.812ZM172.731 246.6H183.903C185.667 247.188 187.165 248.28 188.397 249.876C189.657 251.444 190.287 253.376 190.287 255.672C190.287 259.424 188.803 262.182 185.835 263.946L190.077 276H184.197L180.627 265.29H178.401V276H172.731V246.6ZM178.401 251.64V260.586H182.013C182.489 260.474 183.007 259.998 183.567 259.158C184.155 258.29 184.449 257.282 184.449 256.134C184.449 254.986 184.197 253.978 183.693 253.11C183.217 252.242 182.741 251.752 182.265 251.64H178.401ZM193.321 276V246.6H208.399V251.64H199.075V258.654H207.391V263.526H199.075V271.128H208.567V276H193.321ZM224.923 276L217.069 259.746L216.859 259.83L217.111 264.786V276H211.819V246.6H216.061L223.789 263.484L223.999 263.4L223.537 258.234V246.6H228.829V276H224.923ZM246.552 246.6C248.512 248.196 249.968 250.338 250.92 253.026C251.872 255.714 252.348 258.486 252.348 261.342C252.348 264.17 251.886 266.858 250.962 269.406C250.038 271.954 248.568 274.152 246.552 276H237.9C235.884 274.152 234.414 271.954 233.49 269.406C232.566 266.858 232.104 264.17 232.104 261.342C232.104 258.486 232.58 255.714 233.532 253.026C234.484 250.338 235.94 248.196 237.9 246.6H246.552ZM240.714 271.128H243.738C244.438 270.316 245.026 269 245.502 267.18C246.006 265.332 246.258 263.386 246.258 261.342C246.258 259.298 246.02 257.38 245.544 255.588C245.068 253.768 244.48 252.452 243.78 251.64H240.714C240.014 252.452 239.412 253.768 238.908 255.588C238.432 257.38 238.194 259.298 238.194 261.342C238.194 263.386 238.432 265.332 238.908 267.18C239.412 269 240.014 270.316 240.714 271.128ZM262.889 271.128H266.417C267.033 270.456 267.467 269.784 267.719 269.112C267.999 268.412 268.139 267.39 268.139 266.046V246.6H273.893V263.946C273.893 265.374 273.851 266.494 273.767 267.306C273.711 268.09 273.543 269.056 273.263 270.204C272.787 272.248 271.471 274.18 269.315 276H259.991C257.835 274.236 256.519 272.304 256.043 270.204C255.623 268.496 255.413 266.41 255.413 263.946V246.6H261.167V266.046C261.167 267.39 261.293 268.412 261.545 269.112C261.825 269.784 262.273 270.456 262.889 271.128ZM290.835 276L282.981 259.746L282.771 259.83L283.023 264.786V276H277.731V246.6H281.973L289.701 263.484L289.911 263.4L289.449 258.234V246.6H294.741V276H290.835ZM306.92 271.128H314.312V276H303.644C301.796 274.264 300.396 272.066 299.444 269.406C298.492 266.746 298.016 264.016 298.016 261.216C298.016 258.388 298.548 255.672 299.612 253.068C300.676 250.464 302.258 248.308 304.358 246.6H314.312V251.64H306.92C306.164 252.508 305.506 253.908 304.946 255.84C304.414 257.772 304.148 259.62 304.148 261.384C304.148 263.148 304.414 264.996 304.946 266.928C305.506 268.86 306.164 270.26 306.92 271.128ZM317.393 276V246.6H332.471V251.64H323.147V258.654H331.463V263.526H323.147V271.128H332.639V276H317.393ZM341.603 271.128H345.383C346.167 270.148 346.783 268.72 347.231 266.844C347.707 264.968 347.945 263.106 347.945 261.258C347.945 256.862 347.119 253.656 345.467 251.64H341.603V271.128ZM335.891 276V246.6H348.071C352.047 250.128 354.035 254.916 354.035 260.964C354.035 266.984 352.173 271.996 348.449 276H335.891Z" fill="#FFE195"/>
<rect x="0.5" y="0.5" width="506" height="343" stroke="#FFA14A"/>
</svg>
