<svg width="1326" height="1326" viewBox="0 0 1326 1326" fill="none" xmlns="http://www.w3.org/2000/svg">
<rect x="202" y="285" width="921" height="787" fill="#D9D9D9"/>
<path d="M987.253 942.266C979.613 952.253 968.067 957.493 956.4 957.493C948.16 957.493 939.84 954.88 932.8 949.466C915.773 936.413 912.547 912.026 925.6 895.013C975.933 829.333 1002.85 749.733 1003.45 664.813C1004.04 579.88 978.213 499.92 928.787 433.546C915.973 416.346 919.533 392 936.747 379.186C953.947 366.36 978.293 369.933 991.093 387.146C1049.85 466.04 1081.84 564.84 1081.13 665.333C1080.44 765.866 1047.09 864.213 987.253 942.266ZM832.987 852.506C825.013 852.506 816.973 850.066 810.053 845C792.76 832.333 789 808.013 801.68 790.706C828.72 753.773 843.2 709.933 843.52 663.933C843.84 617.973 829.973 573.933 803.427 536.586C790.987 519.093 795.093 494.84 812.587 482.413C830.08 469.986 854.32 474.08 866.747 491.573C902.8 542.306 921.64 602.093 921.213 664.466C920.773 726.906 901.12 786.426 864.347 836.613C856.747 847 844.947 852.506 832.987 852.506ZM711.44 943.466C711.32 958.386 702.693 971.92 689.227 978.306C683.92 980.813 678.24 982.053 672.6 982.053C663.88 982.053 655.24 979.12 648.2 973.44L427.52 795.493L282.8 794.613C272.48 794.546 262.627 790.373 255.387 783.04C248.133 775.693 244.107 765.786 244.2 755.466L245.653 564.573C245.8 543.226 263.16 526.013 284.48 526.013C284.56 526.013 284.64 526.013 284.72 526.013L429.48 526.893L652.493 352.013C664.227 342.826 680.173 341.16 693.587 347.706C706.96 354.28 715.413 367.933 715.307 382.84L711.44 943.466ZM662.667 0.212905C296.68 0.212905 0 296.906 0 662.893C0 1028.87 296.68 1325.56 662.667 1325.56C1028.65 1325.56 1325.33 1028.87 1325.33 662.893C1325.33 296.906 1028.65 0.212905 662.667 0.212905Z" fill="#72A88E"/>
</svg>
