<svg width="507" height="344" viewBox="0 0 507 344" fill="none" xmlns="http://www.w3.org/2000/svg">
<rect x="0.5" y="0.5" width="506" height="343" fill="#7D3B12"/>
<path d="M101.944 86.6H116.824V94.04H104.92L104.734 94.412L114.654 112.516C116.679 116.153 117.692 118.923 117.692 120.824C117.692 124.999 116.307 128.057 113.538 130H97.108V122.808H109.942L110.128 122.436L98.968 102.41C97.356 99.5167 96.55 97.1607 96.55 95.342C96.55 91.0433 98.348 88.1293 101.944 86.6ZM132.739 122.808H137.947C138.856 121.816 139.497 120.824 139.869 119.832C140.282 118.799 140.489 117.29 140.489 115.306V86.6H148.983V112.206C148.983 114.314 148.921 115.967 148.797 117.166C148.714 118.323 148.466 119.749 148.053 121.444C147.35 124.461 145.408 127.313 142.225 130H128.461C125.278 127.396 123.336 124.544 122.633 121.444C122.013 118.923 121.703 115.843 121.703 112.206V86.6H130.197V115.306C130.197 117.29 130.383 118.799 130.755 119.832C131.168 120.824 131.83 121.816 132.739 122.808ZM163.018 94.04V109.54H168.536C170.809 107.68 171.946 104.952 171.946 101.356C171.946 99.8267 171.636 98.38 171.016 97.016C170.437 95.652 169.735 94.66 168.908 94.04H163.018ZM154.648 130V86.6H171.45C174.261 87.84 176.472 89.7413 178.084 92.304C179.737 94.8667 180.564 97.8633 180.564 101.294C180.564 104.683 179.717 107.825 178.022 110.718C176.327 113.611 173.827 115.657 170.52 116.856H163.018V130H154.648ZM193.473 94.04V109.54H198.991C201.264 107.68 202.401 104.952 202.401 101.356C202.401 99.8267 202.091 98.38 201.471 97.016C200.892 95.652 200.19 94.66 199.363 94.04H193.473ZM185.103 130V86.6H201.905C204.716 87.84 206.927 89.7413 208.539 92.304C210.192 94.8667 211.019 97.8633 211.019 101.294C211.019 104.683 210.172 107.825 208.477 110.718C206.782 113.611 204.282 115.657 200.975 116.856H193.473V130H185.103ZM215.558 130V86.6H224.052V122.808H236.948V130H215.558ZM251.457 130H242.405V115.554L233.229 86.6H241.661L245.505 99.806L246.807 107.432H247.055L248.357 99.806L252.201 86.6H260.633L251.457 115.554V130ZM261.925 120.824H270.853V130H261.925V120.824ZM261.925 102.472H270.853V111.648H261.925V102.472ZM304.134 130H292.726C290.494 129.049 288.614 127.479 287.084 125.288C285.555 123.097 284.79 120.597 284.79 117.786C284.79 113.239 286.547 109.809 290.06 107.494V107.246C287.25 104.849 285.844 101.852 285.844 98.256C285.844 95.528 286.609 93.1307 288.138 91.064C289.709 88.956 291.569 87.468 293.718 86.6H303.08C305.23 87.468 307.048 88.9147 308.536 90.94C310.066 92.9653 310.83 95.342 310.83 98.07C310.83 101.666 309.404 104.683 306.552 107.122V107.37C310.107 109.726 311.884 113.115 311.884 117.538C311.884 120.307 311.099 122.849 309.528 125.164C307.999 127.437 306.201 129.049 304.134 130ZM295.578 111.524C294.132 112.723 293.408 114.479 293.408 116.794C293.408 118.075 293.636 119.295 294.09 120.452C294.586 121.609 295.124 122.395 295.702 122.808H300.972C301.551 122.395 302.068 121.609 302.522 120.452C303.018 119.295 303.266 118.075 303.266 116.794C303.266 114.479 302.543 112.723 301.096 111.524H295.578ZM295.95 94.04C295.372 94.4533 294.855 95.1353 294.4 96.086C293.946 96.9953 293.718 98.008 293.718 99.124C293.718 101.191 294.442 102.906 295.888 104.27H300.786C302.233 102.906 302.956 101.191 302.956 99.124C302.956 98.008 302.729 96.9953 302.274 96.086C301.82 95.1353 301.303 94.4533 300.724 94.04H295.95ZM334.347 130H322.939C320.707 129.049 318.826 127.479 317.297 125.288C315.768 123.097 315.003 120.597 315.003 117.786C315.003 113.239 316.76 109.809 320.273 107.494V107.246C317.462 104.849 316.057 101.852 316.057 98.256C316.057 95.528 316.822 93.1307 318.351 91.064C319.922 88.956 321.782 87.468 323.931 86.6H333.293C335.442 87.468 337.261 88.9147 338.749 90.94C340.278 92.9653 341.043 95.342 341.043 98.07C341.043 101.666 339.617 104.683 336.765 107.122V107.37C340.32 109.726 342.097 113.115 342.097 117.538C342.097 120.307 341.312 122.849 339.741 125.164C338.212 127.437 336.414 129.049 334.347 130ZM325.791 111.524C324.344 112.723 323.621 114.479 323.621 116.794C323.621 118.075 323.848 119.295 324.303 120.452C324.799 121.609 325.336 122.395 325.915 122.808H331.185C331.764 122.395 332.28 121.609 332.735 120.452C333.231 119.295 333.479 118.075 333.479 116.794C333.479 114.479 332.756 112.723 331.309 111.524H325.791ZM326.163 94.04C325.584 94.4533 325.068 95.1353 324.613 96.086C324.158 96.9953 323.931 98.008 323.931 99.124C323.931 101.191 324.654 102.906 326.101 104.27H330.999C332.446 102.906 333.169 101.191 333.169 99.124C333.169 98.008 332.942 96.9953 332.487 96.086C332.032 95.1353 331.516 94.4533 330.937 94.04H326.163ZM364.56 130H353.152C350.92 129.049 349.039 127.479 347.51 125.288C345.981 123.097 345.216 120.597 345.216 117.786C345.216 113.239 346.973 109.809 350.486 107.494V107.246C347.675 104.849 346.27 101.852 346.27 98.256C346.27 95.528 347.035 93.1307 348.564 91.064C350.135 88.956 351.995 87.468 354.144 86.6H363.506C365.655 87.468 367.474 88.9147 368.962 90.94C370.491 92.9653 371.256 95.342 371.256 98.07C371.256 101.666 369.83 104.683 366.978 107.122V107.37C370.533 109.726 372.31 113.115 372.31 117.538C372.31 120.307 371.525 122.849 369.954 125.164C368.425 127.437 366.627 129.049 364.56 130ZM356.004 111.524C354.557 112.723 353.834 114.479 353.834 116.794C353.834 118.075 354.061 119.295 354.516 120.452C355.012 121.609 355.549 122.395 356.128 122.808H361.398C361.977 122.395 362.493 121.609 362.948 120.452C363.444 119.295 363.692 118.075 363.692 116.794C363.692 114.479 362.969 112.723 361.522 111.524H356.004ZM356.376 94.04C355.797 94.4533 355.281 95.1353 354.826 96.086C354.371 96.9953 354.144 98.008 354.144 99.124C354.144 101.191 354.867 102.906 356.314 104.27H361.212C362.659 102.906 363.382 101.191 363.382 99.124C363.382 98.008 363.155 96.9953 362.7 96.086C362.245 95.1353 361.729 94.4533 361.15 94.04H356.376ZM392.665 110.16H392.417H392.665L395.951 96.582L398.617 86.6H406.367L409.157 130H401.035L399.857 106.316H399.547L395.083 123.8H389.999L385.535 106.316H385.225L384.047 130H375.925L378.715 86.6H386.465L389.131 96.582L392.417 110.16H392.665Z" fill="#FFE195"/>
<path d="M115.801 217L107.947 200.746L107.737 200.83L107.989 205.786V217H102.697V187.6H106.939L114.667 204.484L114.877 204.4L114.415 199.234V187.6H119.707V217H115.801ZM137.43 187.6C139.39 189.196 140.846 191.338 141.798 194.026C142.75 196.714 143.226 199.486 143.226 202.342C143.226 205.17 142.764 207.858 141.84 210.406C140.916 212.954 139.446 215.152 137.43 217H128.778C126.762 215.152 125.292 212.954 124.368 210.406C123.444 207.858 122.982 205.17 122.982 202.342C122.982 199.486 123.458 196.714 124.41 194.026C125.362 191.338 126.818 189.196 128.778 187.6H137.43ZM131.592 212.128H134.616C135.316 211.316 135.904 210 136.38 208.18C136.884 206.332 137.136 204.386 137.136 202.342C137.136 200.298 136.898 198.38 136.422 196.588C135.946 194.768 135.358 193.452 134.658 192.64H131.592C130.892 193.452 130.29 194.768 129.786 196.588C129.31 198.38 129.072 200.298 129.072 202.342C129.072 204.386 129.31 206.332 129.786 208.18C130.29 210 130.892 211.316 131.592 212.128ZM157.974 192.64H151.632V187.6H170.028V192.64H163.686V217H157.974V192.64ZM172.464 217V187.6H187.542V192.64H178.218V199.654H186.534V204.526H178.218V212.128H187.71V217H172.464ZM203.478 217L202.596 212.338H195.96L195.078 217H189.366L195.036 187.6H203.73L209.106 217H203.478ZM199.194 193.06L197.556 202.846L196.632 207.844H201.882L200.916 202.846L199.278 193.06H199.194ZM222.262 203.56H222.094H222.262L224.488 194.362L226.294 187.6H231.544L233.434 217H227.932L227.134 200.956H226.924L223.9 212.8H220.456L217.432 200.956H217.222L216.424 217H210.922L212.812 187.6H218.062L219.868 194.362L222.094 203.56H222.262ZM248.29 192.64H241.948V187.6H260.344V192.64H254.002V217H248.29V192.64ZM274.996 187.6C276.956 189.196 278.412 191.338 279.364 194.026C280.316 196.714 280.792 199.486 280.792 202.342C280.792 205.17 280.33 207.858 279.406 210.406C278.482 212.954 277.012 215.152 274.996 217H266.344C264.328 215.152 262.858 212.954 261.934 210.406C261.01 207.858 260.548 205.17 260.548 202.342C260.548 199.486 261.024 196.714 261.976 194.026C262.928 191.338 264.384 189.196 266.344 187.6H274.996ZM269.158 212.128H272.182C272.882 211.316 273.47 210 273.946 208.18C274.45 206.332 274.702 204.386 274.702 202.342C274.702 200.298 274.464 198.38 273.988 196.588C273.512 194.768 272.924 193.452 272.224 192.64H269.158C268.458 193.452 267.856 194.768 267.352 196.588C266.876 198.38 266.638 200.298 266.638 202.342C266.638 204.386 266.876 206.332 267.352 208.18C267.856 210 268.458 211.316 269.158 212.128ZM284.068 217V187.6H289.822V199.99H290.032L295.282 187.6H301.204L295.072 201.628L301.498 217H295.114L290.116 204.148H289.822V217H284.068ZM303.509 217V187.6H318.587V192.64H309.263V199.654H317.579V204.526H309.263V212.128H318.755V217H303.509ZM335.111 217L327.257 200.746L327.047 200.83L327.299 205.786V217H322.007V187.6H326.249L333.977 204.484L334.187 204.4L333.725 199.234V187.6H339.017V217H335.111ZM345.736 187.6H355.816V192.64H347.752L347.626 192.892L354.346 205.156C355.718 207.62 356.404 209.496 356.404 210.784C356.404 213.612 355.466 215.684 353.59 217H342.46V212.128H351.154L351.28 211.876L343.72 198.31C342.628 196.35 342.082 194.754 342.082 193.522C342.082 190.61 343.3 188.636 345.736 187.6ZM365.092 207.298V202.51H373.744V207.298H365.092ZM396.635 217L388.781 200.746L388.571 200.83L388.823 205.786V217H383.531V187.6H387.773L395.501 204.484L395.711 204.4L395.249 199.234V187.6H400.541V217H396.635ZM418.264 187.6C420.224 189.196 421.68 191.338 422.632 194.026C423.584 196.714 424.06 199.486 424.06 202.342C424.06 205.17 423.598 207.858 422.674 210.406C421.75 212.954 420.28 215.152 418.264 217H409.612C407.596 215.152 406.126 212.954 405.202 210.406C404.278 207.858 403.816 205.17 403.816 202.342C403.816 199.486 404.292 196.714 405.244 194.026C406.196 191.338 407.652 189.196 409.612 187.6H418.264ZM412.426 212.128H415.45C416.15 211.316 416.738 210 417.214 208.18C417.718 206.332 417.97 204.386 417.97 202.342C417.97 200.298 417.732 198.38 417.256 196.588C416.78 194.768 416.192 193.452 415.492 192.64H412.426C411.726 193.452 411.124 194.768 410.62 196.588C410.144 198.38 409.906 200.298 409.906 202.342C409.906 204.386 410.144 206.332 410.62 208.18C411.124 210 411.726 211.316 412.426 212.128ZM201.817 276L200.935 271.338H194.299L193.417 276H187.705L193.375 246.6H202.069L207.445 276H201.817ZM197.533 252.06L195.895 261.846L194.971 266.844H200.221L199.255 261.846L197.617 252.06H197.533ZM209.891 276V246.6H215.645V276H209.891ZM219.694 246.6H230.866C232.63 247.188 234.128 248.28 235.36 249.876C236.62 251.444 237.25 253.376 237.25 255.672C237.25 259.424 235.766 262.182 232.798 263.946L237.04 276H231.16L227.59 265.29H225.364V276H219.694V246.6ZM225.364 251.64V260.586H228.976C229.452 260.474 229.97 259.998 230.53 259.158C231.118 258.29 231.412 257.282 231.412 256.134C231.412 254.986 231.16 253.978 230.656 253.11C230.18 252.242 229.704 251.752 229.228 251.64H225.364ZM245.996 271.128H249.776C250.56 270.148 251.176 268.72 251.624 266.844C252.1 264.968 252.338 263.106 252.338 261.258C252.338 256.862 251.512 253.656 249.86 251.64H245.996V271.128ZM240.284 276V246.6H252.464C256.44 250.128 258.428 254.916 258.428 260.964C258.428 266.984 256.566 271.996 252.842 276H240.284ZM261.694 246.6H272.866C274.63 247.188 276.128 248.28 277.36 249.876C278.62 251.444 279.25 253.376 279.25 255.672C279.25 259.424 277.766 262.182 274.798 263.946L279.04 276H273.16L269.59 265.29H267.364V276H261.694V246.6ZM267.364 251.64V260.586H270.976C271.452 260.474 271.97 259.998 272.53 259.158C273.118 258.29 273.412 257.282 273.412 256.134C273.412 254.986 273.16 253.978 272.656 253.11C272.18 252.242 271.704 251.752 271.228 251.64H267.364ZM295.565 246.6C297.525 248.196 298.981 250.338 299.933 253.026C300.885 255.714 301.361 258.486 301.361 261.342C301.361 264.17 300.899 266.858 299.975 269.406C299.051 271.954 297.581 274.152 295.565 276H286.913C284.897 274.152 283.427 271.954 282.503 269.406C281.579 266.858 281.117 264.17 281.117 261.342C281.117 258.486 281.593 255.714 282.545 253.026C283.497 250.338 284.953 248.196 286.913 246.6H295.565ZM289.727 271.128H292.751C293.451 270.316 294.039 269 294.515 267.18C295.019 265.332 295.271 263.386 295.271 261.342C295.271 259.298 295.033 257.38 294.557 255.588C294.081 253.768 293.493 252.452 292.793 251.64H289.727C289.027 252.452 288.425 253.768 287.921 255.588C287.445 257.38 287.207 259.298 287.207 261.342C287.207 263.386 287.445 265.332 287.921 267.18C288.425 269 289.027 270.316 289.727 271.128ZM310.307 251.64V262.14H314.045C315.585 260.88 316.355 259.032 316.355 256.596C316.355 255.56 316.145 254.58 315.725 253.656C315.333 252.732 314.857 252.06 314.297 251.64H310.307ZM304.637 276V246.6H316.019C317.923 247.44 319.421 248.728 320.513 250.464C321.633 252.2 322.193 254.23 322.193 256.554C322.193 258.85 321.619 260.978 320.471 262.938C319.323 264.898 317.629 266.284 315.389 267.096H310.307V276H304.637ZM327.136 246.6H337.216V251.64H329.152L329.026 251.892L335.746 264.156C337.118 266.62 337.804 268.496 337.804 269.784C337.804 272.612 336.866 274.684 334.99 276H323.86V271.128H332.554L332.68 270.876L325.12 257.31C324.028 255.35 323.482 253.754 323.482 252.522C323.482 249.61 324.7 247.636 327.136 246.6Z" fill="#FFE195"/>
<rect x="0.5" y="0.5" width="506" height="343" stroke="#FFA14A"/>
</svg>
