<svg width="146" height="96" viewBox="0 0 146 96" fill="none" xmlns="http://www.w3.org/2000/svg">
<rect x="4" y="4.44171" width="137.317" height="87.1166" rx="43.5583" stroke="#FFF066" stroke-width="8"/>
<path d="M88.5112 36.8875C87.2956 37.4859 85.9853 37.8791 84.6276 38.0672C86.0168 37.1611 87.0904 35.725 87.5956 33.9983C86.2852 34.8531 84.8328 35.4515 83.3015 35.7934C82.0543 34.3231 80.3019 33.4683 78.3127 33.4683C74.6028 33.4683 71.5717 36.7508 71.5717 40.8026C71.5717 41.3838 71.6348 41.948 71.7453 42.478C66.1251 42.1702 61.1206 39.2468 57.7895 34.8189C57.2054 35.896 56.8739 37.1611 56.8739 38.4946C56.8739 41.0419 58.0579 43.2986 59.8892 44.5808C58.7683 44.5808 57.7264 44.2389 56.8107 43.726V43.7773C56.8107 47.3333 59.1472 50.308 62.2415 50.9747C61.2481 51.2692 60.2051 51.3101 59.1946 51.0944C59.6234 52.5518 60.4631 53.8271 61.5958 54.7409C62.7285 55.6547 64.0972 56.1612 65.5094 56.1891C63.1155 58.2413 60.1481 59.3507 57.0949 59.3347C56.5581 59.3347 56.0214 59.3006 55.4846 59.2322C58.4842 61.3179 62.052 62.5317 65.8725 62.5317C78.3127 62.5317 85.1486 51.3509 85.1486 41.6574C85.1486 41.3325 85.1486 41.0248 85.1328 40.7C86.4589 39.6742 87.5956 38.3749 88.5112 36.8875Z" fill="#FFF066"/>
</svg>
