<svg width="507" height="344" viewBox="0 0 507 344" fill="none" xmlns="http://www.w3.org/2000/svg">
<rect x="0.5" y="0.5" width="506" height="343" fill="#7D3B12"/>
<path d="M220.982 94.04H211.62V86.6H238.776V94.04H229.414V130H220.982V94.04ZM256.792 130L255.49 123.118H245.694L244.392 130H235.96L244.33 86.6H257.164L265.1 130H256.792ZM250.468 94.66L248.05 109.106L246.686 116.484H254.436L253.01 109.106L250.592 94.66H250.468ZM275.53 86.6L279.932 104.27H280.18L284.582 86.6H293.138L287.186 107.308L293.572 130H284.768L280.18 111.4H279.932L275.344 130H266.54L272.926 107.308L266.974 86.6H275.53Z" fill="#FFE195"/>
<path d="M247.764 199.738V199.948C251.6 201.152 253.518 203.77 253.518 207.802C253.518 209.846 252.972 211.68 251.88 213.304C250.816 214.928 249.626 216.16 248.31 217H238.734V212.128H245.958C246.294 211.82 246.672 211.204 247.092 210.28C247.512 209.356 247.722 208.418 247.722 207.466C247.722 205.702 247.092 204.4 245.832 203.56H242.43V198.982L247.512 193.102L247.302 192.64H238.902V187.6H249.024C251.404 188.608 252.594 190.204 252.594 192.388C252.594 194.068 251.824 195.678 250.284 197.218L247.764 199.738ZM265.411 205.282H259.279C256.899 202.874 255.709 200.018 255.709 196.714C255.709 192.85 256.899 189.812 259.279 187.6H265.411C267.791 189.812 268.981 192.85 268.981 196.714C268.981 200.018 267.791 202.874 265.411 205.282ZM261.421 191.632C260.665 192.92 260.287 194.544 260.287 196.504C260.287 198.436 260.665 200.046 261.421 201.334H263.269C264.025 199.962 264.403 198.352 264.403 196.504C264.403 194.628 264.025 193.004 263.269 191.632H261.421ZM283.891 217H277.759C275.379 214.592 274.189 211.736 274.189 208.432C274.189 204.568 275.379 201.53 277.759 199.318H283.891C286.271 201.53 287.461 204.568 287.461 208.432C287.461 211.736 286.271 214.592 283.891 217ZM279.901 203.35C279.145 204.638 278.767 206.262 278.767 208.222C278.767 210.154 279.145 211.764 279.901 213.052H281.749C282.505 211.68 282.883 210.07 282.883 208.222C282.883 206.346 282.505 204.722 281.749 203.35H279.901ZM264.571 217L273.895 187.6H278.641L269.149 217H264.571Z" fill="#FFE195"/>
<rect x="0.5" y="0.5" width="506" height="343" stroke="#FFA14A"/>
</svg>
