<svg width="220" height="144" viewBox="0 0 220 144" fill="none" xmlns="http://www.w3.org/2000/svg">
<rect x="4" y="4" width="212" height="136" rx="46" stroke="#FFF066" stroke-width="8"/>
<path fill-rule="evenodd" clip-rule="evenodd" d="M91.1791 48.3147C90.5644 48.0361 89.8915 47.94 89.2306 48.0364C88.5696 48.1328 87.9447 48.4183 87.421 48.8631C86.8972 49.3079 86.4938 49.8957 86.2526 50.5654C86.0113 51.2351 85.9412 51.9621 86.0495 52.6709L91.6916 89.5272C92.2389 93.0824 95.861 95.1212 98.8886 93.3503C101.421 91.8688 105.182 89.5862 108.566 87.2044C110.257 86.0122 115.439 82.1945 114.802 79.4779C114.255 77.1552 105.548 68.4267 100.573 63.2373C98.6199 61.1985 99.5105 60.0224 101.817 61.8977C107.546 66.554 116.738 73.6348 119.778 75.6281C122.46 77.3856 123.858 77.6856 125.529 77.3856C128.579 76.839 131.408 75.9924 133.717 74.961C136.836 73.5679 136.684 68.9491 133.719 67.6042L91.1791 48.3147Z" fill="#FFF066"/>
</svg>
