<svg width="146" height="96" viewBox="0 0 146 96" fill="none" xmlns="http://www.w3.org/2000/svg">
<rect x="4.68311" y="4.44171" width="137.317" height="87.1166" rx="43.5583" stroke="#FFF066" stroke-width="8"/>
<path fill-rule="evenodd" clip-rule="evenodd" d="M60.9098 32.3551C60.5037 32.171 60.0593 32.1076 59.6227 32.1713C59.1861 32.235 58.7734 32.4235 58.4274 32.7173C58.0815 33.0111 57.8149 33.3994 57.6556 33.8417C57.4963 34.2841 57.45 34.7643 57.5215 35.2325L61.2483 59.5773C61.6098 61.9256 64.0023 63.2722 66.0021 62.1025C67.6749 61.1239 70.1594 59.6162 72.3942 58.043C73.5116 57.2555 76.9344 54.7338 76.5137 52.9394C76.1522 51.4051 70.401 45.6397 67.1146 42.2119C65.8246 40.8652 66.4129 40.0884 67.9362 41.3271C71.7205 44.4027 77.7922 49.0798 79.8002 50.3964C81.5716 51.5573 82.495 51.7555 83.5993 51.5573C85.6139 51.1963 87.4822 50.6371 89.0071 49.9558C91.0677 49.0356 90.9674 45.9848 89.0087 45.0964L60.9098 32.3551Z" fill="#FFF066"/>
</svg>
