<svg width="935" height="125" viewBox="0 0 935 125" fill="none" xmlns="http://www.w3.org/2000/svg">
<path d="M6.12 8.397L84.303 6.255L83.844 16.506L62.424 18.648L52.938 108.612L36.108 110.142L28.458 22.014L7.038 24.156L6.12 8.397ZM169.127 76.329C169.127 82.551 168.617 87.753 167.597 91.935C166.577 96.015 164.741 99.636 162.089 102.798C156.989 108.714 147.095 111.672 132.407 111.672C117.821 111.672 106.499 108.357 98.4412 101.727C96.7072 93.159 95.8402 84.693 95.8402 76.329C95.8402 59.397 99.0022 44.25 105.326 30.888C111.752 17.526 119.198 8.03999 127.664 2.42999C139.598 7.326 149.492 16.506 157.346 29.97C165.2 43.332 169.127 58.785 169.127 76.329ZM150.614 69.444C150.614 53.736 148.013 40.272 142.811 29.052C132.917 38.13 125.165 48.636 119.555 60.57C114.047 72.504 111.293 84.234 111.293 95.76C114.761 96.474 118.892 96.831 123.686 96.831C133.07 96.831 141.128 95.658 147.86 93.312C149.696 85.356 150.614 77.4 150.614 69.444ZM272.382 16.659L240.099 50.472L277.89 107.847L245.454 110.142L224.799 66.537L221.433 70.056L217.302 108.612L200.472 110.142L191.751 8.54999L228.165 6.255L223.269 52.461L258.765 6.255L272.382 16.659ZM362.141 108L302.318 109.377L295.127 8.54999L362.6 6.40799L362.141 16.659L329.858 20.484L325.88 52.155L358.469 51.849L359.234 65.619L324.656 63.018L320.525 97.137L362.753 92.241L362.141 108ZM471.761 7.02L465.182 108L451.412 110.295L401.84 28.287H400.616L401.075 108L385.775 108.765L389.906 8.54999L426.932 6.255L453.707 82.602H454.931L456.461 7.785L471.761 7.02ZM561.937 76.329C561.937 82.551 561.427 87.753 560.407 91.935C559.387 96.015 557.551 99.636 554.899 102.798C549.799 108.714 539.905 111.672 525.217 111.672C510.631 111.672 499.309 108.357 491.251 101.727C489.517 93.159 488.65 84.693 488.65 76.329C488.65 59.397 491.812 44.25 498.136 30.888C504.562 17.526 512.008 8.03999 520.474 2.42999C532.408 7.326 542.302 16.506 550.156 29.97C558.01 43.332 561.937 58.785 561.937 76.329ZM543.424 69.444C543.424 53.736 540.823 40.272 535.621 29.052C525.727 38.13 517.975 48.636 512.365 60.57C506.857 72.504 504.103 84.234 504.103 95.76C507.571 96.474 511.702 96.831 516.496 96.831C525.88 96.831 533.938 95.658 540.67 93.312C542.506 85.356 543.424 77.4 543.424 69.444ZM687.223 110.295L665.344 28.899H664.12L647.443 108L633.673 110.295L600.472 34.866H599.554L597.106 108L581.806 108.765L588.997 8.54999L626.023 7.02L641.476 79.848L659.377 6.255L696.403 8.54999L700.993 108L687.223 110.295ZM737.018 110.142L728.297 8.54999L764.711 6.255L753.848 108.612L737.018 110.142ZM820.045 96.831C830.755 96.831 841.006 94.995 850.798 91.323L856 107.847C847.738 110.397 839.323 111.672 830.755 111.672C822.187 111.672 814.537 110.754 807.805 108.918C801.175 107.082 796.075 104.685 792.505 101.727C790.771 93.159 789.904 84.693 789.904 76.329C789.904 59.295 793.117 43.842 799.543 29.97C805.969 16.098 813.364 6.40799 821.728 0.899993L851.257 19.566C837.181 28.542 826.012 39.966 817.75 53.838C809.488 67.71 805.357 81.684 805.357 95.76C809.743 96.474 814.639 96.831 820.045 96.831ZM863.49 40.68C863.49 26.298 871.14 13.038 886.44 0.899993L914.439 19.566C901.791 27.522 895.467 35.937 895.467 44.811C895.467 48.585 896.742 52.563 899.292 56.745C901.842 60.927 904.392 65.058 906.942 69.138C909.594 73.218 910.92 77.043 910.92 80.613C910.92 95.403 900.72 106.827 880.32 114.885L872.976 104.94C877.974 102.186 881.442 99.534 883.38 96.984C885.318 94.434 886.287 91.629 886.287 88.569C886.287 85.509 885.063 82.092 882.615 78.318C880.269 74.442 877.668 70.923 874.812 67.761C872.058 64.599 869.457 60.57 867.009 55.674C864.663 50.778 863.49 45.78 863.49 40.68Z" fill="#411C1C"/>
<path d="M19.12 18.397L97.303 16.255L96.844 26.506L75.424 28.648L65.938 118.612L49.108 120.142L41.458 32.014L20.038 34.156L19.12 18.397ZM182.127 86.329C182.127 92.551 181.617 97.753 180.597 101.935C179.577 106.015 177.741 109.636 175.089 112.798C169.989 118.714 160.095 121.672 145.407 121.672C130.821 121.672 119.499 118.357 111.441 111.727C109.707 103.159 108.84 94.693 108.84 86.329C108.84 69.397 112.002 54.25 118.326 40.888C124.752 27.526 132.198 18.04 140.664 12.43C152.598 17.326 162.492 26.506 170.346 39.97C178.2 53.332 182.127 68.785 182.127 86.329ZM163.614 79.444C163.614 63.736 161.013 50.272 155.811 39.052C145.917 48.13 138.165 58.636 132.555 70.57C127.047 82.504 124.293 94.234 124.293 105.76C127.761 106.474 131.892 106.831 136.686 106.831C146.07 106.831 154.128 105.658 160.86 103.312C162.696 95.356 163.614 87.4 163.614 79.444ZM285.382 26.659L253.099 60.472L290.89 117.847L258.454 120.142L237.799 76.537L234.433 80.056L230.302 118.612L213.472 120.142L204.751 18.55L241.165 16.255L236.269 62.461L271.765 16.255L285.382 26.659ZM375.141 118L315.318 119.377L308.127 18.55L375.6 16.408L375.141 26.659L342.858 30.484L338.88 62.155L371.469 61.849L372.234 75.619L337.656 73.018L333.525 107.137L375.753 102.241L375.141 118ZM484.761 17.02L478.182 118L464.412 120.295L414.84 38.287H413.616L414.075 118L398.775 118.765L402.906 18.55L439.932 16.255L466.707 92.602H467.931L469.461 17.785L484.761 17.02ZM574.937 86.329C574.937 92.551 574.427 97.753 573.407 101.935C572.387 106.015 570.551 109.636 567.899 112.798C562.799 118.714 552.905 121.672 538.217 121.672C523.631 121.672 512.309 118.357 504.251 111.727C502.517 103.159 501.65 94.693 501.65 86.329C501.65 69.397 504.812 54.25 511.136 40.888C517.562 27.526 525.008 18.04 533.474 12.43C545.408 17.326 555.302 26.506 563.156 39.97C571.01 53.332 574.937 68.785 574.937 86.329ZM556.424 79.444C556.424 63.736 553.823 50.272 548.621 39.052C538.727 48.13 530.975 58.636 525.365 70.57C519.857 82.504 517.103 94.234 517.103 105.76C520.571 106.474 524.702 106.831 529.496 106.831C538.88 106.831 546.938 105.658 553.67 103.312C555.506 95.356 556.424 87.4 556.424 79.444ZM700.223 120.295L678.344 38.899H677.12L660.443 118L646.673 120.295L613.472 44.866H612.554L610.106 118L594.806 118.765L601.997 18.55L639.023 17.02L654.476 89.848L672.377 16.255L709.403 18.55L713.993 118L700.223 120.295ZM750.018 120.142L741.297 18.55L777.711 16.255L766.848 118.612L750.018 120.142ZM833.045 106.831C843.755 106.831 854.006 104.995 863.798 101.323L869 117.847C860.738 120.397 852.323 121.672 843.755 121.672C835.187 121.672 827.537 120.754 820.805 118.918C814.175 117.082 809.075 114.685 805.505 111.727C803.771 103.159 802.904 94.693 802.904 86.329C802.904 69.295 806.117 53.842 812.543 39.97C818.969 26.098 826.364 16.408 834.728 10.9L864.257 29.566C850.181 38.542 839.012 49.966 830.75 63.838C822.488 77.71 818.357 91.684 818.357 105.76C822.743 106.474 827.639 106.831 833.045 106.831ZM876.49 50.68C876.49 36.298 884.14 23.038 899.44 10.9L927.439 29.566C914.791 37.522 908.467 45.937 908.467 54.811C908.467 58.585 909.742 62.563 912.292 66.745C914.842 70.927 917.392 75.058 919.942 79.138C922.594 83.218 923.92 87.043 923.92 90.613C923.92 105.403 913.72 116.827 893.32 124.885L885.976 114.94C890.974 112.186 894.442 109.534 896.38 106.984C898.318 104.434 899.287 101.629 899.287 98.569C899.287 95.509 898.063 92.092 895.615 88.318C893.269 84.442 890.668 80.923 887.812 77.761C885.058 74.599 882.457 70.57 880.009 65.674C877.663 60.778 876.49 55.78 876.49 50.68Z" fill="white"/>
</svg>
